<svg width="400" height="393" viewBox="0 0 400 393" fill="none" xmlns="http://www.w3.org/2000/svg">
<path d="M90.0026 251.787H9.55005V324.221H90.0026V251.787Z" fill="#F5F5F5"/>
<path d="M73.0362 282.648H26.525C22.947 282.648 20.0464 285.549 20.0464 289.127V298.324C20.0464 301.902 22.947 304.803 26.525 304.803H73.0362C76.6142 304.803 79.5147 301.902 79.5147 298.324V289.127C79.5147 285.549 76.6142 282.648 73.0362 282.648Z" fill="#E0E0E0"/>
<path d="M89.5552 265.501C89.5552 265.622 71.8231 265.716 49.9785 265.716C28.1339 265.716 10.4018 265.622 10.4018 265.501C10.4018 265.381 28.1339 265.286 49.9785 265.286C71.8231 265.286 89.5552 265.415 89.5552 265.501Z" fill="#E0E0E0"/>
<path d="M18.5322 260.141C18.5322 260.536 18.4152 260.922 18.1959 261.25C17.9765 261.578 17.6648 261.834 17.3001 261.985C16.9353 262.136 16.534 262.176 16.1468 262.099C15.7596 262.022 15.4039 261.832 15.1248 261.553C14.8456 261.273 14.6555 260.918 14.5785 260.53C14.5015 260.143 14.541 259.742 14.6921 259.377C14.8432 259.012 15.099 258.701 15.4273 258.481C15.7555 258.262 16.1414 258.145 16.5362 258.145C17.0656 258.145 17.5733 258.355 17.9476 258.73C18.322 259.104 18.5322 259.612 18.5322 260.141Z" fill="#E0E0E0"/>
<path d="M24.4257 260.141C24.4257 260.536 24.3084 260.922 24.0887 261.251C23.869 261.579 23.5568 261.835 23.1916 261.986C22.8263 262.137 22.4245 262.176 22.0371 262.098C21.6497 262.02 21.294 261.829 21.0152 261.549C20.7364 261.269 20.547 260.913 20.471 260.525C20.3949 260.137 20.4357 259.736 20.5881 259.371C20.7405 259.007 20.9976 258.696 21.327 258.477C21.6564 258.259 22.0432 258.143 22.4383 258.145C22.7 258.145 22.9592 258.197 23.2009 258.297C23.4425 258.398 23.662 258.545 23.8467 258.73C24.0313 258.916 24.1776 259.136 24.2769 259.378C24.3763 259.62 24.4269 259.879 24.4257 260.141Z" fill="#E0E0E0"/>
<path d="M30.3278 260.141C30.3278 260.536 30.2108 260.922 29.9914 261.25C29.7721 261.578 29.4604 261.834 29.0956 261.985C28.7309 262.136 28.3296 262.176 27.9424 262.099C27.5552 262.022 27.1995 261.832 26.9204 261.553C26.6412 261.273 26.4511 260.918 26.3741 260.53C26.2971 260.143 26.3366 259.742 26.4877 259.377C26.6388 259.012 26.8946 258.701 27.2229 258.481C27.5511 258.262 27.937 258.145 28.3318 258.145C28.8612 258.145 29.3689 258.355 29.7432 258.73C30.1175 259.104 30.3278 259.612 30.3278 260.141Z" fill="#E0E0E0"/>
<path d="M112.957 41.9014H29.2524C23.2368 41.9014 18.3602 46.778 18.3602 52.7936V70.3106C18.3602 76.3262 23.2368 81.2028 29.2524 81.2028H112.957C118.973 81.2028 123.849 76.3262 123.849 70.3106V52.7936C123.849 46.778 118.973 41.9014 112.957 41.9014Z" fill="#E0E0E0"/>
<path d="M278.095 41.7379V124.35V140.929L294.072 124.35H369.844V41.7379H278.095Z" fill="#F5F5F5"/>
<path d="M369.371 57.4223C369.371 57.56 349.144 57.6718 324.202 57.6718C299.26 57.6718 279.033 57.56 279.033 57.4223C279.033 57.2847 299.251 57.1728 324.202 57.1728C349.153 57.1728 369.371 57.2933 369.371 57.4223Z" fill="#E0E0E0"/>
<path d="M288.333 51.2707C288.335 51.722 288.203 52.1637 287.953 52.5398C287.704 52.9158 287.348 53.2094 286.932 53.3833C286.516 53.5572 286.057 53.6036 285.614 53.5166C285.171 53.4296 284.764 53.2131 284.444 52.8946C284.125 52.5761 283.907 52.1698 283.818 51.7273C283.729 51.2848 283.774 50.826 283.946 50.4088C284.119 49.9917 284.411 49.6351 284.786 49.3842C285.161 49.1333 285.602 48.9994 286.054 48.9994C286.657 48.9994 287.235 49.2384 287.663 49.6641C288.09 50.0898 288.331 50.6676 288.333 51.2707Z" fill="#E0E0E0"/>
<path d="M295.062 51.2708C295.062 51.7224 294.927 52.1639 294.676 52.5392C294.425 52.9145 294.068 53.2067 293.65 53.3788C293.232 53.5508 292.773 53.5949 292.33 53.5056C291.888 53.4162 291.481 53.1973 291.163 52.8767C290.845 52.5562 290.629 52.1483 290.543 51.7049C290.457 51.2615 290.505 50.8026 290.68 50.3863C290.855 49.97 291.15 49.6151 291.527 49.3666C291.905 49.1182 292.347 48.9874 292.799 48.9908C293.4 48.9953 293.976 49.2375 294.4 49.6646C294.824 50.0917 295.062 50.669 295.062 51.2708Z" fill="#E0E0E0"/>
<path d="M301.781 51.2707C301.781 51.72 301.648 52.1591 301.398 52.5326C301.149 52.9062 300.794 53.1973 300.379 53.3692C299.964 53.5411 299.507 53.5861 299.066 53.4985C298.626 53.4108 298.221 53.1945 297.903 52.8768C297.586 52.5592 297.37 52.1545 297.282 51.7139C297.194 51.2733 297.239 50.8166 297.411 50.4015C297.583 49.9865 297.874 49.6318 298.248 49.3822C298.621 49.1326 299.06 48.9994 299.51 48.9994C300.111 49.0017 300.688 49.2417 301.113 49.6672C301.539 50.0926 301.779 50.669 301.781 51.2707Z" fill="#E0E0E0"/>
<path d="M370.472 312.967C368.696 316.553 365.895 319.53 362.425 321.523C358.955 323.516 354.972 324.434 350.98 324.162C346.988 323.889 343.166 322.439 339.999 319.993C336.832 317.547 334.462 314.217 333.189 310.424C331.915 306.63 331.796 302.545 332.846 298.683C333.897 294.822 336.069 291.36 339.088 288.734C342.107 286.108 345.838 284.437 349.807 283.933C353.777 283.428 357.807 284.113 361.387 285.9C366.18 288.286 369.83 292.477 371.534 297.553C373.238 302.628 372.856 308.173 370.472 312.967Z" fill="#F5F5F5"/>
<path d="M366.17 310.825C364.81 313.554 362.671 315.818 360.023 317.33C357.375 318.843 354.338 319.536 351.297 319.321C348.255 319.107 345.345 317.995 342.936 316.126C340.527 314.258 338.726 311.716 337.762 308.823C336.797 305.93 336.713 302.817 337.519 299.876C338.326 296.935 339.986 294.3 342.291 292.303C344.596 290.307 347.441 289.039 350.466 288.661C353.492 288.282 356.562 288.809 359.288 290.176C362.938 292.002 365.714 295.203 367.005 299.075C368.296 302.948 367.996 307.174 366.17 310.825Z" fill="#EBEBEB"/>
<path d="M366.377 310.386C366.47 309.761 366.626 309.148 366.842 308.554C367.581 305.786 367.563 302.871 366.79 300.114C366.42 298.841 365.888 297.62 365.207 296.483C364.463 295.227 363.535 294.09 362.454 293.11C361.889 292.585 361.282 292.108 360.638 291.682C359.978 291.243 359.285 290.855 358.565 290.52C357.845 290.178 357.1 289.89 356.337 289.66C355.595 289.454 354.838 289.305 354.074 289.213C353.335 289.119 352.59 289.085 351.845 289.109C351.13 289.125 350.417 289.194 349.712 289.316C348.406 289.542 347.134 289.932 345.926 290.477C343.328 291.678 341.104 293.56 339.491 295.924C338.802 296.913 338.475 297.507 338.389 297.472C338.495 296.832 338.735 296.222 339.095 295.683C339.948 294.132 341.079 292.753 342.433 291.613C344.466 289.903 346.904 288.745 349.514 288.249C350.269 288.103 351.034 288.014 351.802 287.982C352.603 287.944 353.406 287.97 354.203 288.06C355.029 288.151 355.846 288.309 356.646 288.533C357.469 288.761 358.274 289.048 359.055 289.393C359.833 289.755 360.581 290.178 361.292 290.658C361.983 291.122 362.636 291.64 363.245 292.207C363.831 292.753 364.372 293.346 364.863 293.979C365.341 294.58 365.77 295.219 366.145 295.889C366.848 297.119 367.381 298.439 367.728 299.812C368.029 301.005 368.185 302.23 368.192 303.46C368.21 305.223 367.9 306.973 367.28 308.623C366.833 309.853 366.446 310.421 366.377 310.386Z" fill="#E0E0E0"/>
<path d="M349.841 312.942L348.671 315.402L346.52 314.361L347.647 312.004C345.759 311.025 344.185 309.534 343.104 307.702L345.556 305.637C346.378 307.096 347.563 308.317 348.998 309.182L350.718 305.577C348.602 303.856 346.305 301.757 347.793 298.694C348.894 296.405 351.501 295.252 355.098 296.491L356.259 294.1L358.419 295.132L357.326 297.421C358.83 298.256 360.116 299.435 361.077 300.862L358.72 303.004C357.988 301.922 357.046 300.997 355.949 300.286L354.186 303.959C356.311 305.68 358.565 307.736 357.102 310.782C356.001 313.01 353.429 314.163 349.841 312.942ZM352.267 302.359L353.747 299.296C352.474 299.004 351.725 299.417 351.381 300.157C351.037 300.896 351.467 301.636 352.267 302.359ZM353.48 309.354C353.842 308.597 353.42 307.883 352.62 307.117L351.183 310.094C352.405 310.378 353.145 310.042 353.48 309.38V309.354Z" fill="#E0E0E0"/>
<path d="M384.651 390.736C384.651 390.856 301.153 390.959 198.167 390.959C95.1819 390.959 11.6665 390.856 11.6665 390.736C11.6665 390.615 95.1217 390.512 198.167 390.512C301.213 390.512 384.651 390.607 384.651 390.736Z" fill="#263238"/>
<path d="M231.618 166.043L229.665 245.3C229.338 258.782 226.095 278.51 204.809 277.013C186.441 274.328 182.19 256.682 182.517 244.104C182.672 238.142 182.784 233.169 182.758 232.549C182.758 232.549 162.626 230.157 161.662 210.18C161.198 200.509 161.851 180.523 162.66 162.438C163.085 153.075 167.018 144.214 173.679 137.618C180.339 131.023 189.239 127.177 198.606 126.845L200.533 126.776C221.389 127.215 232.659 145.197 231.618 166.043Z" fill="#FFBE9D"/>
<path d="M182.758 232.549C182.758 232.549 195.397 232.842 208.569 223.946C208.569 223.946 202.736 238.796 182.698 237.711L182.758 232.549Z" fill="#EB996E"/>
<path d="M196.438 171.851C196.817 172.272 199.191 170.5 202.538 170.534C205.885 170.569 208.311 172.255 208.681 171.885C208.862 171.696 208.475 170.947 207.416 170.164C205.984 169.13 204.262 168.573 202.495 168.573C200.751 168.556 199.048 169.105 197.643 170.139C196.619 170.913 196.266 171.661 196.438 171.851Z" fill="#263238"/>
<path d="M195.801 179.465C195.819 180.169 196.112 180.839 196.617 181.331C197.121 181.823 197.798 182.098 198.503 182.098C198.848 182.114 199.193 182.06 199.518 181.941C199.842 181.821 200.139 181.637 200.391 181.4C200.643 181.164 200.845 180.879 200.985 180.563C201.124 180.246 201.199 179.905 201.204 179.56C201.187 178.855 200.894 178.185 200.389 177.694C199.885 177.202 199.208 176.927 198.503 176.927C198.158 176.911 197.812 176.964 197.488 177.084C197.164 177.204 196.867 177.387 196.615 177.624C196.363 177.861 196.161 178.146 196.021 178.462C195.882 178.778 195.807 179.119 195.801 179.465Z" fill="#263238"/>
<path d="M187.224 194.779C187.224 194.607 185.305 194.349 182.199 194.057C181.408 194.005 180.659 193.876 180.478 193.351C180.387 192.541 180.543 191.722 180.926 191.002C181.597 189.075 182.294 187.053 183.034 184.98C185.95 176.376 188.032 169.261 187.688 169.149C187.344 169.037 184.685 175.937 181.769 184.567C181.063 186.689 180.392 188.722 179.756 190.667C179.498 191.57 179.016 192.603 179.463 193.764C179.588 194.036 179.773 194.277 180.004 194.467C180.235 194.658 180.506 194.794 180.797 194.865C181.236 194.97 181.687 195.016 182.139 195.003C185.253 195.012 187.215 194.951 187.224 194.779Z" fill="#263238"/>
<path d="M198.339 159.341C198.632 160.098 201.334 159.633 204.525 159.917C207.717 160.201 210.333 161.001 210.729 160.305C210.909 159.969 210.436 159.272 209.369 158.584C207.968 157.717 206.376 157.206 204.732 157.095C203.094 156.949 201.445 157.209 199.931 157.853C198.778 158.36 198.21 158.98 198.339 159.341Z" fill="#263238"/>
<path d="M165.938 160.003C166.265 160.623 168.898 160.046 172.064 160.064C175.23 160.081 177.828 160.588 178.19 159.969C178.345 159.676 177.846 159.109 176.762 158.592C175.3 157.944 173.715 157.621 172.116 157.646C170.502 157.637 168.904 157.968 167.427 158.618C166.325 159.143 165.792 159.676 165.938 160.003Z" fill="#263238"/>
<path d="M230.508 180.927C230.853 180.764 244.119 176.368 244.171 190.065C244.223 203.762 230.465 200.991 230.405 200.595C230.345 200.2 230.508 180.927 230.508 180.927Z" fill="#FFBE9D"/>
<path d="M234.604 195.39C234.664 195.39 234.845 195.554 235.24 195.743C235.815 195.973 236.456 195.973 237.03 195.743C238.475 195.21 239.68 192.904 239.74 190.435C239.774 189.251 239.542 188.075 239.06 186.993C238.929 186.566 238.696 186.177 238.381 185.859C238.067 185.542 237.68 185.305 237.254 185.169C236.979 185.098 236.689 185.126 236.433 185.247C236.177 185.368 235.971 185.575 235.851 185.832C235.671 186.21 235.757 186.485 235.688 186.511C235.619 186.537 235.387 186.279 235.499 185.72C235.57 185.379 235.759 185.075 236.032 184.859C236.217 184.715 236.428 184.609 236.654 184.547C236.88 184.485 237.116 184.468 237.348 184.498C237.912 184.608 238.437 184.86 238.875 185.231C239.314 185.601 239.65 186.077 239.852 186.614C240.448 187.798 240.743 189.11 240.712 190.435C240.635 193.196 239.233 195.777 237.271 196.362C236.903 196.469 236.517 196.493 236.139 196.432C235.761 196.371 235.401 196.227 235.086 196.01C234.63 195.726 234.552 195.416 234.604 195.39Z" fill="#EB996E"/>
<path d="M249.522 159.453C246.847 154.523 246.399 148.741 245.04 143.304C243.681 137.866 239.689 130.958 234.483 128.884C229.88 126.036 223.703 126.174 219.694 129.323C218.988 122.173 214.308 117.966 207.442 115.884C200.576 113.802 189.374 114.482 182.646 116.916C177.424 118.792 172.322 122.853 166.016 128.867C163.365 131.397 160.925 134.139 158.72 137.066L152 155.469L156.81 165.432C157.094 166.112 157.386 166.783 157.748 167.454L161.645 188.215C162.153 182.614 162.505 163.066 162.961 157.465C167.188 157.5 171.379 156.679 175.28 155.052C179.182 153.426 182.715 151.028 185.666 148.001C188.858 144.715 191.422 140.551 195.604 138.666C200.989 136.249 207.218 138.391 212.725 140.533L212.492 140.31C215.351 141.764 217.904 143.753 220.012 146.169C218.351 157.22 219.084 168.499 222.163 179.241C222.628 180.85 223.935 184.188 225.475 184.851C228.504 186.15 229.442 183.053 231.352 181.461C232.763 180.282 234.793 180.205 236.996 180.291C238.415 176.927 239.964 171.223 241.297 166.232C243.134 166.879 245.097 167.083 247.027 166.826C246.488 165.398 245.952 163.964 245.419 162.524C246.128 163.09 246.949 163.5 247.828 163.729C248.271 163.834 248.736 163.802 249.16 163.636C249.585 163.47 249.948 163.178 250.202 162.8C250.744 161.716 250.082 160.485 249.522 159.453Z" fill="#263238"/>
<path d="M214.669 133.005C215.366 133.588 216.013 134.227 216.605 134.915C218.115 136.877 219.088 139.199 219.427 141.652C219.701 143.332 219.808 145.035 219.745 146.737C219.685 148.578 219.461 150.539 219.246 152.604C218.982 154.774 218.853 156.958 218.859 159.143C218.874 160.297 218.981 161.448 219.177 162.585C219.307 163.808 219.749 164.978 220.459 165.983C220.792 166.384 221.223 166.692 221.71 166.876C222.197 167.06 222.724 167.114 223.238 167.033C224.223 166.886 225.131 166.417 225.819 165.699C227.162 164.245 227.54 162.361 227.927 160.692L227.506 160.735C228.055 162.269 228.819 163.718 229.777 165.037C230.71 166.247 232.071 167.054 233.58 167.291C234.284 167.39 235.002 167.292 235.653 167.007C236.259 166.723 236.763 166.261 237.099 165.682C237.411 165.162 237.58 164.568 237.589 163.961C237.585 163.384 237.378 162.827 237.004 162.387L236.789 162.567C237.922 163.974 239.342 165.124 240.953 165.94C241.378 166.155 241.814 166.345 242.261 166.508C242.415 166.567 242.573 166.613 242.734 166.645C242.598 166.556 242.451 166.487 242.295 166.439C242.003 166.301 241.564 166.112 241.031 165.811C239.475 164.944 238.109 163.773 237.013 162.369L236.789 162.55C237.095 162.985 237.258 163.503 237.258 164.034C237.258 164.565 237.095 165.084 236.789 165.518C236.478 166.029 236.023 166.436 235.481 166.688C234.89 166.939 234.24 167.02 233.606 166.921C232.198 166.688 230.934 165.921 230.078 164.778C229.154 163.499 228.418 162.094 227.893 160.606L227.626 159.952L227.471 160.64C227.093 162.301 226.68 164.082 225.458 165.424C224.839 166.066 224.026 166.487 223.144 166.62C222.71 166.689 222.266 166.646 221.853 166.495C221.441 166.345 221.074 166.091 220.786 165.759C220.127 164.816 219.718 163.721 219.599 162.576C219.409 161.456 219.302 160.322 219.281 159.186C219.267 157.018 219.388 154.852 219.642 152.699C219.849 150.634 220.055 148.664 220.098 146.797C220.148 145.067 220.019 143.337 219.711 141.635C219.336 139.141 218.299 136.794 216.708 134.838C216.138 134.115 215.448 133.495 214.669 133.005Z" fill="#455A64"/>
<path d="M165.947 171.98C166.325 172.401 168.7 170.629 172.047 170.663C175.394 170.698 177.82 172.384 178.19 172.014C178.37 171.825 177.983 171.076 176.925 170.293C175.496 169.259 173.777 168.702 172.012 168.702C170.266 168.688 168.561 169.237 167.151 170.268C166.119 171.042 165.758 171.799 165.947 171.98Z" fill="#263238"/>
<path d="M167.951 178.458C167.972 179.164 168.266 179.833 168.772 180.325C169.278 180.816 169.956 181.091 170.662 181.091C171.006 181.106 171.35 181.052 171.674 180.931C171.997 180.811 172.293 180.627 172.544 180.391C172.795 180.154 172.996 179.869 173.135 179.554C173.275 179.238 173.349 178.898 173.355 178.553C173.337 177.848 173.044 177.179 172.539 176.687C172.035 176.195 171.358 175.92 170.653 175.92C170.308 175.904 169.963 175.957 169.638 176.077C169.314 176.197 169.017 176.381 168.765 176.617C168.513 176.854 168.311 177.139 168.171 177.455C168.032 177.771 167.957 178.113 167.951 178.458Z" fill="#263238"/>
<path d="M160.484 134.829C158.763 137.032 156.061 139.011 153.274 138.641C152.268 138.398 151.282 138.082 150.323 137.694C149.325 138.262 149.462 141.609 150.125 142.555C150.744 143.351 151.429 144.094 152.172 144.775C148.843 146.453 145.883 145.515 142.416 144.147C142.686 147.14 143.739 150.01 145.468 152.468C147.197 154.926 149.542 156.887 152.267 158.154C153.988 158.937 156.139 159.393 157.773 158.395C159.21 157.534 159.83 155.813 160.294 154.153C162.013 148.202 162.99 142.061 163.202 135.87L160.484 134.829Z" fill="#263238"/>
<path d="M190.123 201.499C190.357 201.067 190.702 200.705 191.123 200.451C191.543 200.197 192.024 200.06 192.515 200.053C193.444 200.053 194.236 199.967 194.915 200.613C195.56 201.234 195.998 202.039 196.169 202.918C196.34 203.797 196.236 204.708 195.87 205.525C195.464 206.325 194.774 206.944 193.936 207.262C193.097 207.58 192.171 207.575 191.336 207.246C189.71 206.498 189.065 202.308 190.192 200.914" fill="#EB996E"/>
<path d="M189.555 204.484C189.689 204.737 189.807 204.999 189.908 205.267C190.072 205.611 190.303 205.919 190.588 206.172C190.874 206.424 191.207 206.617 191.568 206.738C192.107 206.895 192.672 206.942 193.23 206.875C193.787 206.809 194.325 206.631 194.812 206.351C195.356 205.944 195.765 205.382 195.986 204.739C196.207 204.096 196.229 203.401 196.05 202.745C195.871 202.089 195.499 201.502 194.982 201.061C194.465 200.619 193.827 200.343 193.151 200.268C192.596 200.206 192.034 200.284 191.516 200.496C190.999 200.708 190.544 201.047 190.192 201.482C189.726 202.093 189.483 202.846 189.504 203.615C189.504 204.166 189.598 204.476 189.555 204.476C189.512 204.476 189.512 204.407 189.46 204.261C189.394 204.051 189.35 203.834 189.331 203.615C189.238 202.789 189.456 201.958 189.942 201.284C190.314 200.784 190.81 200.39 191.38 200.14C191.95 199.89 192.575 199.792 193.194 199.855C193.962 199.928 194.689 200.233 195.278 200.731C195.867 201.228 196.289 201.894 196.489 202.638C196.688 203.383 196.655 204.171 196.394 204.896C196.132 205.621 195.656 206.249 195.027 206.695C194.488 206.997 193.892 207.182 193.277 207.24C192.662 207.297 192.042 207.226 191.457 207.031C191.064 206.883 190.707 206.653 190.411 206.356C190.114 206.059 189.884 205.703 189.736 205.31C189.646 205.107 189.585 204.893 189.555 204.674C189.555 204.562 189.555 204.484 189.555 204.484Z" fill="#263238"/>
<path d="M214.824 132.911C214.263 131.965 213.58 131.098 212.794 130.33C210.578 128.312 207.747 127.1 204.758 126.888C202.709 126.743 200.651 126.985 198.692 127.602C196.444 128.317 194.311 129.355 192.36 130.682C188.187 133.444 184.496 137.565 180.461 141.738C178.505 143.786 176.387 145.673 174.129 147.382C172.016 148.984 169.664 150.244 167.16 151.116C162.861 152.49 158.252 152.565 153.91 151.331C150.995 150.529 148.27 149.148 145.9 147.27L144.816 146.358C144.507 146.091 144.283 145.825 144.085 145.627L143.646 145.162C143.552 145.059 143.5 144.999 143.509 144.99L143.681 145.128L144.145 145.558C144.352 145.747 144.593 146.005 144.902 146.263L145.986 147.124C148.372 148.924 151.083 150.244 153.971 151.013C158.252 152.184 162.782 152.08 167.005 150.712C169.478 149.848 171.8 148.603 173.888 147.021C176.119 145.317 178.216 143.445 180.16 141.42C184.178 137.29 187.903 133.117 192.153 130.33C194.14 128.987 196.315 127.946 198.606 127.241C200.613 126.625 202.717 126.394 204.809 126.561C207.854 126.807 210.721 128.092 212.931 130.2C213.514 130.776 214.026 131.421 214.454 132.119C214.575 132.351 214.678 132.532 214.755 132.678C214.833 132.825 214.833 132.902 214.824 132.911Z" fill="#455A64"/>
<path d="M175.084 239.183L182.672 237.677L229.614 234.778L239.62 237.505L238.303 261.87L215.684 276.299L193.745 275.86L179.945 263.299L176.891 250.832L175.084 239.183Z" fill="#FFBE9D"/>
<path d="M303.123 277.546C300.457 271.989 297.445 266.604 294.106 261.423C288.72 253.157 280.483 247.159 270.963 244.569L234.827 234.769C234.827 234.769 232.952 270.904 208.079 270.904C183.206 270.904 178.362 237.032 178.362 237.032L136.505 253.731C135.068 254.291 125.363 257.646 114.067 281.865C103.312 304.932 98.5804 316.727 98.5804 316.727L141.65 329.168L144.343 367.945L143.431 390.09L274.284 389.798L273.552 364.486L274.103 325.675L275.738 328.316L319.289 310.851C319.289 310.851 313.68 299.356 303.123 277.546Z" fill="#FF4242"/>
<path d="M274.731 300.983C274.929 300.983 274.809 315.006 274.473 332.3C274.137 349.593 273.742 363.583 273.552 363.583C273.363 363.583 273.475 349.559 273.81 332.265C274.146 314.972 274.576 300.983 274.731 300.983Z" fill="#263238"/>
<path d="M135.129 293.033C135.348 293.49 135.51 293.973 135.61 294.47C135.869 295.407 136.221 296.775 136.634 298.462C137.452 301.852 138.467 306.549 139.413 311.78C140.36 317.011 141.031 321.778 141.444 325.228C141.65 326.948 141.805 328.359 141.882 329.332C141.956 329.833 141.974 330.341 141.934 330.846C141.763 330.368 141.653 329.871 141.607 329.366C141.435 328.256 141.22 326.897 140.962 325.296C140.428 321.855 139.663 317.123 138.725 311.901C137.787 306.678 136.849 301.981 136.144 298.574C135.825 296.982 135.559 295.631 135.335 294.53C135.211 294.04 135.141 293.538 135.129 293.033Z" fill="#263238"/>
<path d="M102.263 317.82L84.7285 353.017C82.7726 356.948 81.8573 361.314 82.07 365.699C82.3903 372.279 85.2295 378.484 89.9992 383.028C94.769 387.571 101.104 390.107 107.692 390.108L157.971 387.191L160.174 364.254L121.913 355.022L136.411 327.611L102.263 317.82Z" fill="#FFBE9D"/>
<path d="M121.913 355.022C121.913 355.185 120.193 354.893 117.397 354.91C113.785 354.981 110.206 355.614 106.788 356.786C103.375 357.927 100.176 359.631 97.3243 361.827C95.1562 363.548 94.1237 364.951 94.0033 364.865C93.8828 364.778 94.1839 364.452 94.6399 363.806C95.3203 362.916 96.0868 362.094 96.9285 361.354C99.7571 358.953 103.023 357.121 106.547 355.96C110.047 354.751 113.738 354.188 117.44 354.299C118.555 354.34 119.666 354.473 120.761 354.695C121.16 354.74 121.55 354.85 121.913 355.022Z" fill="#EB996E"/>
<path d="M137.021 327.335C136.868 328.27 136.578 329.178 136.161 330.028C135.338 332.132 134.375 334.179 133.279 336.154C132.19 338.136 130.969 340.042 129.622 341.858C129.116 342.653 128.496 343.369 127.781 343.983C127.618 343.863 130.147 340.413 132.677 335.819C135.206 331.224 136.832 327.267 137.021 327.335Z" fill="#EB996E"/>
<path d="M317.5 389.987H258.462V367.704L292.652 353.258L279.971 326.682L314.196 312.916L330.904 350.083C334.784 360.881 338.751 366.009 335.369 375.834C333.614 380.936 326.353 389.987 317.5 389.987Z" fill="#FFBE9D"/>
<path d="M150.331 362.92H160.174C160.174 362.92 182.38 354.893 186.948 355.659C191.061 356.347 206.126 366.353 209.077 368.332C209.403 368.555 209.652 368.873 209.791 369.244C210.079 370.028 210.052 370.893 209.717 371.657C209.382 372.422 208.764 373.028 207.993 373.348L207.683 373.477L207.812 373.924C207.99 374.506 208.068 375.114 208.044 375.722C208.011 376.184 207.831 376.623 207.53 376.976C207.229 377.328 206.824 377.574 206.373 377.679C205.921 377.784 205.449 377.742 205.023 377.558C204.598 377.375 204.243 377.06 204.009 376.66L204.577 377.667C204.807 378.078 204.915 378.547 204.887 379.018L204.835 379.938C204.806 380.438 204.626 380.917 204.319 381.311C204.012 381.706 203.592 381.998 203.114 382.149C202.664 382.295 202.182 382.309 201.724 382.188C201.267 382.068 200.853 381.818 200.533 381.47C198.623 379.37 194.511 375.163 191.706 374.699C188.684 374.329 185.639 374.174 182.595 374.234C181.973 374.238 181.366 374.429 180.854 374.782C180.342 375.135 179.947 375.633 179.721 376.213C181.382 376.333 192.919 382.347 197.006 384.498C197.638 384.815 198.185 385.28 198.598 385.854C199.012 386.428 199.28 387.093 199.38 387.793C199.527 389.067 198.881 390.374 196.352 389.815C190.932 388.55 181.167 384.059 181.167 384.059C181.167 384.059 176.125 382.622 172.864 384.92C168.27 388.163 166.17 389.35 162.23 388.043C159.822 387.246 157.513 386.178 155.347 384.859L147.604 384.085C147.604 384.085 140.291 365.734 150.331 362.92Z" fill="#FFBE9D"/>
<path d="M179.661 366.671C179.661 366.757 181.235 366.258 183.834 366.086C187.218 365.858 190.608 366.434 193.727 367.767C196.846 369.099 199.606 371.15 201.781 373.752C202.663 374.856 203.487 376.004 204.25 377.194C204.13 376.831 203.965 376.484 203.76 376.161C203.258 375.255 202.682 374.392 202.039 373.58C199.881 370.885 197.089 368.767 193.912 367.416C190.735 366.064 187.272 365.522 183.834 365.837C182.799 365.922 181.775 366.097 180.771 366.362C180.39 366.421 180.017 366.525 179.661 366.671Z" fill="#EB996E"/>
<path d="M182.01 361.277C183.423 360.851 184.881 360.597 186.355 360.52C189.918 360.504 193.413 361.494 196.438 363.376C199.443 365.301 202.18 367.616 204.577 370.259L206.814 372.625C207.073 372.939 207.361 373.227 207.674 373.485C207.456 373.151 207.212 372.834 206.943 372.539C206.453 371.945 205.73 371.094 204.809 370.07C202.445 367.343 199.701 364.969 196.662 363.023C193.571 361.094 189.979 360.121 186.337 360.227C185.24 360.279 184.155 360.479 183.111 360.821C182.818 360.909 182.531 361.015 182.251 361.139C182.096 361.208 182.001 361.26 182.01 361.277Z" fill="#EB996E"/>
<path d="M272.881 363.583H263.03C263.03 363.583 240.824 355.555 236.256 356.321C232.143 357.009 217.078 367.015 214.127 368.994C213.801 369.217 213.551 369.536 213.413 369.906C213.127 370.69 213.155 371.554 213.49 372.319C213.825 373.083 214.441 373.689 215.211 374.01L215.521 374.139L215.392 374.587C215.213 375.169 215.135 375.777 215.16 376.385C215.193 376.847 215.373 377.286 215.674 377.638C215.975 377.99 216.38 378.237 216.831 378.342C217.282 378.446 217.755 378.404 218.181 378.221C218.606 378.037 218.961 377.723 219.195 377.323L218.627 378.329C218.402 378.743 218.295 379.21 218.317 379.68L218.369 380.592C218.394 381.092 218.573 381.573 218.881 381.969C219.188 382.364 219.61 382.656 220.089 382.803C220.539 382.952 221.021 382.968 221.479 382.849C221.937 382.73 222.351 382.481 222.671 382.132C224.581 380.024 228.693 375.817 231.498 375.352C234.524 374.99 237.571 374.837 240.618 374.896C241.238 374.902 241.843 375.094 242.354 375.447C242.864 375.799 243.258 376.297 243.483 376.875C241.822 376.987 230.285 383.01 226.198 385.16C225.566 385.476 225.02 385.939 224.607 386.512C224.193 387.084 223.924 387.748 223.823 388.447C223.677 389.729 224.322 391.071 226.852 390.478C232.272 389.213 242.037 384.722 242.037 384.722C242.037 384.722 247.079 383.276 250.34 385.582C254.934 388.826 257.033 390.013 260.974 388.705C263.382 387.911 265.692 386.843 267.857 385.522L275.6 384.748C275.6 384.748 282.922 366.422 272.881 363.583Z" fill="#FFBE9D"/>
<path d="M243.543 367.36C243.543 367.446 241.968 366.947 239.37 366.783C235.98 366.55 232.584 367.123 229.458 368.455C226.333 369.788 223.567 371.842 221.389 374.449C219.668 376.436 218.988 377.89 218.919 377.89C219.043 377.531 219.208 377.188 219.41 376.867C219.912 375.961 220.487 375.097 221.13 374.285C223.288 371.59 226.081 369.472 229.258 368.121C232.435 366.77 235.898 366.227 239.336 366.542C240.369 366.63 241.394 366.802 242.399 367.058C242.79 367.118 243.173 367.219 243.543 367.36Z" fill="#EB996E"/>
<path d="M241.177 361.965C239.778 361.543 238.334 361.289 236.875 361.208C233.306 361.196 229.806 362.189 226.774 364.073C223.771 366 221.035 368.315 218.635 370.956L216.399 373.33C216.14 373.644 215.852 373.932 215.538 374.191C215.754 373.852 215.999 373.533 216.269 373.236C216.76 372.651 217.483 371.799 218.412 370.775C220.77 368.046 223.512 365.673 226.551 363.729C229.641 361.799 233.233 360.827 236.875 360.933C237.97 360.985 239.052 361.185 240.093 361.526C240.387 361.61 240.675 361.717 240.953 361.845C241.033 361.874 241.109 361.914 241.177 361.965Z" fill="#EB996E"/>
<path d="M319.023 354.807C318.971 354.884 317.689 353.946 315.366 352.871C314.79 352.613 314.153 352.329 313.439 352.088C312.725 351.847 311.976 351.606 311.167 351.374C307.63 350.439 303.94 350.225 300.318 350.746C299.458 350.892 298.701 351.004 297.978 351.202C297.3 351.351 296.631 351.538 295.973 351.761C293.547 352.553 292.162 353.336 292.119 353.258C292.416 353.028 292.739 352.834 293.083 352.682C293.46 352.459 293.854 352.266 294.261 352.105C294.786 351.861 295.323 351.646 295.87 351.46C296.532 351.216 297.207 351.009 297.892 350.841C298.672 350.634 299.461 350.468 300.258 350.342C303.932 349.763 307.687 349.977 311.271 350.97C312.088 351.228 312.871 351.443 313.568 351.744C314.229 351.993 314.876 352.28 315.504 352.604C316.097 352.871 316.588 353.181 317.035 353.465C317.417 353.679 317.785 353.918 318.136 354.179C318.454 354.355 318.751 354.566 319.023 354.807Z" fill="#EB996E"/>
<path d="M268.941 392.835H145.995C144.314 392.834 142.697 392.184 141.484 391.02C140.27 389.856 139.553 388.269 139.482 386.589L135.791 301.972C135.752 301.092 135.891 300.213 136.2 299.388C136.51 298.564 136.983 297.81 137.592 297.173C138.2 296.537 138.932 296.03 139.742 295.683C140.551 295.337 141.423 295.158 142.304 295.158H272.391C273.271 295.158 274.141 295.336 274.95 295.682C275.76 296.027 276.491 296.532 277.1 297.167C277.709 297.802 278.183 298.553 278.495 299.376C278.806 300.199 278.948 301.076 278.912 301.955L275.471 386.571C275.404 388.257 274.687 389.852 273.469 391.02C272.251 392.188 270.628 392.838 268.941 392.835Z" fill="#E0E0E0"/>
<path d="M268.941 392.835C269.339 392.809 269.735 392.763 270.128 392.697C271.278 392.479 272.347 391.949 273.217 391.166C273.926 390.536 274.489 389.76 274.868 388.891C275.247 388.022 275.432 387.081 275.411 386.133C275.497 383.879 275.597 381.283 275.712 378.346C276.177 366.628 276.839 349.679 277.665 328.729C277.871 323.487 278.089 318.006 278.319 312.288C278.431 309.431 278.551 306.515 278.663 303.546C278.663 302.807 278.749 302.041 278.723 301.318C278.678 300.586 278.506 299.867 278.216 299.193C277.631 297.814 276.572 296.691 275.23 296.027C274.556 295.688 273.828 295.47 273.079 295.382C272.339 295.321 271.539 295.382 270.756 295.382H236.066H145.883H142.889C141.92 295.327 140.951 295.474 140.041 295.812C139.145 296.159 138.339 296.705 137.686 297.411C137.033 298.116 136.55 298.961 136.273 299.881C136.14 300.339 136.053 300.809 136.015 301.284C136.015 301.757 136.015 302.239 136.015 302.738C136.058 303.719 136.092 304.699 136.135 305.68L136.393 311.539C136.726 319.328 137.059 326.991 137.391 334.528C138.045 349.602 138.673 364.133 139.276 377.985C139.353 379.706 139.422 381.426 139.499 383.147C139.499 384.008 139.568 384.868 139.611 385.728C139.599 386.559 139.703 387.387 139.921 388.189C140.405 389.762 141.482 391.085 142.923 391.88C143.629 392.268 144.404 392.516 145.203 392.611C145.986 392.697 146.83 392.654 147.647 392.663H166.756H201.05L250.701 392.732L264.2 392.775H267.711H268.906H267.711H264.2H250.701L201.05 392.844H166.756H147.681C146.821 392.844 146.047 392.844 145.186 392.792C143.896 392.634 142.68 392.107 141.683 391.273C140.686 390.44 139.952 389.336 139.568 388.094C139.339 387.253 139.229 386.385 139.241 385.513C139.198 384.653 139.164 383.792 139.121 382.932C139.052 381.211 138.977 379.491 138.897 377.77C138.286 363.918 137.649 349.378 136.987 334.313C136.66 326.776 136.325 319.113 135.98 311.324C135.894 309.38 135.817 307.427 135.731 305.465L135.602 302.523C135.576 302.024 135.576 301.524 135.602 301.026C135.639 300.516 135.728 300.011 135.869 299.52C136.165 298.535 136.683 297.631 137.382 296.876C138.081 296.122 138.944 295.537 139.904 295.167C140.865 294.808 141.89 294.65 142.915 294.702H145.909H236.092H270.782C271.574 294.702 272.339 294.702 273.148 294.745C273.939 294.835 274.708 295.066 275.419 295.425C276.842 296.13 277.963 297.324 278.577 298.789C278.881 299.501 279.062 300.261 279.11 301.034C279.11 301.817 279.11 302.54 279.05 303.288C278.93 306.265 278.809 309.182 278.689 312.038C278.448 317.774 278.218 323.255 278 328.48C277.14 349.421 276.409 366.336 275.91 378.088C275.784 381.019 275.672 383.6 275.574 385.832C275.587 386.794 275.39 387.748 274.998 388.628C274.606 389.507 274.028 390.291 273.303 390.925C272.415 391.708 271.328 392.232 270.163 392.439C269.878 392.488 269.591 392.516 269.302 392.525L268.941 392.835Z" fill="#263238"/>
<path d="M214.076 345.515C214.076 346.847 213.68 348.15 212.94 349.258C212.2 350.365 211.148 351.229 209.917 351.739C208.686 352.249 207.331 352.382 206.025 352.122C204.718 351.862 203.517 351.221 202.575 350.278C201.633 349.336 200.992 348.136 200.732 346.829C200.472 345.522 200.605 344.168 201.115 342.937C201.625 341.706 202.488 340.654 203.596 339.914C204.704 339.173 206.007 338.778 207.339 338.778C209.125 338.781 210.837 339.491 212.1 340.754C213.363 342.017 214.073 343.729 214.076 345.515Z" fill="white"/>
<path d="M389.073 159.332H264.338L264.975 246.719H278.603V266.921L297.058 246.719H389.71L389.073 159.332Z" fill="white"/>
<path d="M389.073 159.341C389.073 159.341 389.073 159.857 389.073 160.881C389.073 161.905 389.073 163.462 389.125 165.441C389.125 169.459 389.22 175.361 389.297 182.932C389.426 198.118 389.615 219.979 389.856 246.711V246.892H389.676L297.101 246.935L297.255 246.866L278.809 267.076L278.422 267.497V246.719L278.646 246.943H264.751V246.719C264.536 215.247 264.329 185.582 264.14 159.341V159.134H264.338L354.607 159.238L380.065 159.289H386.785H388.506H389.073H386.742H379.979L354.478 159.341L264.338 159.444L264.544 159.238C264.742 185.479 264.966 215.161 265.198 246.616L264.975 246.401H278.826V266.826L278.439 266.68L296.894 246.573L296.954 246.504H297.101H389.753L389.581 246.685C389.426 220.014 389.297 198.169 389.211 183.018C389.168 175.43 389.142 169.51 389.125 165.484C389.125 163.471 389.125 161.939 389.125 160.89C389.125 159.84 389.073 159.341 389.073 159.341Z" fill="#263238"/>
<path d="M388.437 171.661C388.437 171.765 360.802 171.859 326.714 171.859C292.627 171.859 264.975 171.765 264.975 171.661C264.975 171.558 292.609 171.463 326.714 171.463C360.819 171.463 388.437 171.55 388.437 171.661Z" fill="#263238"/>
<path d="M270.094 168.573C271.006 168.573 271.746 167.764 271.746 166.766C271.746 165.768 271.006 164.959 270.094 164.959C269.181 164.959 268.442 165.768 268.442 166.766C268.442 167.764 269.181 168.573 270.094 168.573Z" fill="#E0E0E0"/>
<path d="M274.981 168.573C275.893 168.573 276.633 167.764 276.633 166.766C276.633 165.768 275.893 164.959 274.981 164.959C274.068 164.959 273.329 165.768 273.329 166.766C273.329 167.764 274.068 168.573 274.981 168.573Z" fill="#E0E0E0"/>
<path d="M279.859 168.573C280.771 168.573 281.511 167.764 281.511 166.766C281.511 165.768 280.771 164.959 279.859 164.959C278.947 164.959 278.207 165.768 278.207 166.766C278.207 167.764 278.947 168.573 279.859 168.573Z" fill="#E0E0E0"/>
<path d="M328.426 220.59C338.144 220.59 346.021 212.713 346.021 202.996C346.021 193.279 338.144 185.401 328.426 185.401C318.709 185.401 310.832 193.279 310.832 202.996C310.832 212.713 318.709 220.59 328.426 220.59Z" fill="#FF4242"/>
<path d="M324.185 208.141V197.765C324.185 197.649 324.215 197.535 324.273 197.435C324.331 197.334 324.414 197.25 324.514 197.192C324.614 197.134 324.728 197.103 324.844 197.102C324.959 197.101 325.073 197.131 325.174 197.188L334.449 202.419C334.551 202.477 334.636 202.561 334.695 202.662C334.754 202.763 334.785 202.879 334.785 202.996C334.785 203.113 334.754 203.228 334.695 203.329C334.636 203.431 334.551 203.514 334.449 203.572L325.166 208.734C325.064 208.793 324.949 208.823 324.832 208.822C324.714 208.821 324.6 208.789 324.5 208.728C324.399 208.667 324.317 208.581 324.262 208.477C324.206 208.374 324.18 208.258 324.185 208.141Z" fill="white"/>
<path d="M380.306 235.621H272.597V236.154H380.306V235.621Z" fill="#263238"/>
<path d="M306.169 235.036H272.511V236.464H306.169V235.036Z" fill="#FF4242"/>
<path d="M305.618 237.677C306.521 237.677 307.253 236.876 307.253 235.887C307.253 234.899 306.521 234.098 305.618 234.098C304.715 234.098 303.983 234.899 303.983 235.887C303.983 236.876 304.715 237.677 305.618 237.677Z" fill="#FF4242"/>
<path d="M388.127 175.017C394.684 175.017 400 169.701 400 163.144C400 156.586 394.684 151.271 388.127 151.271C381.57 151.271 376.254 156.586 376.254 163.144C376.254 169.701 381.57 175.017 388.127 175.017Z" fill="#FF4242"/>
<path d="M392.755 160.209L391.063 158.517L383.495 166.086L385.187 167.777L392.755 160.209Z" fill="white"/>
<path d="M385.183 158.499L383.492 160.19L391.06 167.758L392.751 166.067L385.183 158.499Z" fill="white"/>
<path d="M153.755 18.1296V103.572H231.79L248.653 116.615V103.572V100.225V18.1296H153.755Z" fill="white"/>
<path d="M153.755 18.1296H155.476H160.535L179.799 18.0779L248.628 17.9833H248.817V18.1726C248.817 45.5751 248.817 77.8904 248.817 112.357V117.114L248.456 116.839L231.653 103.753L231.79 103.796H153.755H153.566V103.607C153.609 77.7958 153.635 56.4587 153.661 41.5142C153.661 34.0635 153.661 28.2216 153.712 24.2381C153.712 22.2593 153.712 20.7365 153.712 19.704C153.712 18.6716 153.712 18.164 153.712 18.164C153.712 18.164 153.712 18.7146 153.712 19.7471C153.712 20.7795 153.712 22.3281 153.712 24.3156C153.712 28.3077 153.712 34.1667 153.755 41.6261C153.755 56.5448 153.816 77.8818 153.85 103.572L153.669 103.392H231.704H231.782L231.842 103.435L248.705 116.469L248.344 116.65V112.348C248.344 77.8818 248.344 45.5665 248.344 18.164L248.542 18.3619L179.816 18.2586L160.509 18.2156H155.407H154.091L153.755 18.1296Z" fill="#263238"/>
<path d="M248.129 34.356C248.129 34.4937 227.205 34.6141 201.411 34.6141C175.617 34.6141 154.693 34.4937 154.693 34.356C154.693 34.2184 175.609 34.0979 201.411 34.0979C227.213 34.0979 248.129 34.2097 248.129 34.356Z" fill="#263238"/>
<path d="M164.346 27.9893C164.346 28.457 164.207 28.9142 163.947 29.3025C163.686 29.6909 163.316 29.993 162.883 30.1704C162.45 30.3477 161.975 30.3924 161.516 30.2986C161.058 30.2048 160.638 29.9768 160.31 29.6437C159.982 29.3106 159.76 28.8873 159.673 28.4278C159.586 27.9682 159.637 27.4932 159.821 27.0631C160.005 26.633 160.312 26.2672 160.705 26.0124C161.097 25.7575 161.556 25.6251 162.024 25.6319C162.643 25.641 163.234 25.8933 163.668 26.3344C164.103 26.7756 164.347 27.37 164.346 27.9893Z" fill="#E0E0E0"/>
<path d="M171.298 27.9893C171.298 28.4559 171.16 28.912 170.9 29.2999C170.641 29.6877 170.272 29.9899 169.841 30.1681C169.41 30.3462 168.935 30.3924 168.478 30.3008C168.02 30.2091 167.6 29.9837 167.271 29.6532C166.942 29.3226 166.718 28.9018 166.628 28.4439C166.538 27.9861 166.586 27.5118 166.765 27.0812C166.945 26.6506 167.249 26.283 167.637 26.025C168.026 25.767 168.483 25.6302 168.949 25.6319C169.259 25.6319 169.565 25.6929 169.85 25.8115C170.136 25.9301 170.395 26.1039 170.613 26.3229C170.832 26.5419 171.004 26.8019 171.122 27.0878C171.239 27.3738 171.299 27.6801 171.298 27.9893Z" fill="#E0E0E0"/>
<path d="M178.259 27.9893C178.259 28.4556 178.12 28.9113 177.861 29.299C177.602 29.6867 177.234 29.9888 176.803 30.1673C176.373 30.3457 175.899 30.3924 175.441 30.3014C174.984 30.2105 174.564 29.9859 174.234 29.6563C173.905 29.3266 173.68 28.9065 173.589 28.4492C173.498 27.9919 173.545 27.5179 173.723 27.0872C173.902 26.6564 174.204 26.2883 174.592 26.0292C174.979 25.7702 175.435 25.6319 175.901 25.6319C176.526 25.6319 177.126 25.8803 177.568 26.3224C178.01 26.7645 178.259 27.3641 178.259 27.9893Z" fill="#E0E0E0"/>
<path d="M231.145 65.3893C231.281 70.6172 229.864 75.768 227.072 80.1899C224.28 84.6118 220.238 88.106 215.46 90.2302C210.681 92.3545 205.379 93.0133 200.226 92.1233C195.073 91.2334 190.299 88.8346 186.509 85.2306C182.72 81.6266 180.085 76.9795 178.937 71.8772C177.79 66.775 178.182 61.4471 180.064 56.5677C181.946 51.6884 185.233 47.477 189.509 44.4665C193.785 41.4561 198.859 39.7819 204.087 39.6558C211.087 39.4802 217.871 42.0927 222.945 46.9187C228.02 51.7446 230.969 58.3887 231.145 65.3893Z" fill="#FF4242"/>
<path d="M224.83 65.5442C224.934 69.5289 223.854 73.4551 221.727 76.826C219.599 80.1968 216.52 82.8609 212.878 84.4812C209.236 86.1015 205.195 86.6052 201.267 85.9285C197.338 85.2518 193.699 83.4252 190.809 80.6798C187.919 77.9343 185.908 74.3934 185.031 70.5049C184.154 66.6165 184.45 62.5553 185.882 58.835C187.313 55.1148 189.816 51.9028 193.073 49.6052C196.331 47.3077 200.196 46.028 204.181 45.9279C206.826 45.8569 209.459 46.3084 211.929 47.2564C214.398 48.2043 216.657 49.6302 218.575 51.4524C220.493 53.2745 222.033 55.4571 223.106 57.8752C224.18 60.2933 224.765 62.8994 224.83 65.5442Z" fill="#FF4242"/>
<g opacity="0.3">
<path d="M224.83 64.9075C224.547 64.1278 224.348 63.3202 224.236 62.4985C223.732 60.3448 222.899 58.2816 221.767 56.3813C220.987 55.0861 220.063 53.8826 219.014 52.7936C217.813 51.544 216.453 50.4565 214.97 49.5586C214.175 49.0713 213.344 48.6456 212.484 48.2853C211.59 47.8956 210.667 47.579 209.722 47.3389C208.751 47.0828 207.761 46.9016 206.762 46.7969C205.73 46.7005 204.692 46.6775 203.656 46.728C202.618 46.7908 201.586 46.9288 200.568 47.141C198.627 47.5587 196.762 48.2695 195.036 49.2489C194.223 49.7059 193.443 50.2206 192.704 50.7889C191.333 51.8486 190.104 53.0804 189.048 54.4541C188.129 55.6558 187.344 56.954 186.707 58.3257C185.788 60.34 185.187 62.485 184.926 64.6838C184.906 65.51 184.799 66.3318 184.608 67.1358C184.342 66.3327 184.248 65.4826 184.333 64.6408C184.365 62.3268 184.829 60.0391 185.701 57.8955C186.305 56.4075 187.082 54.9955 188.015 53.6884C189.101 52.1881 190.383 50.8397 191.826 49.6791C192.606 49.041 193.434 48.4656 194.304 47.9583C195.207 47.426 196.151 46.9657 197.126 46.5818C198.138 46.1823 199.179 45.863 200.241 45.6268C201.338 45.3913 202.451 45.2388 203.57 45.1708C204.687 45.1173 205.805 45.1461 206.917 45.2568C207.998 45.372 209.069 45.5734 210.118 45.8591C211.132 46.1506 212.122 46.5217 213.077 46.9689C213.998 47.3695 214.884 47.8442 215.727 48.3885C218.664 50.2462 221.076 52.8264 222.731 55.8823C223.825 57.9058 224.537 60.1137 224.83 62.3952C225.009 63.2231 225.009 64.0796 224.83 64.9075Z" fill="black"/>
</g>
<g opacity="0.3">
<path d="M207.287 77.985L207.416 81.4867L204.285 81.6072L204.156 78.1657C201.37 78.1845 198.636 77.4182 196.266 75.9546L197.84 72.0743C199.688 73.2582 201.81 73.9429 204.001 74.0618L203.803 68.8308C200.293 68.1253 196.361 67.11 196.189 62.6361C196.068 59.3151 198.365 56.3727 203.287 55.6242L203.158 52.1827L206.289 52.0623L206.418 55.5037C208.662 55.5442 210.865 56.1162 212.845 57.1728L211.434 61.0875C209.929 60.2875 208.279 59.796 206.582 59.6421L206.78 64.9591C210.29 65.6388 214.153 66.6799 214.325 71.0677C214.445 74.2941 212.174 77.2021 207.287 77.985ZM203.622 64.2192L203.45 59.7797C201.807 60.2185 201.187 61.1477 201.222 62.1802C201.256 63.2126 202.228 63.8837 203.622 64.2622V64.2192ZM209.301 71.5581C209.257 70.4655 208.328 69.9062 206.96 69.4846L207.124 73.7865C208.681 73.4423 209.344 72.6078 209.344 71.6011L209.301 71.5581Z" fill="black"/>
</g>
<path d="M225.226 65.157C225.226 65.157 225.226 65.0451 225.226 64.8214C225.226 64.5978 225.174 64.2622 225.131 63.8492L225.062 63.1351C225.062 62.877 224.968 62.5931 224.907 62.2748C224.799 61.5641 224.638 60.8624 224.426 60.1755C223.895 58.277 223.08 56.4698 222.008 54.8154C220.456 52.3854 218.408 50.3102 215.999 48.7254C213.59 47.1406 210.873 46.0818 208.027 45.6181C204.441 45.05 200.768 45.4449 197.384 46.7624C196.468 47.1135 195.577 47.5275 194.717 48.0013C193.865 48.493 193.048 49.0451 192.274 49.6532C191.476 50.2702 190.72 50.9399 190.011 51.6579C189.317 52.4176 188.671 53.2193 188.075 54.0583C186.854 55.7814 185.919 57.6901 185.305 59.7109C184.006 63.8945 184.115 68.3887 185.615 72.5045C186.326 74.4931 187.352 76.355 188.652 78.0194C189.284 78.8288 189.968 79.5961 190.699 80.3166C191.442 80.9983 192.227 81.6333 193.048 82.218C194.638 83.3581 196.393 84.2461 198.253 84.8507C201.697 86.003 205.384 86.2227 208.939 85.4874C212.034 84.8404 214.934 83.4759 217.405 81.5039C219.45 79.885 221.167 77.8906 222.464 75.6276C223.452 73.9365 224.18 72.1064 224.624 70.1987C224.802 69.5007 224.929 68.7904 225.002 68.0736C225.045 67.7639 225.097 67.48 225.123 67.2133C225.148 66.9465 225.123 66.7056 225.123 66.4906C225.123 66.0862 225.123 65.7592 225.174 65.5183C225.169 65.4094 225.169 65.3003 225.174 65.1914C225.187 65.3 225.187 65.4098 225.174 65.5183V66.4992C225.174 66.7142 225.174 66.9551 225.174 67.2219C225.174 67.4886 225.114 67.7725 225.08 68.0822C225.049 68.793 224.966 69.5004 224.83 70.1987C224.416 72.1483 223.705 74.0228 222.722 75.7567C220.369 79.9457 216.628 83.1827 212.144 84.9102C207.66 86.6377 202.715 86.7475 198.159 85.2207C197.223 84.911 196.31 84.5402 195.423 84.1108C194.525 83.6532 193.662 83.1298 192.842 82.5449C191.997 81.9568 191.192 81.3129 190.433 80.6177C189.685 79.882 188.986 79.0973 188.342 78.2689C187.004 76.5723 185.952 74.6689 185.228 72.6335C183.693 68.4262 183.585 63.8313 184.918 59.556C185.544 57.49 186.503 55.5401 187.757 53.783C188.362 52.9254 189.023 52.1091 189.736 51.3396C190.461 50.6121 191.231 49.931 192.042 49.3005C192.836 48.6708 193.673 48.0959 194.545 47.5798C195.408 47.1057 196.302 46.6917 197.221 46.3408C200.666 45.0263 204.398 44.6492 208.036 45.2482C210.931 45.73 213.689 46.8233 216.128 48.4552C218.567 50.0871 220.63 52.2202 222.18 54.7122C223.245 56.3956 224.046 58.2323 224.555 60.1583C224.753 60.8553 224.903 61.5654 225.002 62.2834C225.045 62.5931 225.105 62.877 225.131 63.1437C225.157 63.4105 225.131 63.6427 225.131 63.8578C225.131 64.2708 225.148 64.5978 225.183 64.8387C225.207 64.9432 225.221 65.0498 225.226 65.157Z" fill="#263238"/>
<path d="M257.194 27.1941C262.2 22.1878 262.2 14.071 257.194 9.06469C252.188 4.0584 244.071 4.05842 239.065 9.06471C234.058 14.071 234.058 22.1878 239.065 27.1941C244.071 32.2004 252.188 32.2004 257.194 27.1941Z" fill="#FF4242"/>
<path d="M253.124 14.9606L251.298 13.1355L243.128 21.3059L244.953 23.131L253.124 14.9606Z" fill="white"/>
<path d="M244.951 13.1261L243.126 14.9512L251.296 23.1216L253.121 21.2965L244.951 13.1261Z" fill="white"/>
<path d="M129.803 224.436H129.717V120.685H0.2323V224.72H112.94L129.803 241.592V224.436Z" fill="white"/>
<path d="M129.803 224.436C129.803 224.436 129.803 224.806 129.803 225.546C129.803 226.286 129.803 227.387 129.803 228.832C129.803 231.741 129.803 236.034 129.803 241.592V241.747L129.691 241.635L112.802 224.789H112.871L0.163469 224.858H0V224.694C0 196.44 0 165.398 0 132.885V120.513H0.172072H129.665H129.812V120.65C129.812 152.019 129.76 177.89 129.751 195.958C129.751 204.992 129.751 212.073 129.708 216.908C129.708 219.325 129.708 221.21 129.708 222.449C129.708 223.077 129.708 223.558 129.708 223.885C129.708 224.212 129.708 224.393 129.708 224.402C129.699 224.23 129.699 224.057 129.708 223.885C129.708 223.558 129.708 223.077 129.708 222.449C129.708 221.184 129.708 219.325 129.708 216.908C129.708 212.073 129.708 204.992 129.665 195.958C129.665 177.89 129.665 152.019 129.605 120.65L129.751 120.797H0.258108L0.438785 120.616V132.842C0.438785 165.355 0.438785 196.397 0.438785 224.651L0.266712 224.488L112.974 224.556L129.82 241.445L129.708 241.497C129.786 230.545 129.803 224.901 129.803 224.436Z" fill="#263238"/>
<path d="M129.717 132.257C129.717 132.36 100.731 132.437 64.9746 132.437C29.2179 132.437 0.223694 132.36 0.223694 132.257C0.223694 132.154 29.2093 132.076 64.9746 132.076C100.74 132.076 129.717 132.145 129.717 132.257Z" fill="#263238"/>
<path d="M7.7433 126.639C7.745 126.963 7.65035 127.28 7.47139 127.55C7.29242 127.82 7.03721 128.031 6.73816 128.156C6.43911 128.281 6.10972 128.314 5.79182 128.251C5.47392 128.188 5.18186 128.032 4.95273 127.803C4.7236 127.574 4.56773 127.282 4.50493 126.964C4.44213 126.646 4.47523 126.317 4.60002 126.018C4.72481 125.719 4.93566 125.463 5.2058 125.284C5.47594 125.105 5.79317 125.011 6.11721 125.012C6.54778 125.015 6.96007 125.187 7.26453 125.491C7.56899 125.796 7.74104 126.208 7.7433 126.639Z" fill="#E0E0E0"/>
<path d="M12.5699 126.639C12.5716 126.962 12.4772 127.279 12.2986 127.549C12.12 127.819 11.8653 128.03 11.5668 128.155C11.2682 128.28 10.9393 128.314 10.6216 128.251C10.3039 128.189 10.0119 128.034 9.78238 127.806C9.5529 127.578 9.39636 127.287 9.33258 126.969C9.26881 126.652 9.30067 126.323 9.42414 126.024C9.54761 125.724 9.75713 125.469 10.0261 125.289C10.2951 125.109 10.6115 125.012 10.9352 125.012C11.3673 125.012 11.7818 125.184 12.0881 125.488C12.3944 125.793 12.5676 126.207 12.5699 126.639Z" fill="#E0E0E0"/>
<path d="M15.7618 128.273C16.6646 128.273 17.3965 127.541 17.3965 126.639C17.3965 125.736 16.6646 125.004 15.7618 125.004C14.859 125.004 14.1271 125.736 14.1271 126.639C14.1271 127.541 14.859 128.273 15.7618 128.273Z" fill="#E0E0E0"/>
<path d="M129.803 136.206C136.569 136.206 142.055 130.721 142.055 123.954C142.055 117.188 136.569 111.703 129.803 111.703C123.037 111.703 117.551 117.188 117.551 123.954C117.551 130.721 123.037 136.206 129.803 136.206Z" fill="#FF4242"/>
<path d="M134.585 120.915L132.845 119.175L125.034 126.987L126.774 128.727L134.585 120.915Z" fill="white"/>
<path d="M126.764 119.181L125.024 120.92L132.836 128.732L134.576 126.992L126.764 119.181Z" fill="white"/>
<path d="M60.1652 134.692L69.741 144.569L83.1369 141.437L85.8556 154.919L98.8127 159.53L93.814 172.35L102.22 183.233L91.0867 191.303L92.2739 205.009L78.5426 205.783L72.1328 217.957L60.1652 211.178L48.1889 217.957L41.7792 205.783L28.0478 205.009L29.2351 191.303L18.1021 183.233L26.5164 172.35L21.5091 159.53L34.4662 154.919L37.1849 141.437L50.5808 144.569L60.1652 134.692Z" fill="#FF4242"/>
<g opacity="0.3">
<path d="M54.8998 165.458C54.8998 162.662 53.9276 161.905 52.3703 161.905C50.8131 161.905 49.8409 162.765 49.8409 164.968V166.964H45.2293V165.243C45.2293 160.27 47.7158 157.431 52.508 157.431C57.3002 157.431 59.7781 160.27 59.7781 165.243V166.043C59.7781 169.373 58.7198 171.455 56.3366 172.436C58.78 173.494 59.7781 175.8 59.7781 178.957V181.392C59.7781 186.365 57.3002 189.204 52.508 189.204C47.7158 189.204 45.2293 186.365 45.2293 181.392V178.811H49.8409V181.693C49.8409 183.913 50.8217 184.756 52.3703 184.756C53.919 184.756 54.8998 184.008 54.8998 181.254V178.811C54.8998 175.929 53.9276 174.862 51.7078 174.862H50.0646V170.422H51.9746C53.7899 170.422 54.8998 169.631 54.8998 167.144V165.458Z" fill="black"/>
<path d="M62.6689 165.277C62.6689 160.305 65.25 157.465 70.0766 157.465C74.9032 157.465 77.4843 160.305 77.4843 165.277V181.426C77.4843 186.399 74.9032 189.239 70.0766 189.239C65.25 189.239 62.6689 186.399 62.6689 181.426V165.277ZM67.5471 181.736C67.5471 183.956 68.528 184.799 70.0766 184.799C71.6253 184.799 72.6061 183.939 72.6061 181.736V164.968C72.6061 162.748 71.6339 161.905 70.0766 161.905C68.5194 161.905 67.5471 162.765 67.5471 164.968V181.736Z" fill="black"/>
</g>
<g opacity="0.3">
<path d="M78.7834 157.577C78.7528 157.39 78.7632 157.199 78.8139 157.016C78.8647 156.833 78.9545 156.664 79.0773 156.519C79.2001 156.375 79.3528 156.259 79.5249 156.179C79.697 156.099 79.8844 156.058 80.074 156.058C80.2636 156.058 80.451 156.099 80.6231 156.179C80.7952 156.259 80.9479 156.375 81.0707 156.519C81.1934 156.664 81.2833 156.833 81.334 157.016C81.3848 157.199 81.3952 157.39 81.3645 157.577V160.399C81.3952 160.586 81.3848 160.778 81.334 160.961C81.2833 161.143 81.1934 161.313 81.0707 161.457C80.9479 161.602 80.7952 161.718 80.6231 161.798C80.451 161.877 80.2636 161.918 80.074 161.918C79.8844 161.918 79.697 161.877 79.5249 161.798C79.3528 161.718 79.2001 161.602 79.0773 161.457C78.9545 161.313 78.8647 161.143 78.8139 160.961C78.7632 160.778 78.7528 160.586 78.7834 160.399V157.577ZM79.6438 160.468C79.6438 160.847 79.7987 161.001 80.0826 161.001C80.3665 161.001 80.53 160.847 80.53 160.468V157.508C80.53 157.13 80.3579 156.966 80.0826 156.966C79.8073 156.966 79.6438 157.13 79.6438 157.508V160.468ZM83.481 156.261H84.2812L80.8397 164.865H80.0396L83.481 156.261ZM83.0508 160.726C83.0202 160.539 83.0306 160.347 83.0813 160.165C83.1321 159.982 83.2219 159.813 83.3447 159.668C83.4675 159.524 83.6202 159.407 83.7923 159.328C83.9644 159.248 84.1518 159.207 84.3414 159.207C84.531 159.207 84.7184 159.248 84.8905 159.328C85.0626 159.407 85.2153 159.524 85.3381 159.668C85.4608 159.813 85.5507 159.982 85.6014 160.165C85.6522 160.347 85.6626 160.539 85.6319 160.726V163.548C85.6626 163.735 85.6522 163.927 85.6014 164.11C85.5507 164.292 85.4608 164.462 85.3381 164.606C85.2153 164.751 85.0626 164.867 84.8905 164.946C84.7184 165.026 84.531 165.067 84.3414 165.067C84.1518 165.067 83.9644 165.026 83.7923 164.946C83.6202 164.867 83.4675 164.751 83.3447 164.606C83.2219 164.462 83.1321 164.292 83.0813 164.11C83.0306 163.927 83.0202 163.735 83.0508 163.548V160.726ZM83.9112 163.617C83.9112 163.996 84.0661 164.15 84.35 164.15C84.6339 164.15 84.7974 163.996 84.7974 163.617V160.657C84.7974 160.279 84.6253 160.124 84.35 160.124C84.0747 160.124 83.9112 160.279 83.9112 160.657V163.617Z" fill="black"/>
</g>
<g opacity="0.3">
<path d="M51.3379 190.796C53.2737 190.796 54.2717 191.957 54.2717 193.988V194.392H52.3875V193.859C52.3875 192.998 52.0262 192.611 51.3895 192.611C50.7528 192.611 50.3915 192.955 50.3915 193.859C50.3915 196.44 54.2889 196.965 54.2889 200.587C54.2889 202.617 53.2737 203.779 51.3207 203.779C49.3676 203.779 48.3438 202.617 48.3438 200.587V199.812H50.228V200.673C50.228 201.576 50.6324 201.903 51.2604 201.903C51.8885 201.903 52.3015 201.576 52.3015 200.673C52.3015 198.092 48.3954 197.576 48.3954 193.945C48.3954 191.957 49.3935 190.796 51.3379 190.796Z" fill="black"/>
<path d="M61.8945 203.632H59.8813L59.5371 201.335H57.0593L56.7151 203.632H54.9084L56.9388 190.942H59.8641L61.8945 203.632ZM57.3432 199.606H59.2618L58.2982 193.231L57.3432 199.606Z" fill="black"/>
<path d="M62.8151 190.942H64.8026V201.834H68.0891V203.65H62.8151V190.942Z" fill="black"/>
<path d="M70.9628 196.294H73.6987V198.1H70.9628V201.834H74.4042V203.65H68.9667V190.942H74.4042V192.757H70.9628V196.294Z" fill="black"/>
</g>
<path d="M53.0844 166.353C53.0844 163.557 52.1036 162.8 50.555 162.8C49.0063 162.8 48.0255 163.66 48.0255 165.863V167.859H43.4053V166.138C43.4053 161.174 45.8918 158.334 50.684 158.334C55.4762 158.334 57.9627 161.174 57.9627 166.138V166.938C57.9627 170.268 56.8958 172.35 54.5212 173.33C56.9647 174.397 57.9627 176.703 57.9627 179.852V182.295C57.9627 187.26 55.4762 190.099 50.684 190.099C45.8918 190.099 43.4053 187.26 43.4053 182.295V179.714H48.0255V182.597C48.0255 184.816 48.9977 185.659 50.555 185.659C52.1122 185.659 53.0844 184.902 53.0844 182.149V179.714C53.0844 176.824 52.1036 175.765 49.8839 175.765H48.2492V171.326H50.1764C52.0004 171.326 53.1102 170.526 53.1102 168.039L53.0844 166.353Z" fill="white"/>
<path d="M60.8449 166.172C60.8449 161.208 63.426 158.369 68.2612 158.369C73.0965 158.369 75.669 161.208 75.669 166.172V182.33C75.669 187.294 73.0879 190.133 68.2612 190.133C63.4346 190.133 60.8449 187.294 60.8449 182.33V166.172ZM65.7318 182.64C65.7318 184.859 66.704 185.702 68.2612 185.702C69.8185 185.702 70.7907 184.842 70.7907 182.64V165.863C70.7907 163.643 69.8099 162.8 68.2612 162.8C66.7126 162.8 65.7318 163.66 65.7318 165.863V182.64Z" fill="white"/>
<path d="M76.9595 157.577C76.9288 157.39 76.9392 157.199 76.99 157.016C77.0407 156.833 77.1306 156.664 77.2533 156.519C77.3761 156.375 77.5288 156.259 77.7009 156.179C77.873 156.099 78.0604 156.058 78.25 156.058C78.4396 156.058 78.627 156.099 78.7991 156.179C78.9712 156.259 79.1239 156.375 79.2467 156.519C79.3695 156.664 79.4593 156.833 79.5101 157.016C79.5608 157.199 79.5712 157.39 79.5406 157.577V160.399C79.5712 160.586 79.5608 160.778 79.5101 160.961C79.4593 161.143 79.3695 161.313 79.2467 161.457C79.1239 161.602 78.9712 161.718 78.7991 161.798C78.627 161.877 78.4396 161.918 78.25 161.918C78.0604 161.918 77.873 161.877 77.7009 161.798C77.5288 161.718 77.3761 161.602 77.2533 161.457C77.1306 161.313 77.0407 161.143 76.99 160.961C76.9392 160.778 76.9288 160.586 76.9595 160.399V157.577ZM77.8198 160.468C77.8198 160.847 77.9747 161.001 78.2586 161.001C78.5425 161.001 78.706 160.847 78.706 160.468V157.508C78.706 157.13 78.5339 156.966 78.2586 156.966C77.9833 156.966 77.8198 157.13 77.8198 157.508V160.468ZM81.657 156.261H82.4572L79.0157 164.865H78.2156L81.657 156.261ZM81.2269 160.726C81.1962 160.539 81.2066 160.347 81.2574 160.165C81.3081 159.982 81.398 159.813 81.5207 159.668C81.6435 159.524 81.7962 159.407 81.9683 159.328C82.1404 159.248 82.3278 159.207 82.5174 159.207C82.707 159.207 82.8944 159.248 83.0665 159.328C83.2386 159.407 83.3913 159.524 83.5141 159.668C83.6369 159.813 83.7267 159.982 83.7775 160.165C83.8282 160.347 83.8386 160.539 83.808 160.726V163.548C83.8386 163.735 83.8282 163.927 83.7775 164.11C83.7267 164.292 83.6369 164.462 83.5141 164.606C83.3913 164.751 83.2386 164.867 83.0665 164.946C82.8944 165.026 82.707 165.067 82.5174 165.067C82.3278 165.067 82.1404 165.026 81.9683 164.946C81.7962 164.867 81.6435 164.751 81.5207 164.606C81.398 164.462 81.3081 164.292 81.2574 164.11C81.2066 163.927 81.1962 163.735 81.2269 163.548V160.726ZM82.0872 163.617C82.0872 163.996 82.2421 164.15 82.526 164.15C82.8099 164.15 82.9734 163.996 82.9734 163.617V160.657C82.9734 160.279 82.8013 160.124 82.526 160.124C82.2507 160.124 82.0872 160.279 82.0872 160.657V163.617Z" fill="white"/>
<path d="M49.5139 190.796C51.4497 190.796 52.4477 191.957 52.4477 193.988V194.392H50.5635V193.859C50.5635 192.998 50.2022 192.611 49.5655 192.611C48.9289 192.611 48.5675 192.955 48.5675 193.859C48.5675 196.44 52.4649 196.965 52.4649 200.587C52.4649 202.617 51.4497 203.779 49.4967 203.779C47.5437 203.779 46.5198 202.617 46.5198 200.587V199.812H48.404V200.673C48.404 201.576 48.8084 201.903 49.4451 201.903C50.0817 201.903 50.4775 201.576 50.4775 200.673C50.4775 198.092 46.5801 197.576 46.5801 193.945C46.5801 191.957 47.5953 190.796 49.5139 190.796Z" fill="white"/>
<path d="M60.0706 203.632H58.0573L57.7132 201.335H55.2611L54.917 203.632H53.0844L55.1149 190.942H58.0401L60.0706 203.632ZM55.5192 199.606H57.4379L56.4742 193.231L55.5192 199.606Z" fill="white"/>
<path d="M60.9911 190.942H62.9872V201.834H66.2738V203.65H60.9911V190.942Z" fill="white"/>
<path d="M69.1043 196.294H71.8403V198.1H69.1043V201.834H72.5458V203.65H67.1427V190.942H72.5458V192.757H69.1043V196.294Z" fill="white"/>
</svg>
