<svg width="500" height="369" viewBox="0 0 500 369" fill="none" xmlns="http://www.w3.org/2000/svg">
<path d="M449.9 343.49H416.78V343.74H449.9V343.49Z" fill="#EBEBEB"/>
<path d="M331.22 346.21H322.53V346.46H331.22V346.21Z" fill="#EBEBEB"/>
<path d="M415.78 334.21H396.59V334.46H415.78V334.21Z" fill="#EBEBEB"/>
<path d="M95.65 335.89H52.46V336.14H95.65V335.89Z" fill="#EBEBEB"/>
<path d="M110.89 335.89H104.56V336.14H110.89V335.89Z" fill="#EBEBEB"/>
<path d="M225.15 340.11H131.47V340.36H225.15V340.11Z" fill="#EBEBEB"/>
<path d="M237 282.8H43.92C42.4056 282.8 40.9533 282.198 39.8824 281.128C38.8116 280.057 38.21 278.604 38.21 277.09V5.66C38.2232 4.15429 38.8306 2.71475 39.9 1.65471C40.9694 0.594662 42.4143 -5.77259e-05 43.92 4.20255e-09H237C238.514 4.20256e-09 239.967 0.601588 241.038 1.67242C242.108 2.74325 242.71 4.19561 242.71 5.71V277.09C242.71 278.604 242.108 280.057 241.038 281.128C239.967 282.198 238.514 282.8 237 282.8V282.8ZM43.92 0.200001C42.4728 0.202644 41.0855 0.77874 40.0621 1.80212C39.0388 2.82549 38.4627 4.21273 38.46 5.66V277.09C38.4627 278.537 39.0388 279.924 40.0621 280.948C41.0855 281.971 42.4728 282.547 43.92 282.55H237C238.447 282.547 239.835 281.971 240.858 280.948C241.881 279.924 242.457 278.537 242.46 277.09V5.66C242.457 4.21273 241.881 2.82549 240.858 1.80212C239.835 0.77874 238.447 0.202644 237 0.200001H43.92Z" fill="#EBEBEB"/>
<path d="M453.31 282.8H260.21C258.696 282.797 257.246 282.195 256.175 281.125C255.105 280.054 254.503 278.604 254.5 277.09V5.66C254.516 4.15511 255.124 2.71708 256.193 1.65759C257.262 0.598109 258.705 0.00254829 260.21 0H453.31C454.812 0.0052045 456.252 0.602249 457.317 1.66173C458.382 2.72121 458.987 4.15775 459 5.66V277.09C459 278.601 458.401 280.05 457.335 281.121C456.268 282.191 454.821 282.795 453.31 282.8V282.8ZM260.21 0.200001C258.763 0.202644 257.376 0.77874 256.352 1.80212C255.329 2.82549 254.753 4.21273 254.75 5.66V277.09C254.753 278.537 255.329 279.924 256.352 280.948C257.376 281.971 258.763 282.547 260.21 282.55H453.31C454.757 282.547 456.145 281.971 457.168 280.948C458.191 279.924 458.767 278.537 458.77 277.09V5.66C458.767 4.21273 458.191 2.82549 457.168 1.80212C456.145 0.77874 454.757 0.202644 453.31 0.200001H260.21Z" fill="#EBEBEB"/>
<path d="M500 327.4H0V327.65H500V327.4Z" fill="#EBEBEB"/>
<path d="M379.18 75.27C394.246 75.27 406.46 63.0563 406.46 47.99C406.46 32.9237 394.246 20.71 379.18 20.71C364.114 20.71 351.9 32.9237 351.9 47.99C351.9 63.0563 364.114 75.27 379.18 75.27Z" fill="#F0F0F0"/>
<path d="M379.25 75.88C375.542 75.9502 371.858 75.2806 368.412 73.9102C364.966 72.5399 361.828 70.4964 359.181 67.8991C356.534 65.3019 354.432 62.203 352.996 58.7838C351.561 55.3645 350.822 51.6933 350.822 47.985C350.822 44.2767 351.561 40.6055 352.996 37.1862C354.432 33.767 356.534 30.6681 359.181 28.0709C361.828 25.4736 364.966 23.4301 368.412 22.0598C371.858 20.6894 375.542 20.0198 379.25 20.09V21.31C372.265 21.4452 365.611 24.3151 360.719 29.3029C355.827 34.2907 353.086 40.9985 353.086 47.985C353.086 54.9715 355.827 61.6793 360.719 66.6671C365.611 71.6549 372.265 74.5248 379.25 74.66V75.88Z" fill="white"/>
<path d="M379.25 75.88V74.66C386.235 74.5248 392.889 71.6549 397.781 66.6671C402.673 61.6793 405.413 54.9715 405.413 47.985C405.413 40.9985 402.673 34.2907 397.781 29.3029C392.889 24.3151 386.235 21.4452 379.25 21.31V20.09C382.958 20.0198 386.642 20.6894 390.088 22.0598C393.534 23.4301 396.672 25.4736 399.319 28.0709C401.966 30.6681 404.068 33.767 405.504 37.1862C406.939 40.6055 407.678 44.2767 407.678 47.985C407.678 51.6933 406.939 55.3645 405.504 58.7838C404.068 62.203 401.966 65.3019 399.319 67.8991C396.672 70.4964 393.534 72.5399 390.088 73.9102C386.642 75.2806 382.958 75.9502 379.25 75.88Z" fill="white"/>
<path d="M393.51 48H392.28C392.28 39 387.69 26.86 378.92 21.23L379.58 20.23C388.73 26.06 393.51 38.62 393.51 48Z" fill="white"/>
<path d="M379.58 75L378.92 74C387.69 68.37 392.28 56.27 392.28 47.23H393.51C393.51 56.53 388.73 69.1 379.58 75Z" fill="white"/>
<path d="M366.23 48H365C365 38.62 369.78 26.06 378.92 20.19L379.58 21.19C370.81 26.85 366.23 38.94 366.23 48Z" fill="white"/>
<path d="M378.92 75C369.78 69.14 365 56.58 365 47.2H366.23C366.23 56.2 370.81 68.34 379.58 73.97L378.92 75Z" fill="white"/>
<path d="M379.87 20.7H378.64V75.27H379.87V20.7Z" fill="white"/>
<path d="M402.35 32.84H356.16V34.07H402.35V32.84Z" fill="white"/>
<path d="M406.53 47.84H351.98V49.07H406.53V47.84Z" fill="white"/>
<path d="M401.74 62.82H356.77V64.05H401.74V62.82Z" fill="white"/>
<path d="M66.9 304.9H53.12V308.52H66.9V304.9Z" fill="#E6E6E6"/>
<path d="M173.82 304.9H160.04V308.52H173.82V304.9Z" fill="#E6E6E6"/>
<path d="M78.63 306.71H75.01V328.01H78.63V306.71Z" fill="#E0E0E0"/>
<path d="M163.58 206.73H64.85V214.45H163.58V206.73Z" fill="#E6E6E6"/>
<path d="M163.58 302.85H64.85V310.57H163.58V302.85Z" fill="#E6E6E6"/>
<path d="M68.62 318.13L68.31 318.45C68.0451 318.725 67.7274 318.944 67.3761 319.093C67.0247 319.242 66.6468 319.319 66.265 319.319C65.8832 319.319 65.5053 319.242 65.154 319.093C64.8026 318.944 64.4849 318.725 64.22 318.45L63.92 318.13C62.9997 317.178 62.4867 315.904 62.49 314.58V208.79C62.4909 207.467 63.0032 206.195 63.92 205.24L64.22 204.92C64.4849 204.645 64.8026 204.426 65.154 204.277C65.5053 204.128 65.8832 204.051 66.265 204.051C66.6468 204.051 67.0247 204.128 67.3761 204.277C67.7274 204.426 68.0451 204.645 68.31 204.92L68.62 205.24C69.5332 206.197 70.045 207.467 70.05 208.79V314.58C70.0481 315.903 69.5359 317.175 68.62 318.13V318.13Z" fill="#F0F0F0"/>
<path d="M79.17 318.13L78.86 318.45C78.5951 318.725 78.2774 318.944 77.926 319.093C77.5747 319.242 77.1968 319.319 76.815 319.319C76.4332 319.319 76.0553 319.242 75.7039 319.093C75.3526 318.944 75.0349 318.725 74.77 318.45L74.47 318.13C73.535 317.184 73.0074 315.91 73 314.58V208.79C73.0009 207.467 73.5132 206.195 74.43 205.24L74.73 204.92C74.9949 204.645 75.3126 204.426 75.6639 204.277C76.0153 204.128 76.3932 204.051 76.775 204.051C77.1568 204.051 77.5347 204.128 77.8861 204.277C78.2374 204.426 78.5551 204.645 78.82 204.92L79.13 205.24C80.0468 206.195 80.5591 207.467 80.56 208.79V314.58C80.5741 315.899 80.0757 317.171 79.17 318.13V318.13Z" fill="#F0F0F0"/>
<path d="M89.72 318.13L89.41 318.45C89.1451 318.725 88.8274 318.944 88.4761 319.093C88.1247 319.242 87.7468 319.319 87.365 319.319C86.9832 319.319 86.6053 319.242 86.2539 319.093C85.9026 318.944 85.5849 318.725 85.32 318.45L85.02 318.13C84.0997 317.178 83.5867 315.904 83.59 314.58V208.79C83.5855 207.469 84.0905 206.198 85 205.24L85.3 204.92C85.5649 204.645 85.8826 204.426 86.2339 204.277C86.5853 204.128 86.9632 204.051 87.345 204.051C87.7268 204.051 88.1047 204.128 88.4561 204.277C88.8074 204.426 89.1251 204.645 89.39 204.92L89.7 205.24C90.6168 206.195 91.1291 207.467 91.13 208.79V314.58C91.1387 315.902 90.633 317.175 89.72 318.13V318.13Z" fill="#F0F0F0"/>
<path d="M100.27 318.13L99.96 318.45C99.6951 318.725 99.3774 318.944 99.0261 319.093C98.6747 319.242 98.2968 319.319 97.915 319.319C97.5332 319.319 97.1553 319.242 96.8039 319.093C96.4526 318.944 96.1349 318.725 95.87 318.45L95.57 318.13C94.6497 317.178 94.1367 315.904 94.14 314.58V208.79C94.1409 207.467 94.6532 206.195 95.57 205.24L95.87 204.92C96.1349 204.645 96.4526 204.426 96.8039 204.277C97.1553 204.128 97.5332 204.051 97.915 204.051C98.2968 204.051 98.6747 204.128 99.0261 204.277C99.3774 204.426 99.6951 204.645 99.96 204.92L100.27 205.24C101.187 206.195 101.699 207.467 101.7 208.79V314.58C101.703 315.904 101.19 317.178 100.27 318.13Z" fill="#F0F0F0"/>
<path d="M110.82 318.13L110.51 318.45C110.245 318.725 109.927 318.944 109.576 319.093C109.225 319.242 108.847 319.319 108.465 319.319C108.083 319.319 107.705 319.242 107.354 319.093C107.003 318.944 106.685 318.725 106.42 318.45L106.12 318.13C105.2 317.178 104.687 315.904 104.69 314.58V208.79C104.691 207.467 105.203 206.195 106.12 205.24L106.42 204.92C106.685 204.645 107.003 204.426 107.354 204.277C107.705 204.128 108.083 204.051 108.465 204.051C108.847 204.051 109.225 204.128 109.576 204.277C109.927 204.426 110.245 204.645 110.51 204.92L110.82 205.24C111.737 206.195 112.249 207.467 112.25 208.79V314.58C112.253 315.904 111.74 317.178 110.82 318.13V318.13Z" fill="#F0F0F0"/>
<path d="M121.37 318.13L121.07 318.45C120.804 318.725 120.486 318.944 120.134 319.094C119.781 319.243 119.403 319.32 119.02 319.32C118.637 319.32 118.259 319.243 117.907 319.094C117.554 318.944 117.236 318.725 116.97 318.45L116.67 318.13C115.75 317.178 115.237 315.904 115.24 314.58V208.79C115.241 207.467 115.753 206.195 116.67 205.24L116.97 204.92C117.236 204.645 117.554 204.426 117.907 204.276C118.259 204.127 118.637 204.05 119.02 204.05C119.403 204.05 119.781 204.127 120.134 204.276C120.486 204.426 120.804 204.645 121.07 204.92L121.37 205.24C122.287 206.195 122.799 207.467 122.8 208.79V314.58C122.803 315.904 122.29 317.178 121.37 318.13V318.13Z" fill="#F0F0F0"/>
<path d="M131.92 318.13L131.62 318.45C131.354 318.725 131.036 318.944 130.683 319.094C130.331 319.243 129.953 319.32 129.57 319.32C129.187 319.32 128.809 319.243 128.456 319.094C128.104 318.944 127.786 318.725 127.52 318.45L127.22 318.13C126.3 317.178 125.787 315.904 125.79 314.58V208.79C125.791 207.467 126.303 206.195 127.22 205.24L127.52 204.92C127.786 204.645 128.104 204.426 128.456 204.276C128.809 204.127 129.187 204.05 129.57 204.05C129.953 204.05 130.331 204.127 130.683 204.276C131.036 204.426 131.354 204.645 131.62 204.92L131.92 205.24C132.837 206.195 133.349 207.467 133.35 208.79V314.58C133.353 315.904 132.84 317.178 131.92 318.13V318.13Z" fill="#F0F0F0"/>
<path d="M142.47 318.13L142.17 318.45C141.905 318.725 141.587 318.944 141.236 319.093C140.885 319.242 140.507 319.319 140.125 319.319C139.743 319.319 139.365 319.242 139.014 319.093C138.663 318.944 138.345 318.725 138.08 318.45L137.77 318.13C136.85 317.178 136.337 315.904 136.34 314.58V208.79C136.341 207.467 136.853 206.195 137.77 205.24L138.08 204.92C138.345 204.645 138.663 204.426 139.014 204.277C139.365 204.128 139.743 204.051 140.125 204.051C140.507 204.051 140.885 204.128 141.236 204.277C141.587 204.426 141.905 204.645 142.17 204.92L142.47 205.24C143.387 206.195 143.899 207.467 143.9 208.79V314.58C143.903 315.904 143.39 317.178 142.47 318.13V318.13Z" fill="#F0F0F0"/>
<path d="M150.51 306.71H146.89V328.01H150.51V306.71Z" fill="#E0E0E0"/>
<path d="M153 318.13L152.7 318.45C152.435 318.725 152.117 318.944 151.766 319.093C151.415 319.242 151.037 319.319 150.655 319.319C150.273 319.319 149.895 319.242 149.544 319.093C149.193 318.944 148.875 318.725 148.61 318.45L148.3 318.13C147.38 317.178 146.867 315.904 146.87 314.58V208.79C146.871 207.467 147.383 206.195 148.3 205.24L148.61 204.92C148.875 204.645 149.193 204.426 149.544 204.277C149.895 204.128 150.273 204.051 150.655 204.051C151.037 204.051 151.415 204.128 151.766 204.277C152.117 204.426 152.435 204.645 152.7 204.92L153 205.24C153.917 206.195 154.429 207.467 154.43 208.79V314.58C154.433 315.904 153.92 317.178 153 318.13V318.13Z" fill="#F0F0F0"/>
<path d="M163.57 318.13L163.27 318.45C163.005 318.725 162.687 318.944 162.336 319.093C161.985 319.242 161.607 319.319 161.225 319.319C160.843 319.319 160.465 319.242 160.114 319.093C159.763 318.944 159.445 318.725 159.18 318.45L158.87 318.13C157.95 317.178 157.437 315.904 157.44 314.58V208.79C157.441 207.467 157.953 206.195 158.87 205.24L159.18 204.92C159.445 204.645 159.763 204.426 160.114 204.277C160.465 204.128 160.843 204.051 161.225 204.051C161.607 204.051 161.985 204.128 162.336 204.277C162.687 204.426 163.005 204.645 163.27 204.92L163.57 205.24C164.487 206.195 164.999 207.467 165 208.79V314.58C165.003 315.904 164.49 317.178 163.57 318.13Z" fill="#F0F0F0"/>
<path d="M174.6 294.76H170.98V327.83H174.6V294.76Z" fill="#F5F5F5"/>
<path d="M388.61 273.29C388.61 273.29 384 221 359.66 170.79C359.66 170.79 395.52 204.26 396.78 273.29H388.61Z" fill="#F5F5F5"/>
<path d="M394.27 281.39C394.27 281.39 374.75 190.39 378.27 142.15C378.27 142.15 404.38 195.82 403.12 276.93L394.27 281.39Z" fill="#F5F5F5"/>
<path d="M408.68 275.64C408.68 275.64 410.54 216.21 420.08 186.86C420.08 186.86 428.08 224.13 414.82 274.23L408.68 275.64Z" fill="#E6E6E6"/>
<path d="M403.07 276.93C403.07 276.93 396.78 197.68 414.39 162.17C414.39 162.17 416.28 234.17 411.87 276.93H403.07Z" fill="#E6E6E6"/>
<path d="M423.17 327.61H383.37L377.68 268.88H428.87L423.17 327.61Z" fill="#F0F0F0"/>
<path d="M417.94 277.38C417.94 277.38 422.59 225.09 446.88 174.87C446.88 174.87 411.02 208.35 409.76 277.38H417.94Z" fill="#F5F5F5"/>
<path d="M245.18 368.71C352.262 368.71 439.07 363.642 439.07 357.39C439.07 351.138 352.262 346.07 245.18 346.07C138.097 346.07 51.29 351.138 51.29 357.39C51.29 363.642 138.097 368.71 245.18 368.71Z" fill="#F5F5F5"/>
<path d="M163.89 345.72V348.64C163.893 349.365 164.183 350.059 164.696 350.571C165.21 351.083 165.905 351.37 166.63 351.37H271.24C271.571 351.371 271.9 351.307 272.206 351.181C272.512 351.055 272.791 350.869 273.025 350.635C273.259 350.401 273.445 350.122 273.571 349.816C273.697 349.51 273.761 349.181 273.76 348.85V346.05C273.761 345.719 273.697 345.39 273.571 345.084C273.445 344.778 273.259 344.499 273.025 344.265C272.791 344.031 272.512 343.845 272.206 343.719C271.9 343.593 271.571 343.529 271.24 343.53H245.24C244.545 343.53 243.859 343.378 243.229 343.085C242.599 342.792 242.04 342.364 241.592 341.833C241.145 341.301 240.819 340.679 240.637 340.008C240.455 339.337 240.422 338.635 240.54 337.95L249.67 285.23H190.24L164.8 341.53C164.199 342.845 163.889 344.274 163.89 345.72V345.72Z" fill="#263238"/>
<path opacity="0.2" d="M273.76 346V348.82C273.761 349.15 273.697 349.477 273.572 349.782C273.446 350.087 273.261 350.364 273.028 350.598C272.795 350.831 272.517 351.016 272.212 351.142C271.907 351.267 271.58 351.331 271.25 351.33H166.63C165.905 351.33 165.21 351.043 164.696 350.531C164.183 350.019 163.893 349.325 163.89 348.6V345.68C163.887 344.906 163.975 344.134 164.15 343.38C164.303 342.728 164.517 342.092 164.79 341.48L190.24 285.19H249.67L240.54 338C240.477 338.306 240.454 338.618 240.47 338.93C240.494 340.001 240.88 341.032 241.564 341.856C242.249 342.681 243.192 343.249 244.24 343.47C244.567 343.549 244.903 343.586 245.24 343.58H271.24C271.892 343.577 272.52 343.828 272.99 344.28C273.461 344.731 273.737 345.348 273.76 346V346Z" fill="white"/>
<path d="M161.43 341.53L186.88 285.23H190.24L164.8 341.53C164.199 342.845 163.889 344.274 163.89 345.72V348.64C163.893 349.365 164.183 350.059 164.696 350.571C165.21 351.083 165.905 351.37 166.63 351.37H163.27C162.911 351.371 162.555 351.302 162.222 351.165C161.89 351.028 161.588 350.828 161.333 350.574C161.079 350.32 160.877 350.019 160.739 349.687C160.601 349.355 160.53 348.999 160.53 348.64V345.72C160.53 344.275 160.837 342.847 161.43 341.53V341.53Z" fill="#263238"/>
<path opacity="0.3" d="M190.24 285.23H249.66L247.33 298.68H184.16L190.24 285.23Z" fill="black"/>
<path d="M352.73 291.14H99.2101C96.6871 291.094 94.2683 290.126 92.4109 288.418C90.5536 286.71 89.3864 284.38 89.1301 281.87L73.1301 98.67C73.0006 97.4897 73.1241 96.2954 73.4922 95.1666C73.8604 94.0377 74.4648 93.0002 75.2652 92.1232C76.0656 91.2462 77.0436 90.5497 78.1342 90.0801C79.2248 89.6106 80.4029 89.3787 81.5901 89.4H335.08C337.604 89.4435 340.024 90.4112 341.881 92.1197C343.739 93.8282 344.906 96.1589 345.16 98.67L361.16 281.87C361.289 283.048 361.166 284.24 360.8 285.366C360.434 286.493 359.832 287.529 359.035 288.405C358.238 289.282 357.263 289.979 356.176 290.451C355.089 290.922 353.915 291.157 352.73 291.14V291.14Z" fill="#263238"/>
<path d="M359.46 262.06L361.19 281.87C361.32 283.05 361.196 284.245 360.828 285.373C360.46 286.502 359.855 287.54 359.055 288.417C358.255 289.294 357.276 289.99 356.186 290.46C355.095 290.929 353.917 291.161 352.73 291.14H99.2101C96.6871 291.094 94.2683 290.126 92.4109 288.418C90.5536 286.71 89.3864 284.38 89.1301 281.87L87.4001 262.06H359.46Z" fill="#FF4242"/>
<path opacity="0.6" d="M359.46 262.06L361.19 281.87C361.32 283.05 361.196 284.245 360.828 285.373C360.46 286.502 359.855 287.54 359.055 288.417C358.255 289.294 357.276 289.99 356.186 290.46C355.095 290.929 353.917 291.161 352.73 291.14H99.2101C96.6871 291.094 94.2683 290.126 92.4109 288.418C90.5536 286.71 89.3864 284.38 89.1301 281.87L87.4001 262.06H359.46Z" fill="white"/>
<path d="M96.3401 256.46H349.53C350.172 256.472 350.809 256.347 351.398 256.095C351.988 255.842 352.518 255.467 352.952 254.994C353.386 254.522 353.714 253.962 353.916 253.353C354.117 252.743 354.187 252.098 354.12 251.46L340.87 100C340.726 98.6441 340.092 97.3874 339.086 96.4665C338.081 95.5457 336.773 95.0241 335.41 95H82.2201C81.5785 94.988 80.9416 95.1125 80.3517 95.3652C79.7619 95.6179 79.2324 95.993 78.7984 96.4658C78.3645 96.9385 78.0359 97.498 77.8345 98.1073C77.633 98.7166 77.5634 99.3617 77.6301 100L90.8801 251.44C91.0192 252.8 91.6515 254.061 92.6576 254.986C93.6636 255.911 94.9736 256.435 96.3401 256.46V256.46Z" fill="#FF4242"/>
<path opacity="0.6" d="M96.3401 256.46H349.53C350.172 256.472 350.809 256.347 351.398 256.095C351.988 255.842 352.518 255.467 352.952 254.994C353.386 254.522 353.714 253.962 353.916 253.353C354.117 252.743 354.187 252.098 354.12 251.46L340.87 100C340.726 98.6441 340.092 97.3874 339.086 96.4665C338.081 95.5457 336.773 95.0241 335.41 95H82.2201C81.5785 94.988 80.9416 95.1125 80.3517 95.3652C79.7619 95.6179 79.2324 95.993 78.7984 96.4658C78.3645 96.9385 78.0359 97.498 77.8345 98.1073C77.633 98.7166 77.5634 99.3617 77.6301 100L90.8801 251.44C91.0192 252.8 91.6515 254.061 92.6576 254.986C93.6636 255.911 94.9736 256.435 96.3401 256.46V256.46Z" fill="white"/>
<path d="M76 89.4H81.61C80.4228 89.3787 79.2448 89.6106 78.1542 90.0801C77.0636 90.5497 76.0856 91.2461 75.2852 92.1232C74.4848 93.0002 73.8804 94.0377 73.5122 95.1665C73.1441 96.2954 73.0206 97.4897 73.15 98.67L89.15 281.87C89.4064 284.38 90.5735 286.71 92.4309 288.418C94.2882 290.126 96.7071 291.094 99.23 291.14H93.6C91.0771 291.094 88.6582 290.126 86.8009 288.418C84.9435 286.71 83.7763 284.38 83.52 281.87L67.52 98.67C67.3887 97.4877 67.5115 96.291 67.8802 95.16C68.2489 94.029 68.855 92.9898 69.6579 92.1121C70.4609 91.2343 71.4421 90.5383 72.5359 90.0706C73.6296 89.6028 74.8107 89.3742 76 89.4V89.4Z" fill="#FF4242"/>
<path opacity="0.3" d="M76 89.4H81.61C80.4228 89.3787 79.2448 89.6106 78.1542 90.0801C77.0636 90.5497 76.0856 91.2461 75.2852 92.1232C74.4848 93.0002 73.8804 94.0377 73.5122 95.1665C73.1441 96.2954 73.0206 97.4897 73.15 98.67L89.15 281.87C89.4064 284.38 90.5735 286.71 92.4309 288.418C94.2882 290.126 96.7071 291.094 99.23 291.14H93.6C91.0771 291.094 88.6582 290.126 86.8009 288.418C84.9435 286.71 83.7763 284.38 83.52 281.87L67.52 98.67C67.3887 97.4877 67.5115 96.291 67.8802 95.16C68.2489 94.029 68.855 92.9898 69.6579 92.1121C70.4609 91.2343 71.4421 90.5383 72.5359 90.0706C73.6296 89.6028 74.8107 89.3742 76 89.4V89.4Z" fill="white"/>
<path opacity="0.2" d="M300.31 223.29H159.62L152.34 140.18H293.04L300.31 223.29Z" fill="#263238"/>
<path d="M242.91 172.56C243.157 174.791 242.924 177.049 242.228 179.183C241.532 181.317 240.389 183.278 238.874 184.934C237.36 186.591 235.509 187.905 233.446 188.789C231.382 189.673 229.154 190.106 226.91 190.06C222.151 189.969 217.591 188.139 214.09 184.915C210.589 181.69 208.391 177.295 207.91 172.56C207.663 170.329 207.896 168.071 208.592 165.937C209.288 163.803 210.431 161.842 211.946 160.186C213.46 158.529 215.311 157.215 217.374 156.331C219.438 155.447 221.666 155.014 223.91 155.06C228.668 155.153 233.227 156.984 236.728 160.208C240.228 163.432 242.427 167.826 242.91 172.56V172.56Z" fill="white"/>
<path d="M235.01 173.21L219.7 164.79L221.18 181.62L235.01 173.21Z" fill="#263238"/>
<path d="M297.02 206.98H160.05L159.81 204.28H296.78L297.02 206.98Z" fill="white"/>
<path d="M236.83 206.98H160.05L159.81 204.28H236.59L236.83 206.98Z" fill="#FF4242"/>
<path d="M162.4 216.97H161.08L160.63 211.78H161.95L162.4 216.97Z" fill="white"/>
<path d="M164.71 216.97H163.39L162.94 211.78H164.26L164.71 216.97Z" fill="white"/>
<path d="M176.58 216.97H171.39L170.94 211.78H176.13L176.58 216.97Z" fill="white"/>
<path d="M183.47 214.37L187.74 211.78L188.19 216.97L183.47 214.37Z" fill="white"/>
<path d="M183.7 216.97H182.37L181.92 211.78H183.24L183.7 216.97Z" fill="white"/>
<path d="M198.05 214.37L193.32 211.78L193.78 216.97L198.05 214.37Z" fill="white"/>
<path d="M198.27 216.97H199.6L199.14 211.78H197.82L198.27 216.97Z" fill="white"/>
<path d="M207.7 211.68L205.38 214.81H210.57L207.7 211.68Z" fill="white"/>
<path d="M210.87 217.07L210.75 215.74H205.37L205.48 217.07H210.87Z" fill="white"/>
<path d="M298 217.39H288L287.46 211.26H297.46L298 217.39ZM288.75 216.54H297.07L296.68 212.11H288.37L288.75 216.54Z" fill="white"/>
<path d="M280.6 217.39H278.57L278.41 215.59L279.26 215.52L279.35 216.54H280.6V217.39Z" fill="white"/>
<path d="M285.09 217.39H283.05V216.54H284.16L284.08 215.59L284.93 215.52L285.09 217.39Z" fill="white"/>
<path d="M283.87 213.21L283.78 212.11H282.59V211.26H284.56L284.72 213.14L283.87 213.21Z" fill="white"/>
<path d="M278.2 213.21L278.03 211.26H280.13V212.11H278.96L279.05 213.14L278.2 213.21Z" fill="white"/>
<g opacity="0.1">
<path d="M281.56 204.29L280.94 206.98L279.86 211.68L278.87 216.01L277.2 223.29H281.35L283.98 211.68L285.05 206.98L285.66 204.29L295.03 162.97" fill="white"/>
<path d="M281.35 223.79H277.21C277.133 223.79 277.058 223.774 276.988 223.741C276.919 223.708 276.858 223.66 276.81 223.6C276.764 223.541 276.732 223.473 276.717 223.4C276.701 223.328 276.702 223.252 276.72 223.18L281.07 204.18C281.101 204.047 281.182 203.932 281.298 203.86C281.413 203.788 281.552 203.765 281.685 203.795C281.818 203.826 281.933 203.907 282.005 204.023C282.077 204.138 282.101 204.277 282.07 204.41L277.86 222.8H281L294.59 162.87C294.604 162.804 294.632 162.742 294.67 162.687C294.709 162.632 294.758 162.585 294.814 162.549C294.871 162.512 294.934 162.488 295 162.476C295.067 162.464 295.134 162.466 295.2 162.48C295.266 162.494 295.328 162.522 295.383 162.56C295.438 162.599 295.485 162.648 295.521 162.704C295.558 162.761 295.582 162.824 295.594 162.89C295.606 162.957 295.604 163.024 295.59 163.09L281.84 223.4C281.813 223.51 281.751 223.608 281.662 223.679C281.573 223.75 281.463 223.789 281.35 223.79V223.79Z" fill="#263238"/>
</g>
<path d="M293.04 140.18H152.34L151.69 132.66H292.38L293.04 140.18Z" fill="#FF4242"/>
<path d="M162.31 136.47C162.344 136.766 162.315 137.067 162.223 137.351C162.132 137.635 161.981 137.896 161.78 138.117C161.579 138.338 161.333 138.513 161.059 138.631C160.785 138.749 160.488 138.806 160.19 138.8C159.557 138.788 158.951 138.544 158.486 138.115C158.022 137.685 157.731 137.1 157.67 136.47C157.639 136.175 157.671 135.876 157.764 135.594C157.856 135.312 158.008 135.052 158.208 134.833C158.409 134.614 158.653 134.44 158.926 134.322C159.198 134.204 159.493 134.146 159.79 134.15C160.421 134.161 161.026 134.404 161.491 134.831C161.955 135.259 162.247 135.842 162.31 136.47V136.47Z" fill="white"/>
<path d="M169.27 136.47C169.303 136.766 169.272 137.066 169.18 137.349C169.088 137.633 168.936 137.893 168.736 138.114C168.535 138.334 168.29 138.509 168.017 138.627C167.743 138.746 167.448 138.805 167.15 138.8C166.516 138.791 165.907 138.548 165.44 138.118C164.973 137.688 164.681 137.102 164.62 136.47C164.589 136.175 164.621 135.876 164.714 135.594C164.806 135.312 164.958 135.052 165.158 134.833C165.359 134.614 165.603 134.44 165.876 134.322C166.149 134.204 166.443 134.146 166.74 134.15C167.372 134.163 167.977 134.406 168.442 134.833C168.908 135.26 169.202 135.842 169.27 136.47V136.47Z" fill="white"/>
<path d="M176.22 136.47C176.253 136.766 176.222 137.066 176.13 137.349C176.038 137.633 175.886 137.893 175.686 138.114C175.485 138.334 175.24 138.509 174.967 138.627C174.693 138.746 174.398 138.805 174.1 138.8C173.467 138.786 172.861 138.542 172.395 138.113C171.929 137.684 171.636 137.1 171.57 136.47C171.539 136.175 171.571 135.876 171.664 135.594C171.756 135.312 171.908 135.052 172.108 134.833C172.309 134.614 172.553 134.44 172.826 134.322C173.099 134.204 173.393 134.146 173.69 134.15C174.322 134.163 174.927 134.406 175.392 134.833C175.858 135.26 176.152 135.842 176.22 136.47V136.47Z" fill="white"/>
<g opacity="0.1">
<path d="M186.59 95H176.85L142.53 256.46H152.27L186.59 95Z" fill="white"/>
<path d="M132.69 256.46L167.01 95H130.42L96.1001 256.46H132.69Z" fill="white"/>
</g>
<path opacity="0.2" d="M182 346.06V348.74C182.003 349.438 182.282 350.107 182.777 350.6C183.272 351.093 183.942 351.37 184.64 351.37H271.28C271.611 351.371 271.938 351.307 272.244 351.182C272.549 351.056 272.827 350.872 273.061 350.638C273.296 350.405 273.481 350.128 273.608 349.823C273.735 349.518 273.8 349.19 273.8 348.86V346.05C273.8 345.382 273.535 344.741 273.062 344.268C272.589 343.796 271.948 343.53 271.28 343.53H245.28C244.944 343.531 244.608 343.494 244.28 343.42H184.61C183.915 343.428 183.251 343.71 182.763 344.204C182.274 344.698 182 345.365 182 346.06V346.06Z" fill="white"/>
<path opacity="0.2" d="M164.16 343.42H244.25C243.197 343.204 242.248 342.636 241.561 341.809C240.874 340.982 240.489 339.945 240.47 338.87H166.2L164.16 343.42Z" fill="black"/>
<path d="M332.06 172.36H231.96L231.25 164.32H331.36L332.06 172.36Z" fill="#263238"/>
<path d="M242.61 168.4C242.646 168.716 242.613 169.035 242.516 169.338C242.418 169.64 242.256 169.918 242.042 170.153C241.828 170.387 241.567 170.574 241.275 170.699C240.983 170.825 240.668 170.886 240.35 170.88C239.674 170.869 239.026 170.61 238.529 170.153C238.031 169.696 237.718 169.072 237.65 168.4C237.614 168.084 237.646 167.765 237.744 167.462C237.842 167.16 238.004 166.882 238.218 166.648C238.432 166.413 238.693 166.226 238.985 166.101C239.277 165.975 239.592 165.914 239.91 165.92C240.586 165.931 241.234 166.19 241.731 166.647C242.229 167.104 242.542 167.728 242.61 168.4V168.4Z" fill="white"/>
<path d="M250 168.4C250.036 168.716 250.003 169.035 249.906 169.338C249.808 169.64 249.646 169.918 249.432 170.153C249.218 170.387 248.957 170.574 248.665 170.699C248.373 170.825 248.058 170.886 247.74 170.88C247.064 170.869 246.416 170.61 245.919 170.153C245.421 169.696 245.108 169.072 245.04 168.4C245.004 168.084 245.036 167.765 245.134 167.462C245.232 167.16 245.394 166.882 245.608 166.648C245.822 166.413 246.083 166.226 246.375 166.101C246.667 165.975 246.982 165.914 247.3 165.92C247.976 165.931 248.624 166.19 249.121 166.647C249.619 167.104 249.932 167.728 250 168.4V168.4Z" fill="white"/>
<path d="M257.47 168.4C257.506 168.716 257.473 169.035 257.376 169.338C257.278 169.64 257.116 169.918 256.902 170.153C256.688 170.387 256.427 170.574 256.135 170.699C255.843 170.825 255.528 170.886 255.21 170.88C254.534 170.869 253.886 170.61 253.389 170.153C252.891 169.696 252.578 169.072 252.51 168.4C252.474 168.084 252.506 167.765 252.604 167.462C252.702 167.16 252.864 166.882 253.078 166.648C253.292 166.413 253.553 166.226 253.845 166.101C254.137 165.975 254.452 165.914 254.77 165.92C255.446 165.931 256.094 166.19 256.591 166.647C257.089 167.104 257.402 167.728 257.47 168.4V168.4Z" fill="white"/>
<path opacity="0.2" d="M235.1 271.01L226.34 170.91H326.45L335.21 271.01H235.1Z" fill="black"/>
<path d="M340.12 264.43H240.01L231.25 164.32H331.36L340.12 264.43Z" fill="#FF4242"/>
<path d="M310.68 222.63C312.19 239.9 301.93 246.9 288.53 246.9C275.13 246.9 263.31 236 262.14 222.63C260.97 209.26 270.34 192.13 283.74 192.13C283.74 192.13 309.29 206.83 310.68 222.63Z" fill="#FF4242"/>
<path d="M294.83 225.44C295.13 228.93 292.53 231.26 288.18 231.63L287.86 234.51H285.24L285.56 231.63C283.359 231.475 281.228 230.788 279.35 229.63L280.83 226.38C282.357 227.413 284.116 228.052 285.95 228.24L286.45 223.81C283.95 223.07 281.19 222.1 280.91 218.93C280.6 215.44 283.26 213.08 287.69 212.77L288.01 209.88H290.63L290.31 212.8C292.065 212.929 293.771 213.437 295.31 214.29L294 217.52C292.788 216.767 291.42 216.302 290 216.16L289.49 220.77C291.89 221.48 294.56 222.42 294.83 225.44ZM286.83 220.04L287.25 216.26C285.79 216.55 285.02 217.36 285.08 218.36C285.18 219.17 285.88 219.64 286.86 220L286.83 220.04ZM290.61 226.12C290.54 225.36 289.9 224.89 288.95 224.55L288.56 228.14C290 227.85 290.73 227.12 290.64 226.12H290.61Z" fill="#FF4242"/>
<path d="M308.492 221.472C308.925 212.812 301.248 205.391 291.345 204.896C281.443 204.4 273.064 211.019 272.632 219.679C272.199 228.339 279.875 235.76 289.777 236.256C299.68 236.751 308.059 230.132 308.492 221.472Z" fill="#263238"/>
<path d="M271.28 223.57C275.78 231.33 286.57 234.51 295.39 230.67C304.21 226.83 307.71 217.42 303.21 209.67C298.71 201.92 287.91 198.73 279.09 202.57C270.27 206.41 266.78 215.81 271.28 223.57Z" fill="#FF4242"/>
<path opacity="0.4" d="M271.28 223.57C275.78 231.33 286.57 234.51 295.39 230.67C304.21 226.83 307.71 217.42 303.21 209.67C298.71 201.92 287.91 198.73 279.09 202.57C270.27 206.41 266.78 215.81 271.28 223.57Z" fill="white"/>
<path d="M275.13 221.58C275.34 221.95 275.59 222.31 275.81 222.64C275.81 222.64 275.81 222.7 275.86 222.72C279.62 227.72 287.06 229.58 293.19 226.91C299.32 224.24 302.08 217.91 299.7 212.34C299.7 212.34 299.64 212.34 299.65 212.26C299.47 211.9 299.29 211.52 299.07 211.15C295.7 205.34 287.59 202.96 280.98 205.84C274.37 208.72 271.76 215.77 275.13 221.58Z" fill="#FF4242"/>
<path opacity="0.3" d="M275.81 222.64C275.81 222.64 275.81 222.7 275.86 222.72C279.62 227.72 287.06 229.58 293.19 226.91C299.32 224.24 302.08 217.91 299.7 212.34C299.7 212.34 299.64 212.34 299.65 212.26C295.9 207.26 288.45 205.4 282.28 208.09C276.11 210.78 273.44 217.07 275.81 222.64Z" fill="white"/>
<g opacity="0.4">
<path d="M291.93 219.39C292.33 221.69 290.75 223.23 287.93 223.47L287.88 225.37H286.15L286.2 223.47C284.711 223.365 283.269 222.909 281.99 222.14L282.77 220C283.818 220.674 285.01 221.092 286.25 221.22L286.33 218.3C284.64 217.82 282.76 217.18 282.39 215.08C281.99 212.78 283.6 211.23 286.51 211.02V209.12H288.24V211.04C289.412 211.145 290.552 211.485 291.59 212.04L290.92 214.19C290.082 213.697 289.147 213.39 288.18 213.29L288.11 216.29C289.76 216.78 291.58 217.4 291.93 219.39ZM286.36 215.83L286.43 213.34C285.43 213.53 285.01 214.06 285.11 214.72C285.21 215.38 285.69 215.57 286.36 215.83ZM289.21 219.83C289.12 219.33 288.67 219.02 288.02 218.83V221.2C288.87 221 289.32 220.5 289.21 219.84V219.83Z" fill="white"/>
</g>
<path d="M276.533 185.942C276.625 186.961 276.509 187.828 276.185 188.542C275.865 189.257 275.389 189.803 274.757 190.18C274.128 190.554 273.399 190.741 272.572 190.741C271.738 190.741 270.973 190.553 270.276 190.176C269.579 189.799 269.007 189.253 268.557 188.538C268.108 187.823 267.838 186.958 267.747 185.942C267.655 184.923 267.769 184.056 268.09 183.341C268.41 182.626 268.885 182.082 269.514 181.708C270.143 181.331 270.874 181.142 271.708 181.142C272.535 181.142 273.298 181.331 273.994 181.708C274.694 182.082 275.268 182.626 275.717 183.341C276.169 184.056 276.441 184.923 276.533 185.942ZM274.522 185.942C274.462 185.282 274.313 184.725 274.074 184.272C273.838 183.819 273.53 183.475 273.152 183.241C272.773 183.006 272.345 182.889 271.865 182.889C271.386 182.889 270.978 183.006 270.641 183.241C270.305 183.475 270.058 183.819 269.901 184.272C269.746 184.725 269.698 185.282 269.758 185.942C269.817 186.602 269.965 187.158 270.201 187.612C270.44 188.065 270.749 188.408 271.128 188.643C271.506 188.877 271.935 188.994 272.414 188.994C272.894 188.994 273.302 188.877 273.638 188.643C273.974 188.408 274.22 188.065 274.374 187.612C274.532 187.158 274.581 186.602 274.522 185.942ZM279.973 186.562L280.338 190.614H278.386L277.755 183.606H279.615L279.727 184.842H279.809C279.928 184.435 280.16 184.112 280.505 183.875C280.85 183.635 281.284 183.514 281.806 183.514C282.295 183.514 282.73 183.621 283.113 183.834C283.495 184.047 283.805 184.351 284.042 184.746C284.279 185.139 284.422 185.607 284.471 186.152L284.873 190.614H282.921L282.551 186.498C282.515 186.069 282.375 185.735 282.131 185.495C281.886 185.251 281.568 185.13 281.177 185.13C280.914 185.13 280.687 185.186 280.496 185.298C280.308 185.411 280.167 185.575 280.073 185.791C279.982 186.004 279.949 186.261 279.973 186.562ZM287.521 181.27L288.362 190.614H286.411L285.57 181.27H287.521ZM291.367 193.242C291.119 193.242 290.886 193.222 290.665 193.182C290.448 193.146 290.267 193.099 290.121 193.041L290.43 191.59C290.666 191.66 290.875 191.698 291.059 191.704C291.246 191.71 291.402 191.668 291.528 191.576C291.658 191.485 291.755 191.33 291.821 191.111L291.909 190.814L288.736 183.606H290.788L292.708 188.752H292.781L293.789 183.606H295.855L293.819 191.371C293.721 191.748 293.572 192.077 293.372 192.357C293.174 192.639 292.911 192.857 292.583 193.009C292.255 193.164 291.849 193.242 291.367 193.242Z" fill="white"/>
<path d="M263.811 243.351L264.413 250.039H262.993L262.512 244.693H262.473L261.022 245.653L260.909 244.399L262.477 243.351H263.811ZM268.34 250.875L267.588 242.515H268.126L268.878 250.875H268.34ZM269.263 245.274C269.213 245.011 269.082 244.806 268.87 244.66C268.658 244.515 268.381 244.442 268.04 244.442C267.808 244.442 267.616 244.474 267.462 244.54C267.308 244.603 267.194 244.691 267.118 244.804C267.046 244.917 267.016 245.046 267.029 245.189C267.035 245.309 267.07 245.414 267.132 245.503C267.197 245.592 267.282 245.67 267.386 245.735C267.49 245.798 267.609 245.853 267.742 245.901C267.875 245.947 268.016 245.986 268.166 246.019L268.782 246.163C269.081 246.228 269.357 246.315 269.612 246.424C269.867 246.533 270.091 246.667 270.284 246.826C270.478 246.984 270.633 247.172 270.751 247.387C270.871 247.603 270.945 247.85 270.972 248.129C271.007 248.538 270.934 248.893 270.753 249.193C270.574 249.491 270.298 249.723 269.924 249.889C269.552 250.052 269.092 250.134 268.546 250.134C268.004 250.134 267.524 250.051 267.107 249.886C266.692 249.72 266.357 249.475 266.103 249.151C265.851 248.824 265.697 248.42 265.643 247.939H267.017C267.052 248.163 267.134 248.351 267.261 248.501C267.39 248.649 267.554 248.761 267.754 248.837C267.955 248.911 268.178 248.948 268.423 248.948C268.663 248.948 268.869 248.913 269.04 248.844C269.212 248.774 269.343 248.677 269.43 248.553C269.517 248.429 269.553 248.286 269.539 248.125C269.525 247.975 269.469 247.849 269.37 247.746C269.274 247.644 269.137 247.557 268.96 247.485C268.785 247.413 268.573 247.348 268.323 247.289L267.575 247.106C266.996 246.969 266.53 246.755 266.176 246.463C265.822 246.171 265.624 245.778 265.581 245.284C265.543 244.879 265.619 244.525 265.81 244.223C266.004 243.92 266.285 243.684 266.655 243.514C267.024 243.344 267.454 243.259 267.943 243.259C268.442 243.259 268.884 243.344 269.271 243.514C269.66 243.684 269.972 243.92 270.207 244.223C270.442 244.525 270.581 244.876 270.623 245.274H269.263ZM274.367 243.037L272.924 251.045H271.721L273.164 243.037H274.367ZM275.67 250.039L275.219 245.023H276.55L276.63 245.908H276.689C276.767 245.614 276.921 245.382 277.151 245.212C277.38 245.042 277.666 244.958 278.007 244.958C278.352 244.958 278.654 245.044 278.912 245.216C279.17 245.385 279.352 245.616 279.46 245.908H279.512C279.589 245.621 279.754 245.391 280.007 245.219C280.263 245.045 280.575 244.958 280.945 244.958C281.415 244.958 281.809 245.107 282.129 245.405C282.451 245.701 282.636 246.121 282.685 246.666L282.989 250.039H281.595L281.316 246.94C281.291 246.661 281.198 246.452 281.037 246.313C280.876 246.174 280.684 246.104 280.461 246.104C280.207 246.104 280.017 246.184 279.889 246.346C279.761 246.504 279.709 246.715 279.733 246.976L280.008 250.039H278.654L278.373 246.91C278.351 246.664 278.262 246.469 278.107 246.323C277.954 246.177 277.762 246.104 277.533 246.104C277.378 246.104 277.241 246.143 277.124 246.221C277.008 246.298 276.921 246.405 276.861 246.545C276.801 246.682 276.78 246.843 276.796 247.028L277.067 250.039H275.67ZM286.377 250.137C285.867 250.137 285.417 250.029 285.026 249.814C284.637 249.596 284.325 249.293 284.089 248.906C283.852 248.516 283.711 248.064 283.665 247.551C283.618 247.032 283.678 246.58 283.844 246.192C284.01 245.802 284.268 245.5 284.619 245.284C284.971 245.066 285.401 244.958 285.911 244.958C286.42 244.958 286.869 245.066 287.258 245.284C287.649 245.5 287.963 245.802 288.199 246.192C288.435 246.58 288.576 247.032 288.623 247.551C288.669 248.064 288.609 248.516 288.443 248.906C288.277 249.293 288.018 249.596 287.666 249.814C287.316 250.029 286.886 250.137 286.377 250.137ZM286.286 249.059C286.518 249.059 286.706 248.994 286.849 248.863C286.992 248.731 287.093 248.55 287.151 248.321C287.211 248.093 287.228 247.832 287.202 247.541C287.176 247.249 287.112 246.989 287.011 246.76C286.911 246.532 286.778 246.351 286.611 246.218C286.444 246.085 286.244 246.019 286.013 246.019C285.779 246.019 285.588 246.085 285.44 246.218C285.295 246.351 285.192 246.532 285.132 246.76C285.074 246.989 285.058 247.249 285.084 247.541C285.11 247.832 285.173 248.093 285.272 248.321C285.374 248.55 285.509 248.731 285.678 248.863C285.85 248.994 286.052 249.059 286.286 249.059ZM290.891 247.139L291.152 250.039H289.755L289.303 245.023H290.635L290.714 245.908H290.773C290.859 245.616 291.025 245.385 291.272 245.216C291.519 245.044 291.829 244.958 292.203 244.958C292.552 244.958 292.864 245.034 293.138 245.186C293.412 245.339 293.634 245.556 293.803 245.839C293.973 246.12 294.075 246.455 294.11 246.845L294.398 250.039H293.001L292.736 247.093C292.71 246.786 292.61 246.547 292.435 246.375C292.26 246.201 292.032 246.114 291.753 246.114C291.565 246.114 291.402 246.154 291.265 246.234C291.13 246.315 291.029 246.433 290.962 246.587C290.897 246.74 290.874 246.924 290.891 247.139ZM297.726 245.023L297.82 246.068H294.787L294.693 245.023H297.726ZM295.274 243.821H296.67L297.091 248.498C297.103 248.626 297.132 248.726 297.177 248.798C297.223 248.868 297.282 248.917 297.354 248.945C297.429 248.973 297.514 248.987 297.608 248.987C297.673 248.987 297.738 248.982 297.803 248.971C297.867 248.958 297.917 248.948 297.951 248.942L298.264 249.977C298.196 249.999 298.1 250.024 297.975 250.052C297.851 250.083 297.699 250.101 297.518 250.108C297.183 250.121 296.884 250.076 296.621 249.974C296.36 249.871 296.15 249.712 295.991 249.497C295.832 249.281 295.738 249.009 295.711 248.68L295.274 243.821ZM300.331 247.139L300.592 250.039H299.196L298.594 243.351H299.951L300.181 245.908H300.24C300.327 245.612 300.49 245.38 300.729 245.212C300.967 245.042 301.277 244.958 301.66 244.958C302.01 244.958 302.321 245.034 302.595 245.186C302.871 245.336 303.094 245.553 303.264 245.836C303.435 246.117 303.538 246.453 303.571 246.845L303.858 250.039H302.461L302.196 247.093C302.171 246.784 302.07 246.544 301.895 246.372C301.722 246.2 301.494 246.114 301.21 246.114C301.02 246.114 300.855 246.154 300.716 246.234C300.579 246.315 300.476 246.433 300.406 246.587C300.339 246.74 300.314 246.924 300.331 247.139ZM308.162 243.351L308.455 248.034H307.255L306.702 243.351H308.162ZM308.043 250.124C307.827 250.124 307.634 250.048 307.465 249.895C307.296 249.741 307.203 249.556 307.186 249.34C307.164 249.127 307.224 248.944 307.366 248.792C307.507 248.639 307.686 248.563 307.903 248.563C308.11 248.563 308.3 248.639 308.471 248.792C308.642 248.944 308.738 249.127 308.76 249.34C308.77 249.484 308.744 249.616 308.68 249.735C308.619 249.853 308.532 249.948 308.421 250.019C308.309 250.089 308.183 250.124 308.043 250.124ZM311.155 243.351L311.449 248.034H310.249L309.696 243.351H311.155ZM311.037 250.124C310.82 250.124 310.628 250.048 310.459 249.895C310.29 249.741 310.197 249.556 310.179 249.34C310.158 249.127 310.218 248.944 310.36 248.792C310.501 248.639 310.68 248.563 310.896 248.563C311.104 248.563 311.293 248.639 311.465 248.792C311.636 248.944 311.732 249.127 311.753 249.34C311.764 249.484 311.738 249.616 311.674 249.735C311.612 249.853 311.526 249.948 311.414 250.019C311.303 250.089 311.177 250.124 311.037 250.124ZM314.149 243.351L314.442 248.034H313.242L312.69 243.351H314.149ZM314.03 250.124C313.814 250.124 313.621 250.048 313.452 249.895C313.283 249.741 313.19 249.556 313.173 249.34C313.152 249.127 313.212 248.944 313.353 248.792C313.495 248.639 313.674 248.563 313.89 248.563C314.098 248.563 314.287 248.639 314.458 248.792C314.629 248.944 314.725 249.127 314.747 249.34C314.758 249.484 314.731 249.616 314.668 249.735C314.606 249.853 314.52 249.948 314.408 250.019C314.296 250.089 314.17 250.124 314.03 250.124Z" fill="white"/>
<path d="M332.06 171.81H231.96L231.25 163.77H331.36L332.06 171.81Z" fill="#263238"/>
<path d="M242.61 167.85C242.646 168.166 242.613 168.485 242.516 168.788C242.418 169.09 242.256 169.368 242.042 169.603C241.828 169.837 241.567 170.024 241.275 170.149C240.983 170.275 240.668 170.336 240.35 170.33C239.674 170.319 239.026 170.06 238.529 169.603C238.031 169.146 237.718 168.522 237.65 167.85C237.614 167.534 237.646 167.215 237.744 166.912C237.842 166.61 238.004 166.332 238.218 166.098C238.432 165.863 238.693 165.676 238.985 165.551C239.277 165.425 239.592 165.364 239.91 165.37C240.586 165.381 241.234 165.64 241.731 166.097C242.229 166.554 242.542 167.178 242.61 167.85V167.85Z" fill="white"/>
<path d="M250 167.85C250.036 168.166 250.003 168.485 249.906 168.788C249.808 169.09 249.646 169.368 249.432 169.603C249.218 169.837 248.957 170.024 248.665 170.149C248.373 170.275 248.058 170.336 247.74 170.33C247.064 170.319 246.416 170.06 245.919 169.603C245.421 169.146 245.108 168.522 245.04 167.85C245.004 167.534 245.036 167.215 245.134 166.912C245.232 166.61 245.394 166.332 245.608 166.098C245.822 165.863 246.083 165.676 246.375 165.551C246.667 165.425 246.982 165.364 247.3 165.37C247.976 165.381 248.624 165.64 249.121 166.097C249.619 166.554 249.932 167.178 250 167.85V167.85Z" fill="white"/>
<path d="M257.47 167.85C257.506 168.166 257.473 168.485 257.376 168.788C257.278 169.09 257.116 169.368 256.902 169.603C256.688 169.837 256.427 170.024 256.135 170.149C255.843 170.275 255.528 170.336 255.21 170.33C254.534 170.319 253.886 170.06 253.389 169.603C252.891 169.146 252.578 168.522 252.51 167.85C252.474 167.534 252.506 167.215 252.604 166.912C252.702 166.61 252.864 166.332 253.078 166.098C253.292 165.863 253.553 165.676 253.845 165.551C254.137 165.425 254.452 165.364 254.77 165.37C255.446 165.381 256.094 165.64 256.591 166.097C257.089 166.554 257.402 167.178 257.47 167.85V167.85Z" fill="white"/>
<path opacity="0.2" d="M236.5 151.34L228.31 57.68H321.98L330.17 151.34H236.5Z" fill="black"/>
<path d="M334.77 145.19H241.1L232.91 51.52H326.57L334.77 145.19Z" fill="#FF4242"/>
<path d="M275.19 79.21L270.73 72C270.73 72 273.2 66.71 276.73 66.52C280.26 66.33 284.23 69.45 284.23 69.45L288.57 67.57L286.29 80.3C286.29 80.3 280.52 85.29 275.19 79.21Z" fill="white"/>
<path d="M307.22 106.08C308.63 122.23 299.04 128.78 286.5 128.78C280.321 128.67 274.396 126.299 269.846 122.117C265.297 117.934 262.438 112.228 261.81 106.08C260.71 93.54 269.48 77.54 282.02 77.54C282 77.54 305.93 91.29 307.22 106.08Z" fill="#FF4242"/>
<path d="M307.22 106.08C308.63 122.23 299.04 128.78 286.5 128.78C280.321 128.67 274.396 126.299 269.846 122.117C265.297 117.934 262.438 112.228 261.81 106.08C260.71 93.54 269.48 77.54 282.02 77.54C282 77.54 305.93 91.29 307.22 106.08Z" fill="white"/>
<path d="M293 107.7C294.14 110.97 292.28 113.15 288.3 113.49L288.7 116.19H286.25L285.85 113.49C283.637 113.314 281.486 112.669 279.54 111.6L280.12 108.6C281.726 109.547 283.516 110.141 285.37 110.34L284.75 106.2C282.23 105.51 279.41 104.6 278.37 101.63C277.23 98.37 279.13 96.16 283.2 95.87L282.79 93.17H285.25L285.66 95.89C287.399 96.0447 289.094 96.5194 290.66 97.29L290.23 100.29C288.961 99.5994 287.567 99.1677 286.13 99.02L286.78 103.34C289.29 104 292 104.88 293 107.7ZM284.21 102.7L283.69 99.17C282.38 99.44 281.86 100.17 282.16 101.17C282.45 101.84 283.22 102.28 284.23 102.65L284.21 102.7ZM289.21 108.39C289.024 108.012 288.753 107.683 288.418 107.428C288.083 107.173 287.694 106.999 287.28 106.92L287.79 110.28C289.07 110 289.59 109.27 289.26 108.34L289.21 108.39Z" fill="#FF4242"/>
<path opacity="0.1" d="M283.56 79.76C282.71 76.99 281.95 74.19 281.11 71.42C280.659 71.0388 280.129 70.7622 279.559 70.6101C278.988 70.4579 278.391 70.434 277.81 70.54C277.284 70.6582 276.798 70.914 276.403 71.2812C276.007 71.6483 275.717 72.1138 275.56 72.63C276.327 74.9822 277.371 77.2348 278.67 79.34C278.93 78.9815 279.282 78.6996 279.688 78.5237C280.094 78.3477 280.541 78.2843 280.98 78.34C281.487 78.3783 281.979 78.5249 282.424 78.7698C282.869 79.0148 283.257 79.3525 283.56 79.76V79.76Z" fill="black"/>
<path opacity="0.1" d="M284.67 78.78C285.04 76.65 285.22 74.4 285.6 72.27C285.14 72.51 284.81 72.74 284.36 72.98C284.3 74.61 283.92 78.53 284.04 78.77" fill="black"/>
<path d="M327.23 59.04H233.56L232.91 51.52H326.57L327.23 59.04Z" fill="#263238"/>
<path d="M243.53 55.33C243.564 55.6252 243.535 55.9242 243.444 56.2071C243.353 56.49 243.203 56.7501 243.003 56.97C242.803 57.1898 242.558 57.3642 242.285 57.4815C242.012 57.5988 241.717 57.6563 241.42 57.65C240.787 57.641 240.18 57.3996 239.713 56.9718C239.247 56.544 238.954 55.9597 238.89 55.33C238.857 55.0347 238.888 54.7358 238.979 54.4532C239.071 54.1705 239.221 53.9105 239.421 53.6903C239.62 53.47 239.864 53.2946 240.136 53.1757C240.409 53.0567 240.703 52.9968 241 53C241.634 53.0093 242.243 53.2521 242.71 53.6819C243.177 54.1117 243.469 54.6985 243.53 55.33V55.33Z" fill="white"/>
<path d="M250.49 55.33C250.521 55.6254 250.489 55.924 250.397 56.2062C250.304 56.4883 250.152 56.7476 249.952 56.9668C249.751 57.1861 249.507 57.3604 249.234 57.4781C248.962 57.5959 248.667 57.6545 248.37 57.65C247.737 57.641 247.13 57.3996 246.663 56.9718C246.197 56.544 245.904 55.9597 245.84 55.33C245.807 55.0304 245.839 54.7272 245.933 54.4409C246.027 54.1547 246.182 53.8921 246.387 53.6711C246.592 53.45 246.842 53.2757 247.121 53.1599C247.399 53.0441 247.699 52.9896 248 53C248.626 53.0232 249.223 53.2717 249.68 53.6998C250.138 54.1279 250.425 54.7068 250.49 55.33V55.33Z" fill="white"/>
<path d="M257.44 55.33C257.471 55.6254 257.439 55.924 257.347 56.2062C257.254 56.4883 257.102 56.7476 256.902 56.9668C256.701 57.1861 256.457 57.3604 256.184 57.4781C255.912 57.5959 255.617 57.6545 255.32 57.65C254.688 57.6367 254.083 57.3938 253.618 56.9669C253.152 56.5399 252.858 55.9581 252.79 55.33C252.759 55.0346 252.791 54.736 252.883 54.4538C252.976 54.1717 253.128 53.9124 253.328 53.6932C253.529 53.4739 253.773 53.2996 254.046 53.1819C254.318 53.0641 254.613 53.0055 254.91 53.01C255.542 53.0212 256.148 53.2633 256.615 53.6907C257.081 54.118 257.374 54.7011 257.44 55.33V55.33Z" fill="white"/>
<g opacity="0.2">
<path d="M210.9 291.51H105.25L91.47 134.04H197.12L210.9 291.51Z" fill="black"/>
</g>
<path d="M217.44 283.16H111.79L98.02 125.69H203.66L217.44 283.16Z" fill="#FF4242"/>
<g opacity="0.1">
<path d="M217.44 283.16H111.79L98.02 125.69H203.66L217.44 283.16Z" fill="white"/>
</g>
<path d="M155.29 170.15L166.43 157.56L172.23 174.59L188.7 169.82L185.41 186.73L202.8 191.05L191.3 203.31L204.94 215.56L188.31 219.88L194.56 236.79L177.26 232.02L174.43 249.05L161.09 236.46L149.95 249.05L144.15 232.02L127.68 236.79L130.97 219.88L113.58 215.56L125.09 203.31L111.44 191.05L128.07 186.73L121.82 169.82L139.13 174.59L141.95 157.56L155.29 170.15Z" fill="#F5F5F5"/>
<path d="M146.4 194.28C146.89 194.72 147.266 195.271 147.498 195.888C147.729 196.504 147.809 197.167 147.73 197.82C147.668 198.759 147.354 199.665 146.82 200.44C146.233 201.267 145.43 201.917 144.5 202.32C143.344 202.825 142.091 203.068 140.83 203.03C139.735 203.035 138.644 202.887 137.59 202.59C136.639 202.349 135.743 201.928 134.95 201.35L136.59 198.56C137.188 199.028 137.865 199.384 138.59 199.61C139.367 199.87 140.181 200.002 141 200C141.77 200.036 142.534 199.848 143.2 199.46C143.459 199.301 143.675 199.081 143.829 198.82C143.984 198.558 144.074 198.263 144.09 197.96C144.131 197.664 144.086 197.362 143.96 197.091C143.834 196.82 143.633 196.59 143.38 196.43C142.505 196.013 141.536 195.833 140.57 195.91H136.57L138 187.07H147.59L147.38 189.99H140.82L140.37 192.99H141.65C143.823 192.997 145.407 193.427 146.4 194.28Z" fill="#FF4242"/>
<path d="M152.16 202.07C151.16 201.384 150.395 200.406 149.97 199.27C149.458 197.877 149.27 196.386 149.42 194.91C149.494 193.387 149.893 191.897 150.59 190.54C151.188 189.392 152.082 188.425 153.18 187.74C154.248 187.084 155.477 186.737 156.73 186.74C157.941 186.725 159.129 187.073 160.14 187.74C161.14 188.427 161.905 189.404 162.33 190.54C162.845 191.935 163.037 193.43 162.89 194.91C162.813 196.431 162.411 197.918 161.71 199.27C161.115 200.42 160.22 201.388 159.12 202.07C158.053 202.727 156.823 203.074 155.57 203.07C154.359 203.084 153.172 202.736 152.16 202.07V202.07ZM158.16 198.72C158.859 197.571 159.236 196.255 159.25 194.91C159.443 193.61 159.252 192.283 158.7 191.09C158.489 190.702 158.174 190.381 157.791 190.162C157.408 189.943 156.971 189.835 156.53 189.85C156.071 189.849 155.619 189.962 155.214 190.178C154.809 190.395 154.464 190.708 154.21 191.09C153.5 192.238 153.123 193.56 153.12 194.91C152.928 196.206 153.119 197.531 153.67 198.72C153.874 199.107 154.183 199.428 154.562 199.647C154.94 199.867 155.373 199.975 155.81 199.96C156.271 199.962 156.724 199.849 157.131 199.633C157.537 199.417 157.884 199.103 158.14 198.72H158.16Z" fill="#FF4242"/>
<path d="M165.52 194.36C165.173 193.917 164.917 193.41 164.767 192.867C164.618 192.325 164.578 191.758 164.65 191.2C164.685 190.025 165.152 188.904 165.96 188.05C166.338 187.664 166.792 187.361 167.292 187.158C167.793 186.955 168.33 186.857 168.87 186.87C169.383 186.846 169.896 186.939 170.367 187.144C170.839 187.348 171.257 187.658 171.59 188.05C171.935 188.492 172.187 188.998 172.333 189.539C172.479 190.08 172.516 190.645 172.44 191.2C172.411 192.378 171.948 193.503 171.14 194.36C170.764 194.743 170.314 195.044 169.817 195.246C169.32 195.447 168.786 195.544 168.25 195.53C167.736 195.554 167.224 195.46 166.751 195.258C166.278 195.055 165.857 194.748 165.52 194.36V194.36ZM169.63 193.07C169.993 192.513 170.191 191.865 170.2 191.2C170.291 190.563 170.183 189.913 169.89 189.34C169.773 189.141 169.604 188.977 169.402 188.867C169.199 188.756 168.971 188.702 168.74 188.71C168.497 188.708 168.257 188.766 168.041 188.877C167.825 188.989 167.639 189.151 167.5 189.35C167.13 189.897 166.929 190.54 166.92 191.2C166.826 191.835 166.938 192.483 167.24 193.05C167.354 193.25 167.521 193.415 167.721 193.528C167.922 193.641 168.15 193.697 168.38 193.69C168.623 193.694 168.863 193.64 169.08 193.532C169.298 193.424 169.486 193.266 169.63 193.07V193.07ZM178.22 187.07H180.89L169 202.76H166.33L178.22 187.07ZM176.42 202.44C175.848 202.076 175.401 201.546 175.14 200.92C174.85 200.194 174.736 199.409 174.81 198.63C174.856 197.827 175.082 197.044 175.47 196.34C175.821 195.717 176.335 195.202 176.957 194.849C177.579 194.497 178.285 194.321 179 194.34C179.516 194.315 180.032 194.409 180.506 194.613C180.981 194.818 181.403 195.128 181.74 195.52C182.088 195.96 182.344 196.466 182.492 197.007C182.64 197.548 182.677 198.114 182.6 198.67C182.569 199.846 182.103 200.969 181.29 201.82C180.914 202.206 180.462 202.51 179.963 202.713C179.464 202.916 178.929 203.014 178.39 203C177.691 203 177.007 202.798 176.42 202.42V202.44ZM179.77 200.44C180.132 199.89 180.33 199.248 180.34 198.59C180.425 197.956 180.317 197.312 180.03 196.74C179.914 196.537 179.745 196.37 179.54 196.257C179.335 196.144 179.104 196.09 178.87 196.1C178.63 196.1 178.393 196.156 178.179 196.266C177.965 196.376 177.78 196.535 177.64 196.73C177.269 197.28 177.067 197.927 177.06 198.59C176.964 199.228 177.076 199.881 177.38 200.45C177.495 200.648 177.662 200.811 177.863 200.922C178.064 201.033 178.291 201.088 178.52 201.08C178.763 201.087 179.004 201.033 179.222 200.925C179.44 200.817 179.628 200.658 179.77 200.46V200.44Z" fill="#FF4242"/>
<path d="M138.43 225.17C137.207 224.51 136.208 223.5 135.56 222.27C134.893 220.987 134.608 219.54 134.74 218.1C134.832 216.613 135.319 215.177 136.15 213.94C136.975 212.704 138.104 211.701 139.43 211.03C140.821 210.34 142.358 209.997 143.91 210.03C145.416 209.983 146.908 210.327 148.24 211.03C149.458 211.702 150.455 212.712 151.11 213.94C151.781 215.218 152.069 216.662 151.94 218.1C151.843 219.591 151.353 221.03 150.52 222.27C149.688 223.497 148.559 224.494 147.24 225.17C145.856 225.886 144.318 226.25 142.76 226.23C141.249 226.262 139.756 225.896 138.43 225.17V225.17ZM145.54 222.49C146.316 222.073 146.968 221.459 147.43 220.71C147.92 219.924 148.202 219.025 148.25 218.1C148.336 217.209 148.18 216.311 147.8 215.5C147.443 214.754 146.872 214.131 146.16 213.71C145.409 213.278 144.556 213.057 143.69 213.07C142.8 213.065 141.922 213.285 141.14 213.71C140.367 214.135 139.716 214.751 139.25 215.5C138.757 216.282 138.471 217.177 138.42 218.1C138.336 218.996 138.495 219.897 138.88 220.71C139.231 221.455 139.799 222.075 140.51 222.49C141.259 222.927 142.114 223.148 142.98 223.13C143.874 223.14 144.756 222.92 145.54 222.49Z" fill="#FF4242"/>
<path d="M158.66 213.16L158.37 217.32H165.64L165.43 220.24H158.16L157.75 225.96H154.12L155.23 210.24H167.11L166.9 213.16H158.66Z" fill="#FF4242"/>
<path d="M173 213.16L172.7 217.32H180L179.79 220.24H172.52L172.1 226H168.46L169.58 210.28H181.45L181.25 213.2L173 213.16Z" fill="#FF4242"/>
<path d="M204.59 136.23H98.92L98 125.69H203.66L204.59 136.23Z" fill="#263238"/>
<path d="M112.89 131C112.936 131.417 112.892 131.839 112.761 132.237C112.63 132.635 112.415 133.001 112.131 133.309C111.846 133.617 111.499 133.86 111.113 134.023C110.726 134.185 110.309 134.263 109.89 134.25C109.006 134.233 108.159 133.893 107.509 133.294C106.859 132.695 106.45 131.879 106.36 131C106.314 130.583 106.358 130.161 106.489 129.762C106.62 129.363 106.835 128.997 107.119 128.688C107.403 128.379 107.75 128.135 108.137 127.971C108.523 127.808 108.94 127.729 109.36 127.74C110.245 127.758 111.093 128.099 111.744 128.7C112.394 129.301 112.802 130.119 112.89 131V131Z" fill="white"/>
<path d="M122.64 131C122.686 131.417 122.642 131.839 122.511 132.237C122.38 132.635 122.165 133.001 121.881 133.309C121.596 133.617 121.249 133.86 120.863 134.023C120.476 134.185 120.059 134.263 119.64 134.25C118.755 134.233 117.907 133.893 117.255 133.295C116.603 132.696 116.193 131.88 116.1 131C116.054 130.583 116.098 130.161 116.229 129.762C116.36 129.363 116.575 128.997 116.859 128.688C117.143 128.379 117.49 128.135 117.877 127.971C118.263 127.808 118.68 127.729 119.1 127.74C119.986 127.757 120.836 128.099 121.488 128.699C122.14 129.3 122.55 130.118 122.64 131V131Z" fill="white"/>
<path d="M132.39 131C132.436 131.417 132.392 131.839 132.261 132.237C132.13 132.635 131.915 133.001 131.631 133.309C131.346 133.617 130.999 133.86 130.613 134.023C130.226 134.185 129.809 134.263 129.39 134.25C128.505 134.235 127.655 133.896 127.003 133.297C126.351 132.698 125.94 131.881 125.85 131C125.804 130.583 125.848 130.161 125.979 129.762C126.11 129.363 126.325 128.997 126.609 128.688C126.893 128.379 127.24 128.135 127.627 127.971C128.013 127.808 128.43 127.729 128.85 127.74C129.736 127.757 130.586 128.099 131.238 128.699C131.89 129.3 132.3 130.118 132.39 131V131Z" fill="white"/>
<path opacity="0.2" d="M240.86 113.02H89.87L87.81 89.4H238.8L240.86 113.02Z" fill="black"/>
<path d="M245.96 106.9H94.96L87.25 18.69H238.25L245.96 106.9Z" fill="#FF4242"/>
<path opacity="0.1" d="M245.96 106.9H94.96L87.25 18.69H238.25L245.96 106.9Z" fill="white"/>
<path d="M238.86 25.75H87.87L87.25 18.69H238.25L238.86 25.75Z" fill="#263238"/>
<path d="M97.25 22.27C97.275 22.5474 97.2419 22.8269 97.1527 23.0907C97.0635 23.3546 96.9201 23.5968 96.7318 23.8021C96.5436 24.0073 96.3145 24.1709 96.0593 24.2825C95.8041 24.3941 95.5285 24.4511 95.25 24.45C94.6563 24.4406 94.0868 24.2134 93.6498 23.8114C93.2128 23.4094 92.9388 22.8608 92.88 22.27C92.8549 21.9926 92.888 21.7131 92.9773 21.4492C93.0665 21.1854 93.2098 20.9431 93.3981 20.7379C93.5864 20.5327 93.8155 20.3691 94.0706 20.2575C94.3258 20.1459 94.6015 20.0889 94.88 20.09C95.473 20.1015 96.0414 20.3295 96.4779 20.7311C96.9145 21.1326 97.1891 21.68 97.25 22.27V22.27Z" fill="white"/>
<path d="M103.78 22.27C103.805 22.5474 103.772 22.8269 103.683 23.0907C103.593 23.3546 103.45 23.5968 103.262 23.8021C103.074 24.0073 102.845 24.1709 102.589 24.2825C102.334 24.3941 102.059 24.4511 101.78 24.45C101.186 24.4406 100.617 24.2134 100.18 23.8114C99.7428 23.4094 99.4688 22.8608 99.41 22.27C99.3849 21.9926 99.4181 21.7131 99.5073 21.4492C99.5965 21.1854 99.7399 20.9431 99.9281 20.7379C100.116 20.5327 100.345 20.3691 100.601 20.2575C100.856 20.1459 101.132 20.0889 101.41 20.09C102.004 20.0971 102.575 20.3237 103.013 20.7261C103.45 21.1285 103.723 21.6783 103.78 22.27V22.27Z" fill="white"/>
<path d="M110.32 22.27C110.345 22.5474 110.312 22.8269 110.223 23.0907C110.133 23.3546 109.99 23.5968 109.802 23.8021C109.614 24.0073 109.385 24.1709 109.129 24.2825C108.874 24.3941 108.599 24.4511 108.32 24.45C107.734 24.4307 107.176 24.1988 106.749 23.7976C106.322 23.3963 106.056 22.8533 106 22.27C105.975 21.9926 106.008 21.7131 106.097 21.4492C106.187 21.1854 106.33 20.9431 106.518 20.7379C106.706 20.5327 106.935 20.3691 107.191 20.2575C107.446 20.1459 107.721 20.0889 108 20.09C108.585 20.1113 109.142 20.344 109.569 20.7448C109.996 21.1456 110.262 21.6875 110.32 22.27V22.27Z" fill="white"/>
<path d="M197.44 38.89L203.49 32.05L206.64 41.3L215.59 38.71L213.8 47.89L223.25 50.24L217 56.9L224.41 63.56L215.38 65.9L218.77 75.09L209.37 72.5L207.84 81.75L200.59 74.91L194.54 81.75L191.39 72.5L182.44 75.09L184.23 65.9L174.78 63.56L181.03 56.9L173.62 50.24L182.65 47.89L179.26 38.71L188.66 41.3L190.19 32.05L197.44 38.89Z" fill="#F5F5F5"/>
<path d="M193.14 57.1H194.74L194.97 59.75C194.203 60.2878 193.287 60.5712 192.35 60.56C191.41 60.6001 190.491 60.278 189.783 59.6602C189.074 59.0425 188.629 58.1761 188.54 57.24C188.489 56.7955 188.537 56.3451 188.683 55.9219C188.828 55.4986 189.066 55.1133 189.38 54.794C189.693 54.4747 190.074 54.2296 190.495 54.0767C190.915 53.9237 191.365 53.8668 191.81 53.91C192.347 53.8889 192.883 53.9823 193.381 54.1841C193.879 54.3858 194.329 54.6912 194.7 55.08L193.64 56.08C193.435 55.8568 193.187 55.6784 192.909 55.5562C192.632 55.434 192.333 55.3706 192.03 55.37C191.791 55.3493 191.551 55.3839 191.328 55.4711C191.105 55.5582 190.905 55.6956 190.743 55.8726C190.582 56.0496 190.463 56.2614 190.397 56.4916C190.33 56.7218 190.318 56.9642 190.36 57.2C190.386 57.7058 190.611 58.1809 190.985 58.5218C191.36 58.8627 191.854 59.0418 192.36 59.02C192.705 59.0322 193.049 58.9601 193.36 58.81L193.14 57.1Z" fill="#FF4242"/>
<path d="M201.19 59L201.32 60.39H196.18L195.62 54H200.62L200.74 55.4H197.51L197.61 56.47H200.45L200.57 57.83H197.73L197.83 59H201.19Z" fill="#FF4242"/>
<path d="M203.25 55.47H201.25L201.12 54.04H206.85L206.97 55.47H205.02L205.45 60.47H203.64L203.25 55.47Z" fill="#FF4242"/>
<path d="M202.45 67.38L202.57 68.81H197.57L197.47 67.68L199.66 65.44C200.13 64.97 200.18 64.67 200.16 64.44C200.14 64.21 199.83 63.78 199.28 63.78C199.058 63.7705 198.839 63.8236 198.646 63.9332C198.453 64.0429 198.295 64.2047 198.19 64.4L196.78 63.65C197.033 63.2097 197.406 62.8507 197.856 62.6151C198.306 62.3796 198.814 62.2772 199.32 62.32C200.79 62.32 201.87 63.08 201.97 64.26C201.994 64.6424 201.923 65.0247 201.764 65.3734C201.606 65.7222 201.364 66.0266 201.06 66.26L200 67.38H202.45Z" fill="#FF4242"/>
<path d="M193.31 50.16C193.39 51.02 192.73 51.52 191.4 51.52H188.74L188.31 46.59H190.83C192.13 46.59 192.83 47.11 192.83 47.87C192.868 48.0865 192.834 48.3097 192.733 48.505C192.632 48.7002 192.469 48.8566 192.27 48.95C192.549 49.0164 192.799 49.1692 192.986 49.3865C193.173 49.6038 193.286 49.8745 193.31 50.16ZM189.78 47.59L189.86 48.59H190.86C191.327 48.59 191.547 48.43 191.52 48.11C191.52 47.8 191.24 47.64 190.78 47.64L189.78 47.59ZM191.89 50.01C191.89 49.67 191.6 49.51 191.12 49.51H190L190.08 50.51H191.25C191.68 50.51 191.92 50.35 191.89 50V50.01Z" fill="#FF4242"/>
<path d="M193.92 49.32L193.68 46.59H195.08L195.31 49.28C195.38 50.12 195.77 50.46 196.31 50.46C196.85 50.46 197.21 50.12 197.14 49.28L196.9 46.59H198.27L198.51 49.32C198.575 49.6185 198.568 49.9284 198.488 50.2234C198.408 50.5184 198.258 50.7898 198.051 51.0145C197.844 51.2393 197.586 51.4108 197.299 51.5144C197.011 51.6181 196.703 51.6509 196.4 51.61C196.085 51.6318 195.768 51.589 195.47 51.4841C195.172 51.3792 194.898 51.2145 194.666 51C194.434 50.7856 194.248 50.5259 194.119 50.237C193.991 49.9481 193.923 49.6361 193.92 49.32Z" fill="#FF4242"/>
<path d="M202.1 49.75L202.26 51.52H200.86L200.71 49.73L198.55 46.59H200L201.34 48.59L202.34 46.59H203.69L202.1 49.75Z" fill="#FF4242"/>
<path d="M208 46.59L208.43 51.52H207L206.67 47.66H205.75L205.66 46.59H208Z" fill="#FF4242"/>
<path d="M143.13 63.4L142.13 61.16C130.76 61.68 129.13 57.38 128.87 56.01C128.43 53.47 130.52 51.16 133.53 50.86C137.68 50.43 140.8 54.18 142.43 56.65C143.53 55.2761 144.903 54.1455 146.463 53.3296C148.022 52.5137 149.734 52.0303 151.49 51.91C152.587 51.8316 153.679 52.127 154.586 52.748C155.494 53.369 156.165 54.2791 156.49 55.33C156.75 55.9324 156.841 56.5943 156.752 57.2445C156.664 57.8946 156.401 58.5084 155.99 59.02C153.6 62.02 145.89 61.43 143.56 61.19L143.13 63.4ZM144.13 58.85C147.63 59.16 152.65 58.93 153.93 57.33C154.13 57.08 154.34 56.82 154.07 56C153.938 55.4957 153.623 55.0583 153.187 54.7721C152.752 54.4859 152.225 54.3711 151.71 54.45V54.45C150.192 54.5744 148.721 55.0334 147.401 55.7942C146.082 56.555 144.948 57.5986 144.08 58.85H144.13ZM134.4 53.37C134.27 53.3601 134.14 53.3601 134.01 53.37C132.3 53.54 131.21 54.78 131.38 55.78C131.55 56.78 133.85 58.78 140.89 58.63C139.82 56.89 137.38 53.37 134.35 53.37H134.4Z" fill="#263238"/>
<path d="M170.33 93.87H120.77L117.79 59.82H167.35L170.33 93.87Z" fill="#FF4242"/>
<path opacity="0.1" d="M170.33 93.87H120.77L117.79 59.82H167.35L170.33 93.87Z" fill="white"/>
<path opacity="0.2" d="M170.33 93.87H120.77L118.82 71.59H168.38L170.33 93.87Z" fill="black"/>
<path d="M154.84 59.82H150.82L153.8 93.87H157.82L154.84 59.82Z" fill="#263238"/>
<path d="M130.68 93.87H127.73L124.75 59.82H127.71L130.68 93.87Z" fill="#263238"/>
<path opacity="0.2" d="M140.46 93.87H120.77L117.79 59.82H137.48L140.46 93.87Z" fill="black"/>
<path d="M184.61 71.76C183.06 71.93 177.92 72.32 175.94 70.29C175.616 69.971 175.376 69.5766 175.241 69.142C175.107 68.7075 175.082 68.2463 175.17 67.8C175.213 67.4501 175.325 67.1121 175.5 66.8057C175.674 66.4993 175.908 66.2305 176.187 66.0148C176.465 65.7991 176.784 65.6408 177.125 65.549C177.465 65.4572 177.82 65.4338 178.17 65.48C180.717 65.6983 183.096 66.8399 184.86 68.69C185.67 67.01 187.34 64.48 190.19 64.77C192.27 64.97 193.96 66.54 193.96 68.26C193.96 69.18 193.35 72.09 185.6 71.74L185.15 73.26L184.61 71.76ZM178.29 67.17C177.44 67.17 177 67.45 176.88 68.23C176.83 68.3897 176.827 68.5604 176.871 68.7218C176.915 68.8832 177.005 69.0284 177.13 69.14C178.18 70.22 181.61 70.37 183.94 70.14C182.504 68.4659 180.483 67.4035 178.29 67.17V67.17ZM186.11 70.04C190.89 70.16 192.2 68.87 192.2 68.11C192.2 67.35 191.32 66.6 190.14 66.48H189.87C187.82 66.47 186.59 68.85 186.11 70V70.04Z" fill="#263238"/>
<path d="M170.33 93.87H203.85L201.84 70.84H168.31L170.33 93.87Z" fill="#FF4242"/>
<path opacity="0.6" d="M170.33 93.87H203.85L201.84 70.84H168.31L170.33 93.87Z" fill="white"/>
<path opacity="0.1" d="M170.33 93.87H203.85L202.54 78.79H169.01L170.33 93.87Z" fill="black"/>
<path opacity="0.2" d="M190.53 93.87H203.85L201.84 70.84H188.52L190.53 93.87Z" fill="white"/>
<path d="M176.77 70.84H179.5L181.51 93.87H178.79L176.77 70.84Z" fill="#263238"/>
<path d="M197.15 93.87H199.15L197.13 70.84H195.13L197.15 93.87Z" fill="#263238"/>
<path d="M348.3 339.71L341.09 332.63L332.08 352.55L337.36 355.98L348.3 339.71Z" fill="#FF8B7B"/>
<path opacity="0.2" d="M346.85 341.84L343.31 347.11L336.11 343.61L339.81 335.43L346.85 341.84Z" fill="black"/>
<path d="M386 360.6H385.85C384.47 360.497 383.127 360.109 381.904 359.46C380.682 358.811 379.608 357.915 378.75 356.83C371.44 347.51 367.19 333.4 362.54 324.14C362.004 323.041 361.386 321.985 360.69 320.98C360.515 321.712 360.298 322.433 360.04 323.14C357.154 331.193 352.682 338.585 346.89 344.88L337.63 338.71C337.63 338.71 349.2 310.23 350.45 307.43C360.57 284.64 384.96 312.32 394.01 328.58C395.236 330.726 396.318 332.951 397.25 335.24L418.89 335.95C420.45 348.37 414.9 362.87 386 360.6Z" fill="#FF4242"/>
<g opacity="0.4">
<path d="M386 360.6C384.585 360.496 383.208 360.099 381.955 359.435C380.701 358.77 379.6 357.853 378.72 356.74C371.46 347.41 367.22 333.36 362.58 324.13C362.044 323.031 361.426 321.975 360.73 320.97C360.555 321.702 360.338 322.423 360.08 323.13C357.194 331.183 352.722 338.575 346.93 344.87L337.67 338.7C337.67 338.7 349.24 310.22 350.49 307.42C360.61 284.63 385 312.31 394.05 328.57C395.276 330.716 396.358 332.941 397.29 335.23L418.93 335.94C420.45 348.37 414.9 362.87 386 360.6Z" fill="black"/>
</g>
<path d="M351.93 341.94L338.42 334.43L336.71 339.13L348.36 346.13L351.93 341.94Z" fill="#263238"/>
<path d="M333 347C329.87 348 326.3 348.94 318.73 347.63C317.05 347.32 315.62 351.28 319.34 352.79C323.06 354.3 338.87 359.09 338.93 359.1C339.321 359.209 339.739 359.16 340.095 358.963C340.45 358.767 340.714 358.439 340.83 358.05L342.9 349.71C342.941 349.524 342.912 349.329 342.821 349.161C342.729 348.994 342.579 348.866 342.4 348.8L334.66 347.05C334.129 346.844 333.543 346.826 333 347V347Z" fill="#263238"/>
<path d="M332.7 347.39C332.726 347.352 332.74 347.306 332.74 347.26C332.74 347.214 332.726 347.168 332.7 347.13C332.681 347.086 332.648 347.05 332.607 347.027C332.565 347.003 332.517 346.994 332.47 347C331.99 347.06 327.74 347.58 327.13 348.77C327.069 348.878 327.036 349.001 327.036 349.125C327.036 349.249 327.069 349.372 327.13 349.48C327.218 349.666 327.35 349.826 327.517 349.947C327.683 350.067 327.876 350.144 328.08 350.17C328.906 350.17 329.706 349.879 330.34 349.35C331.184 348.769 331.973 348.113 332.7 347.39V347.39ZM327.86 348.65C329.121 348.057 330.474 347.681 331.86 347.54C330.3 349.02 328.95 349.83 328.17 349.72C328.038 349.702 327.912 349.651 327.803 349.573C327.695 349.494 327.608 349.39 327.55 349.27C327.525 349.226 327.513 349.176 327.513 349.125C327.513 349.074 327.525 349.024 327.55 348.98C327.627 348.853 327.733 348.747 327.86 348.67V348.65Z" fill="#FF4242"/>
<path d="M332.77 347.28C332.789 347.247 332.799 347.209 332.799 347.17C332.799 347.131 332.789 347.093 332.77 347.06C332.7 346.98 331.07 344.96 329.51 344.81C329.287 344.786 329.061 344.807 328.846 344.873C328.632 344.938 328.432 345.046 328.26 345.19C327.77 345.59 327.76 345.99 327.91 346.19C328.37 347.19 331.4 347.63 332.63 347.41L332.71 347.36C332.736 347.339 332.757 347.311 332.77 347.28V347.28ZM328.58 345.45C328.824 345.279 329.124 345.204 329.42 345.24C330.469 345.535 331.399 346.15 332.08 347C330.73 347.06 328.55 346.58 328.27 346C328.27 345.95 328.18 345.8 328.5 345.53L328.61 345.46L328.58 345.45Z" fill="#FF4242"/>
<path d="M389.21 361C387.92 360.9 386.57 360.77 385.21 360.62C355.68 357.37 306.84 342.89 300.91 326.18C300.91 326.18 293.91 306.18 319.14 310.99C326.79 312.45 340.26 315.35 352.38 318.8C357.64 320.27 376.67 328.15 377.66 329.92L394.59 330.67L419.33 331.78C419.904 333.651 420.316 335.568 420.56 337.51C422 349.3 416.72 363.12 389.21 361Z" fill="#FF4242"/>
<g opacity="0.3">
<path d="M389.21 361C387.92 360.9 386.57 360.77 385.21 360.62C355.68 357.37 306.84 342.89 300.91 326.18C300.91 326.18 293.91 306.18 319.14 310.99C326.79 312.45 340.26 315.35 352.38 318.8C357.64 320.27 376.67 328.15 377.66 329.92L394.59 330.67L419.33 331.78C419.904 333.651 420.316 335.568 420.56 337.51C422 349.3 416.72 363.12 389.21 361Z" fill="black"/>
</g>
<path d="M406.13 227C414.22 260.36 408.34 257.61 406.33 258.65C407.21 260.24 409.76 261.1 411.21 260C411.899 259.402 412.439 258.651 412.786 257.807C413.134 256.963 413.279 256.05 413.21 255.14C413.16 253.33 412.03 234.23 409.21 227.14C409.038 226.496 408.627 225.942 408.06 225.59C407.47 225.29 406 226.38 406.13 227Z" fill="#263238"/>
<path d="M398.84 256.36C400.31 260.61 400.69 263.13 394.55 265.17C394.55 265.17 387.6 275.05 397.55 288.7C403.308 280.951 408.15 272.562 411.98 263.7C407.73 260.3 408.13 252.03 408.74 246.32L398.84 256.36Z" fill="#FF8B7B"/>
<path d="M388.69 266.08C389.92 264.181 391.801 262.798 393.98 262.19C397.7 261.11 411.87 261.74 413.2 262.83C414.573 263.868 415.559 265.336 416 267L388.69 266.08Z" fill="#263238"/>
<path opacity="0.2" d="M415.71 284C417.015 287.366 418.65 290.595 420.59 293.64L427.77 288.91C427.118 287.578 426.348 286.306 425.47 285.11C422.3 281.15 418.61 281.85 415.71 284Z" fill="black"/>
<path d="M415.8 304.15C415.8 304.15 416.16 299.67 416.34 296.93C416.52 294.19 416.69 291.45 416.79 288.7C416.89 285.95 416.95 283.18 417.03 280.43C417.03 279.7 417.03 278.95 417.08 278.21C417.099 276.592 417.738 275.043 418.866 273.882C419.993 272.721 421.523 272.036 423.14 271.97C424.039 271.932 424.935 272.087 425.769 272.424C426.604 272.761 427.356 273.272 427.976 273.924C428.597 274.575 429.07 275.352 429.366 276.201C429.662 277.051 429.772 277.954 429.69 278.85C429.31 283.17 428.8 288 428.69 289.68C428.49 292.56 428.15 295.43 427.81 298.32C427.47 301.21 426.99 304.08 426.44 306.97L426.2 307.89L415.8 304.15Z" fill="#FF8B7B"/>
<path d="M387.84 308.23L379.49 304.33C379.149 304.165 378.774 304.079 378.395 304.079C378.016 304.079 377.641 304.165 377.3 304.33L369.61 308.33C369.278 308.501 368.989 308.746 368.765 309.046C368.542 309.346 368.389 309.693 368.32 310.06V310.06C368.244 310.412 368.246 310.775 368.324 311.126C368.403 311.477 368.557 311.807 368.776 312.092C368.995 312.377 369.273 312.612 369.592 312.779C369.91 312.946 370.261 313.042 370.62 313.06L378.01 313.46L389.12 315.58C389.12 315.58 392.9 310.6 387.84 308.23Z" fill="#FF8B7B"/>
<path d="M416.66 302.82L387.84 308.23C387.84 308.23 388.15 316.06 389.12 315.55C389.78 315.21 406.58 314.92 417.45 314.77C419.903 314.735 422.247 313.75 423.991 312.024C425.734 310.297 426.741 307.963 426.8 305.51V305.51L416.66 302.82Z" fill="#FF8B7B"/>
<path d="M415.34 273.93C411.93 278.38 414.68 291.58 414.68 291.58L431.68 287.87C431.68 287.87 432 272.02 428.68 269.09C424.9 265.75 418.84 269.31 415.34 273.93Z" fill="#FF4242"/>
<g opacity="0.1">
<path d="M415.34 273.93C411.93 278.38 414.68 291.58 414.68 291.58L431.68 287.87C431.68 287.87 432 272.02 428.68 269.09C424.9 265.75 418.84 269.31 415.34 273.93Z" fill="black"/>
</g>
<path d="M382 317.1H385.1C385.175 317.104 385.25 317.093 385.32 317.068C385.391 317.043 385.456 317.005 385.512 316.955C385.568 316.904 385.613 316.844 385.645 316.776C385.678 316.708 385.696 316.635 385.7 316.56V313.56C385.696 313.485 385.678 313.412 385.645 313.344C385.613 313.276 385.568 313.216 385.512 313.166C385.456 313.115 385.391 313.077 385.32 313.052C385.25 313.027 385.175 313.016 385.1 313.02H382.88C382.753 313.015 382.628 313.052 382.524 313.124C382.419 313.196 382.341 313.3 382.3 313.42L381.43 316.42C381.409 316.504 381.409 316.592 381.428 316.676C381.448 316.76 381.487 316.838 381.543 316.905C381.598 316.971 381.668 317.023 381.748 317.057C381.827 317.091 381.914 317.106 382 317.1V317.1Z" fill="#263238"/>
<path d="M377.7 317.1H380.8C380.875 317.104 380.95 317.093 381.021 317.068C381.091 317.043 381.156 317.005 381.212 316.955C381.268 316.904 381.313 316.844 381.345 316.776C381.378 316.708 381.396 316.635 381.4 316.56V313.56C381.396 313.485 381.378 313.412 381.345 313.344C381.313 313.276 381.268 313.216 381.212 313.166C381.156 313.115 381.091 313.077 381.021 313.052C380.95 313.027 380.875 313.016 380.8 313.02H378.58C378.453 313.015 378.328 313.052 378.224 313.124C378.119 313.196 378.041 313.3 378 313.42L377.13 316.42C377.109 316.504 377.109 316.592 377.128 316.676C377.148 316.76 377.187 316.838 377.243 316.905C377.298 316.971 377.368 317.023 377.448 317.057C377.527 317.091 377.614 317.106 377.7 317.1V317.1Z" fill="#263238"/>
<path d="M373.41 317.1H376.52C376.669 317.106 376.815 317.052 376.926 316.951C377.036 316.85 377.102 316.709 377.11 316.56V313.56C377.102 313.411 377.036 313.27 376.926 313.169C376.815 313.068 376.669 313.015 376.52 313.02H374.29C374.164 313.016 374.041 313.053 373.938 313.125C373.835 313.197 373.759 313.301 373.72 313.42L372.84 316.42C372.819 316.504 372.819 316.592 372.838 316.676C372.858 316.76 372.897 316.838 372.953 316.905C373.008 316.971 373.078 317.023 373.158 317.057C373.237 317.091 373.324 317.106 373.41 317.1V317.1Z" fill="#263238"/>
<path d="M369.12 317.1H372.23C372.304 317.104 372.379 317.093 372.449 317.068C372.519 317.043 372.583 317.004 372.638 316.954C372.693 316.904 372.738 316.843 372.769 316.775C372.8 316.708 372.817 316.634 372.82 316.56V313.56C372.817 313.486 372.8 313.412 372.769 313.345C372.738 313.277 372.693 313.216 372.638 313.166C372.583 313.116 372.519 313.077 372.449 313.052C372.379 313.027 372.304 313.016 372.23 313.02H370C369.874 313.016 369.751 313.053 369.648 313.125C369.546 313.197 369.469 313.301 369.43 313.42L368.55 316.42C368.529 316.504 368.529 316.592 368.548 316.676C368.568 316.76 368.607 316.838 368.663 316.905C368.718 316.971 368.788 317.023 368.868 317.057C368.947 317.091 369.034 317.106 369.12 317.1V317.1Z" fill="#263238"/>
<path d="M364.84 317.1H367.94C368.014 317.104 368.089 317.093 368.159 317.068C368.229 317.043 368.293 317.004 368.348 316.954C368.403 316.904 368.448 316.843 368.479 316.775C368.51 316.708 368.527 316.634 368.53 316.56V313.56C368.527 313.486 368.51 313.412 368.479 313.345C368.448 313.277 368.403 313.216 368.348 313.166C368.293 313.116 368.229 313.077 368.159 313.052C368.089 313.027 368.014 313.016 367.94 313.02H365.71C365.584 313.016 365.461 313.053 365.358 313.125C365.256 313.197 365.179 313.301 365.14 313.42L364.26 316.42C364.241 316.505 364.242 316.592 364.263 316.676C364.284 316.76 364.324 316.839 364.381 316.904C364.437 316.97 364.508 317.022 364.587 317.056C364.667 317.09 364.754 317.105 364.84 317.1Z" fill="#263238"/>
<path d="M360.55 317.1H363.65C363.724 317.104 363.799 317.093 363.869 317.068C363.939 317.043 364.003 317.004 364.058 316.954C364.113 316.904 364.158 316.843 364.189 316.775C364.22 316.708 364.237 316.634 364.24 316.56V313.56C364.237 313.486 364.22 313.412 364.189 313.345C364.158 313.277 364.113 313.216 364.058 313.166C364.003 313.116 363.939 313.077 363.869 313.052C363.799 313.027 363.724 313.016 363.65 313.02H361.42C361.295 313.018 361.172 313.055 361.07 313.127C360.967 313.199 360.89 313.302 360.85 313.42L359.98 316.42C359.959 316.504 359.959 316.592 359.978 316.676C359.998 316.76 360.037 316.838 360.093 316.905C360.148 316.971 360.218 317.023 360.298 317.057C360.377 317.091 360.464 317.106 360.55 317.1V317.1Z" fill="#263238"/>
<path d="M356.26 317.1H359.36C359.435 317.104 359.51 317.093 359.58 317.068C359.651 317.043 359.716 317.005 359.772 316.955C359.828 316.904 359.873 316.844 359.905 316.776C359.938 316.708 359.956 316.635 359.96 316.56V313.56C359.956 313.485 359.938 313.412 359.905 313.344C359.873 313.276 359.828 313.216 359.772 313.166C359.716 313.115 359.651 313.077 359.58 313.052C359.51 313.027 359.435 313.016 359.36 313.02H357.13C357.005 313.018 356.882 313.055 356.78 313.127C356.677 313.199 356.6 313.302 356.56 313.42L355.69 316.42C355.669 316.504 355.669 316.592 355.688 316.676C355.708 316.76 355.747 316.838 355.803 316.905C355.858 316.971 355.928 317.023 356.008 317.057C356.087 317.091 356.174 317.106 356.26 317.1V317.1Z" fill="#263238"/>
<path d="M352 317.1H355.1C355.175 317.104 355.25 317.093 355.321 317.068C355.391 317.043 355.456 317.005 355.512 316.955C355.568 316.904 355.613 316.844 355.645 316.776C355.678 316.708 355.696 316.635 355.7 316.56V313.56C355.696 313.485 355.678 313.412 355.645 313.344C355.613 313.276 355.568 313.216 355.512 313.166C355.456 313.115 355.391 313.077 355.321 313.052C355.25 313.027 355.175 313.016 355.1 313.02H352.88C352.753 313.015 352.628 313.052 352.524 313.124C352.419 313.196 352.341 313.3 352.3 313.42L351.43 316.42C351.409 316.504 351.409 316.592 351.428 316.676C351.448 316.76 351.487 316.838 351.543 316.905C351.598 316.971 351.668 317.023 351.748 317.057C351.827 317.091 351.914 317.106 352 317.1V317.1Z" fill="#263238"/>
<path d="M347.68 317.1H350.79C350.939 317.106 351.085 317.052 351.196 316.951C351.306 316.85 351.372 316.709 351.38 316.56V313.56C351.372 313.411 351.306 313.27 351.196 313.169C351.085 313.068 350.939 313.015 350.79 313.02H348.56C348.434 313.016 348.311 313.053 348.208 313.125C348.105 313.197 348.029 313.301 347.99 313.42L347.11 316.42C347.089 316.504 347.089 316.592 347.108 316.676C347.128 316.76 347.167 316.838 347.223 316.905C347.278 316.971 347.348 317.023 347.428 317.057C347.507 317.091 347.594 317.106 347.68 317.1V317.1Z" fill="#263238"/>
<path d="M343.39 317.1H346.5C346.574 317.104 346.649 317.093 346.719 317.068C346.789 317.043 346.853 317.004 346.908 316.954C346.963 316.904 347.008 316.843 347.039 316.775C347.07 316.708 347.087 316.634 347.09 316.56V313.56C347.087 313.486 347.07 313.412 347.039 313.345C347.008 313.277 346.963 313.216 346.908 313.166C346.853 313.116 346.789 313.077 346.719 313.052C346.649 313.027 346.574 313.016 346.5 313.02H344.27C344.144 313.016 344.021 313.053 343.918 313.125C343.816 313.197 343.739 313.301 343.7 313.42L342.82 316.42C342.799 316.504 342.799 316.592 342.818 316.676C342.838 316.76 342.877 316.838 342.933 316.905C342.988 316.971 343.058 317.023 343.138 317.057C343.217 317.091 343.304 317.106 343.39 317.1V317.1Z" fill="#263238"/>
<path d="M339.11 317.1H342.21C342.284 317.104 342.359 317.093 342.429 317.068C342.499 317.043 342.563 317.004 342.618 316.954C342.673 316.904 342.718 316.843 342.749 316.775C342.78 316.708 342.797 316.634 342.8 316.56V313.56C342.797 313.486 342.78 313.412 342.749 313.345C342.718 313.277 342.673 313.216 342.618 313.166C342.563 313.116 342.499 313.077 342.429 313.052C342.359 313.027 342.284 313.016 342.21 313.02H340C339.874 313.016 339.751 313.053 339.648 313.125C339.545 313.197 339.469 313.301 339.43 313.42L338.55 316.42C338.532 316.503 338.533 316.589 338.552 316.671C338.572 316.754 338.611 316.831 338.665 316.896C338.719 316.962 338.787 317.014 338.864 317.049C338.941 317.085 339.025 317.102 339.11 317.1Z" fill="#263238"/>
<path d="M334.82 317.1H337.92C337.994 317.104 338.069 317.093 338.139 317.068C338.209 317.043 338.273 317.004 338.328 316.954C338.383 316.904 338.428 316.843 338.459 316.775C338.49 316.708 338.507 316.634 338.51 316.56V313.56C338.507 313.486 338.49 313.412 338.459 313.345C338.428 313.277 338.383 313.216 338.328 313.166C338.273 313.116 338.209 313.077 338.139 313.052C338.069 313.027 337.994 313.016 337.92 313.02H335.69C335.564 313.016 335.441 313.053 335.338 313.125C335.235 313.197 335.159 313.301 335.12 313.42L334.25 316.42C334.229 316.504 334.229 316.592 334.248 316.676C334.268 316.76 334.307 316.838 334.363 316.905C334.418 316.971 334.488 317.023 334.568 317.057C334.647 317.091 334.734 317.106 334.82 317.1V317.1Z" fill="#263238"/>
<path d="M330.53 317.1H333.63C333.705 317.104 333.78 317.093 333.851 317.068C333.921 317.043 333.986 317.005 334.042 316.955C334.098 316.904 334.143 316.844 334.175 316.776C334.208 316.708 334.226 316.635 334.23 316.56V313.56C334.226 313.485 334.208 313.412 334.175 313.344C334.143 313.276 334.098 313.216 334.042 313.166C333.986 313.115 333.921 313.077 333.851 313.052C333.78 313.027 333.705 313.016 333.63 313.02H331.4C331.275 313.018 331.152 313.055 331.05 313.127C330.947 313.199 330.87 313.302 330.83 313.42L329.96 316.42C329.939 316.504 329.939 316.592 329.958 316.676C329.978 316.76 330.017 316.838 330.073 316.905C330.128 316.971 330.199 317.023 330.278 317.057C330.357 317.091 330.444 317.106 330.53 317.1V317.1Z" fill="#263238"/>
<path d="M326.24 317.1H329.34C329.415 317.104 329.49 317.093 329.56 317.068C329.631 317.043 329.696 317.005 329.752 316.955C329.808 316.904 329.853 316.844 329.885 316.776C329.918 316.708 329.936 316.635 329.94 316.56V313.56C329.936 313.485 329.918 313.412 329.885 313.344C329.853 313.276 329.808 313.216 329.752 313.166C329.696 313.115 329.631 313.077 329.56 313.052C329.49 313.027 329.415 313.016 329.34 313.02H327.12C326.993 313.015 326.868 313.052 326.764 313.124C326.659 313.196 326.581 313.3 326.54 313.42L325.67 316.42C325.649 316.504 325.649 316.592 325.668 316.676C325.688 316.76 325.727 316.838 325.783 316.905C325.838 316.971 325.908 317.023 325.988 317.057C326.067 317.091 326.154 317.106 326.24 317.1V317.1Z" fill="#263238"/>
<path d="M322 317.1H325.11C325.26 317.105 325.405 317.052 325.516 316.951C325.626 316.85 325.692 316.709 325.7 316.56V313.56C325.692 313.411 325.626 313.27 325.516 313.169C325.405 313.068 325.26 313.015 325.11 313.02H322.88C322.754 313.014 322.63 313.05 322.527 313.123C322.424 313.195 322.347 313.3 322.31 313.42L321.43 316.42C321.409 316.504 321.409 316.592 321.428 316.676C321.448 316.76 321.487 316.838 321.543 316.905C321.598 316.971 321.668 317.023 321.748 317.057C321.827 317.091 321.914 317.106 322 317.1V317.1Z" fill="#263238"/>
<path d="M318.83 317.43C318.864 318.083 319.153 318.697 319.636 319.139C320.119 319.581 320.756 319.815 321.41 319.79H385.62C386.275 319.817 386.913 319.584 387.397 319.142C387.88 318.7 388.169 318.084 388.2 317.43C388.2 317.114 388.134 316.802 388.004 316.515C387.875 316.227 387.686 315.969 387.45 315.76C386.963 315.323 386.334 315.078 385.68 315.07H321.41C321.171 315.073 320.933 315.104 320.7 315.16C320.181 315.279 319.717 315.566 319.379 315.977C319.04 316.387 318.847 316.898 318.83 317.43V317.43Z" fill="#263238"/>
<path opacity="0.2" d="M318.83 317.43C318.864 318.083 319.153 318.697 319.636 319.139C320.119 319.581 320.756 319.815 321.41 319.79H385.62C386.275 319.817 386.913 319.584 387.397 319.142C387.88 318.7 388.169 318.084 388.2 317.43C388.2 317.114 388.134 316.802 388.004 316.515C387.875 316.227 387.686 315.969 387.45 315.76C386.963 315.323 386.334 315.078 385.68 315.07H321.41C321.171 315.073 320.933 315.104 320.7 315.16C320.181 315.279 319.717 315.566 319.379 315.977C319.04 316.387 318.847 316.898 318.83 317.43V317.43Z" fill="white"/>
<path d="M318.83 317.43C318.864 318.083 319.153 318.697 319.636 319.139C320.119 319.581 320.756 319.815 321.41 319.79H343.15C343.653 319.657 344.1 319.365 344.424 318.958C344.749 318.551 344.933 318.05 344.95 317.53C344.96 317.39 344.96 317.25 344.95 317.11C344.85 316.625 344.594 316.185 344.22 315.86C344.051 315.711 343.867 315.58 343.67 315.47L343.37 315.34C343.051 315.218 342.712 315.157 342.37 315.16H320.7C320.181 315.279 319.717 315.566 319.379 315.977C319.04 316.387 318.847 316.898 318.83 317.43V317.43Z" fill="#263238"/>
<path d="M393.33 264C399.652 263.882 405.975 264.216 412.25 265C416.159 265.461 420.041 266.128 423.88 267L424.23 267.08C425.674 267.494 426.895 268.463 427.627 269.774C428.36 271.086 428.544 272.633 428.14 274.08C419.63 303.92 419.14 314.13 418.85 330.14L377.22 327.74C376.51 321.03 379.39 314.19 378.57 304.15C376.47 278.52 373.93 279.28 374.63 274.29C374 267.31 388.24 264.13 393.33 264Z" fill="#FF4242"/>
<path d="M388.93 234.89C388.43 234.84 387.93 235.43 387.93 236.19C387.93 236.95 388.23 237.6 388.72 237.65C389.21 237.7 389.72 237.14 389.72 236.34C389.72 235.54 389.42 234.93 388.93 234.89Z" fill="#263238"/>
<path d="M387.36 234.27L389.14 234.95C388.18 235.78 387.36 234.27 387.36 234.27Z" fill="#263238"/>
<path d="M388.66 242.88C388.18 242.88 387.706 242.775 387.271 242.573C386.836 242.371 386.45 242.077 386.14 241.71C387.603 240.562 388.899 239.216 389.99 237.71L388.66 242.88Z" fill="#A02724"/>
<path d="M389.34 231.93C389.903 231.958 390.452 232.118 390.942 232.398C391.432 232.678 391.849 233.069 392.16 233.54V233.62C392.192 233.672 392.234 233.717 392.284 233.752C392.334 233.788 392.391 233.812 392.45 233.825C392.51 233.838 392.572 233.838 392.632 233.826C392.692 233.814 392.749 233.79 392.799 233.755C392.849 233.721 392.892 233.676 392.925 233.624C392.957 233.573 392.979 233.515 392.988 233.454C392.998 233.394 392.995 233.332 392.98 233.273C392.964 233.214 392.937 233.158 392.9 233.11C392.521 232.506 392.003 232.002 391.389 231.64C390.774 231.278 390.082 231.069 389.37 231.03C389.25 231.024 389.133 231.065 389.041 231.143C388.95 231.221 388.893 231.331 388.88 231.45C388.877 231.528 388.893 231.606 388.928 231.676C388.963 231.746 389.015 231.806 389.08 231.85C389.155 231.905 389.247 231.933 389.34 231.93V231.93Z" fill="#263238"/>
<path d="M415.68 235.73C414.32 245 414 249 408.83 253.44C407.507 254.62 405.96 255.523 404.282 256.095C402.604 256.667 400.828 256.896 399.06 256.77H399C397.948 256.682 396.912 256.453 395.92 256.09C395.066 255.767 394.248 255.355 393.48 254.86V254.86C392.124 253.961 390.975 252.782 390.113 251.402C389.25 250.022 388.694 248.473 388.48 246.86C387.16 238.26 389.59 224.47 399.06 221.5C401.147 220.836 403.369 220.715 405.515 221.15C407.661 221.585 409.661 222.561 411.325 223.985C412.988 225.409 414.26 227.235 415.021 229.288C415.781 231.342 416.005 233.556 415.67 235.72L415.68 235.73Z" fill="#FF8B7B"/>
<path d="M405.33 254.57C405.828 254.977 406.452 255.199 407.095 255.199C407.738 255.199 408.362 254.977 408.86 254.57C412.48 251.64 420.45 244.45 421.56 236.99C423 227.32 419.14 221.12 412.01 219.19C404.88 217.26 393.8 218.92 390.29 224.19C386.78 229.46 390.29 230.44 396.76 239.09C395.35 245.32 402 251.81 405.33 254.57Z" fill="#263238"/>
<path d="M396.79 235.73C394.49 236.18 393.54 239.37 393.62 241.42C393.71 243.71 395.48 245.31 397.47 243.95C398.212 243.437 398.846 242.782 399.335 242.024C399.824 241.266 400.159 240.418 400.32 239.53C400.449 239.03 400.45 238.505 400.323 238.005C400.196 237.504 399.946 237.043 399.594 236.665C399.243 236.286 398.802 236.002 398.312 235.839C397.822 235.676 397.298 235.638 396.79 235.73V235.73Z" fill="#FF8B7B"/>
<path d="M418.84 327.33L377.27 324.94C376.86 324.94 376.52 325.12 376.54 325.38L376 328.8C376 329.43 376.24 329.63 376.62 329.66L419.72 332.03C420.19 332.03 420.56 331.78 420.42 331.48L419.56 327.67C419.485 327.551 419.377 327.455 419.25 327.395C419.122 327.335 418.98 327.312 418.84 327.33V327.33Z" fill="#263238"/>
<path d="M414.14 331.82L413.89 326.94C413.89 326.8 414.06 326.72 414.28 326.7L415.41 326.77C415.504 326.763 415.597 326.788 415.675 326.841C415.753 326.893 415.811 326.971 415.84 327.06L416.08 331.92C416.08 332.07 415.91 332.15 415.69 332.16L414.56 332.1C414.468 332.115 414.373 332.095 414.295 332.043C414.217 331.991 414.162 331.911 414.14 331.82V331.82Z" fill="#FF4242"/>
<path d="M380.3 329.81L380.68 324.92C380.707 324.82 380.766 324.732 380.846 324.667C380.927 324.602 381.027 324.565 381.13 324.56L382.22 324.66C382.317 324.676 382.405 324.723 382.474 324.793C382.542 324.863 382.586 324.953 382.6 325.05L382.27 329.94C382.243 330.031 382.185 330.109 382.107 330.162C382.028 330.214 381.934 330.239 381.84 330.23L380.68 330.14C380.46 330.1 380.29 330 380.3 329.81Z" fill="#FF4242"/>
<path d="M397.11 330.85L397.2 325.7C397.2 325.55 397.38 325.49 397.61 325.48L398.72 325.62C398.95 325.62 399.12 325.79 399.13 325.93V331.04C399.13 331.18 398.94 331.24 398.72 331.24L397.54 331.17C397.29 331.14 397.1 331 397.11 330.85Z" fill="#FF4242"/>
<path d="M374.73 301.43C374.73 301.43 374.73 296.77 374.66 293.93C374.59 291.09 374.56 288.24 374.42 285.39C374.28 282.54 374.11 279.67 373.96 276.82C373.96 276.06 373.87 275.29 373.82 274.52C373.694 272.841 374.219 271.177 375.285 269.874C376.352 268.571 377.879 267.728 379.55 267.52V267.52C380.475 267.405 381.414 267.488 382.304 267.765C383.194 268.041 384.014 268.504 384.711 269.123C385.408 269.743 385.964 270.503 386.343 271.354C386.723 272.206 386.916 273.128 386.91 274.06C386.91 278.57 386.77 283.6 386.79 285.35C386.79 288.35 386.73 291.35 386.63 294.35C386.53 297.35 386.27 300.35 385.95 303.4L385.78 304.4L374.73 301.43Z" fill="#FF8B7B"/>
<path d="M346.57 307.51L338.88 304.66C338.561 304.543 338.22 304.501 337.882 304.535C337.544 304.57 337.219 304.681 336.93 304.86L330.4 309C330.122 309.18 329.888 309.419 329.715 309.701C329.541 309.983 329.434 310.301 329.4 310.63V310.63C329.364 310.945 329.396 311.264 329.494 311.565C329.592 311.866 329.754 312.143 329.968 312.376C330.183 312.609 330.445 312.794 330.736 312.917C331.028 313.04 331.343 313.099 331.66 313.09L338.25 312.9L348.25 313.97C348.25 313.97 351.25 309.24 346.57 307.51Z" fill="#FF8B7B"/>
<path d="M375.49 300L346.18 308.06C346.18 308.06 347.29 314.54 348.26 313.93C348.91 313.51 366.12 313.36 377.34 312.27C379.871 312.026 382.21 310.81 383.864 308.878C385.518 306.947 386.359 304.449 386.21 301.91L375.49 300Z" fill="#FF8B7B"/>
<path d="M378.24 267.23C371.9 269.75 369.87 281.99 372.96 288.62C385.56 286.07 390.19 288.79 390.05 289.12C390.657 286.16 390.809 283.125 390.5 280.12C390.404 276.363 388.951 272.768 386.41 270C383.77 267.34 381.64 265.68 378.24 267.23Z" fill="#263238"/>
<path d="M378.24 267.23C371.9 269.75 369.87 281.99 372.96 288.62C385.56 286.07 390.19 288.79 390.05 289.12C390.657 286.16 390.809 283.125 390.5 280.12C390.404 276.363 388.951 272.768 386.41 270C383.77 267.34 381.64 265.68 378.24 267.23Z" fill="#FF4242"/>
<path opacity="0.2" d="M399 256.77C397.948 256.681 396.912 256.453 395.92 256.09C395.066 255.767 394.248 255.355 393.48 254.86V254.86V254.79C394.668 255.151 395.941 255.119 397.11 254.7C397.413 254.528 397.771 254.478 398.11 254.56C398.46 254.71 398.59 255.13 398.68 255.51C398.77 255.89 398.88 256.35 399 256.77Z" fill="black"/>
<path d="M390.57 226.38C398.66 259.75 392.78 257 390.77 258.04C391.65 259.63 394.2 260.48 395.66 259.39C396.349 258.792 396.889 258.041 397.236 257.197C397.584 256.353 397.729 255.44 397.66 254.53C397.66 252.71 396.48 233.62 393.66 226.53C393.492 225.884 393.079 225.328 392.51 224.98C391.91 224.66 390.42 225.74 390.57 226.38Z" fill="#263238"/>
<path d="M421.53 230.09C420.16 231.47 417.88 231.01 416.03 230.43C414.045 229.898 412.148 229.08 410.4 228C409.532 227.449 408.782 226.731 408.194 225.888C407.605 225.046 407.189 224.094 406.97 223.09C406.77 221.583 407.144 220.056 408.019 218.813C408.894 217.57 410.204 216.701 411.69 216.38C411.758 215.124 412.209 213.92 412.983 212.929C413.758 211.938 414.818 211.209 416.02 210.84C417.264 210.536 418.57 210.614 419.769 211.064C420.967 211.513 422.003 212.313 422.74 213.36C429.66 214.84 427.74 221.67 427.51 222.56C427.388 223.018 427.133 223.428 426.777 223.74C426.421 224.052 425.98 224.25 425.51 224.31C425.86 226.36 423.61 229.77 421.53 230.09Z" fill="#263238"/>
</svg>
