<svg width="400" height="374" viewBox="0 0 400 374" fill="none" xmlns="http://www.w3.org/2000/svg">
<path d="M90.6189 264.848H21.8138V355.604H90.6189V264.848Z" fill="#E0E0E0"/>
<path d="M90.6189 264.848H58.3593V355.604H90.6189V264.848Z" fill="#F0F0F0"/>
<path d="M42.423 277.138H36.2375V292.165H42.423V277.138Z" fill="#F5F5F5"/>
<path d="M42.423 335.958H36.2375V350.985H42.423V335.958Z" fill="#F5F5F5"/>
<path d="M58.3592 298.062C58.3592 298.197 50.175 298.296 40.091 298.296C30.0071 298.296 21.8138 298.197 21.8138 298.062C21.8138 297.927 29.9891 297.828 40.091 297.828C50.193 297.828 58.3592 297.936 58.3592 298.062Z" fill="white"/>
<path d="M42.423 306.768H36.2375V321.795H42.423V306.768Z" fill="#F5F5F5"/>
<path d="M58.3592 327.702C58.3592 327.828 50.175 327.936 40.091 327.936C30.0071 327.936 21.8138 327.828 21.8138 327.702C21.8138 327.576 29.9891 327.468 40.091 327.468C50.193 327.468 58.3592 327.576 58.3592 327.702Z" fill="white"/>
<path d="M71.3964 277.138H65.2109V292.165H71.3964V277.138Z" fill="#E0E0E0"/>
<path d="M84.8116 277.138H78.6262V292.165H84.8116V277.138Z" fill="#E0E0E0"/>
<path d="M71.3964 305.661H65.2109V320.688H71.3964V305.661Z" fill="#E0E0E0"/>
<path d="M84.8116 305.661H78.6262V320.688H84.8116V305.661Z" fill="#E0E0E0"/>
<path d="M71.3964 334.175H65.2109V349.202H71.3964V334.175Z" fill="#E0E0E0"/>
<path d="M84.8116 334.175H78.6262V349.202H84.8116V334.175Z" fill="#E0E0E0"/>
<path d="M95.796 261.688H16.6459V264.956H95.796V261.688Z" fill="#E0E0E0"/>
<path d="M91.0961 265.271C91.0961 265.397 75.7181 265.505 56.7566 265.505C37.7952 265.505 22.4531 265.397 22.4531 265.271C22.4531 265.145 37.8312 265.037 56.8016 265.037C75.7721 265.037 91.0961 265.145 91.0961 265.271Z" fill="white"/>
<path d="M357.232 289.788H307.739V355.063H357.232V289.788Z" fill="#E0E0E0"/>
<path d="M357.223 289.788H334.021V355.063H357.223V289.788Z" fill="#F0F0F0"/>
<path d="M322.559 298.62H318.111V309.433H322.559V298.62Z" fill="#F5F5F5"/>
<path d="M322.559 340.937H318.111V351.75H322.559V340.937Z" fill="#F5F5F5"/>
<path d="M334.021 313.674C334.021 313.773 328.141 313.845 320.885 313.845C313.628 313.845 307.739 313.773 307.739 313.674C307.739 313.575 313.619 313.512 320.885 313.512C328.15 313.512 334.021 313.584 334.021 313.674Z" fill="white"/>
<path d="M322.559 319.94H318.111V330.754H322.559V319.94Z" fill="#F5F5F5"/>
<path d="M334.021 334.995C334.021 335.085 328.141 335.166 320.885 335.166C313.628 335.166 307.739 335.085 307.739 334.995C307.739 334.905 313.619 334.823 320.885 334.823C328.15 334.823 334.021 334.896 334.021 334.995Z" fill="white"/>
<path d="M343.393 298.62H338.946V309.433H343.393V298.62Z" fill="#E0E0E0"/>
<path d="M353.054 298.62H348.606V309.433H353.054V298.62Z" fill="#E0E0E0"/>
<path d="M343.393 319.139H338.946V329.952H343.393V319.139Z" fill="#E0E0E0"/>
<path d="M353.054 319.139H348.606V329.952H353.054V319.139Z" fill="#E0E0E0"/>
<path d="M343.393 339.649H338.946V350.463H343.393V339.649Z" fill="#E0E0E0"/>
<path d="M353.054 339.649H348.606V350.463H353.054V339.649Z" fill="#E0E0E0"/>
<path d="M360.95 287.51H304.021V289.86H360.95V287.51Z" fill="#E0E0E0"/>
<path d="M357.574 290.085C357.574 290.184 346.509 290.256 332.868 290.256C319.228 290.256 308.163 290.184 308.163 290.085C308.163 289.986 319.219 289.923 332.868 289.923C346.518 289.923 357.574 289.995 357.574 290.085Z" fill="white"/>
<path d="M10.5865 111.806H61.2674C61.2674 111.806 61.2674 100.2 55.2891 100.2C53.1437 100.13 51.0411 100.811 49.3446 102.126C47.6481 103.441 46.4642 105.308 45.9974 107.403C45.9974 107.403 45.9974 85.7494 35.1031 88.9277C24.7851 91.9348 23.6236 105.8 23.6236 105.8C23.6236 105.8 21.7689 98.8225 16.1777 102.757C10.5865 106.692 10.5865 111.806 10.5865 111.806Z" fill="#E0E0E0"/>
<path d="M278.307 15.0446H311.17C311.17 15.0446 311.17 7.51765 307.289 7.51765C305.899 7.47157 304.537 7.91233 303.437 8.76384C302.337 9.61534 301.569 10.8241 301.266 12.1815C301.266 12.1815 301.266 -1.85503 294.198 0.206776C287.517 2.15154 286.761 11.1371 286.761 11.1371C286.761 11.1371 285.555 6.6353 281.935 9.1653C278.316 11.6953 278.307 15.0446 278.307 15.0446Z" fill="#EBEBEB"/>
<path d="M344.996 160.155H377.859C377.859 160.155 377.859 152.637 373.978 152.637C372.588 152.591 371.226 153.031 370.126 153.883C369.026 154.734 368.258 155.943 367.955 157.301C367.955 157.301 367.955 143.264 360.887 145.317C354.207 147.271 353.45 156.256 353.45 156.256C353.45 156.256 352.244 151.754 348.624 154.284C345.005 156.814 344.996 160.155 344.996 160.155Z" fill="#E0E0E0"/>
<path d="M381.451 355.604C381.451 355.73 297.718 355.838 194.43 355.838C91.1411 355.838 7.3902 355.73 7.3902 355.604C7.3902 355.478 91.1231 355.37 194.43 355.37C297.736 355.37 381.451 355.469 381.451 355.604Z" fill="#263238"/>
<path d="M319.12 22.7698H190.954V31.3231H310.566V330.241H190.954V338.794H319.12V22.7698Z" fill="#455A64"/>
<path d="M190.954 31.323V39.8764V321.687V330.241H310.566V31.323H190.954Z" fill="white"/>
<path d="M64.7698 330.241V31.3231H190.954V22.7698H56.2164V338.794H190.954V330.241H64.7698Z" fill="#263238"/>
<path d="M64.7698 31.323V330.241H190.954V321.687V39.8764V31.323H64.7698Z" fill="#F5F5F5"/>
<path d="M282.187 40.4976C284.465 41.2539 286.689 42.0912 288.904 42.9646V31.323H217.011H218.253C237.179 31.9983 261.551 33.5739 282.187 40.4976Z" fill="#F5F5F5"/>
<path d="M300.717 31.323V48.1326C303.985 49.6812 307.253 51.3109 310.566 52.9675V35.4466C307.496 34.0241 304.354 32.6375 301.122 31.323H300.717Z" fill="#F5F5F5"/>
<path d="M101.63 290.76C107.974 288.542 114.064 285.656 119.799 282.153L81.0842 254.242C75.2319 257.006 69.1005 259.878 64.8058 262.93V286.51C74.0254 293.308 89.1604 295.028 101.63 290.76Z" fill="#F5F5F5"/>
<path d="M168.446 220.514C167.51 214.855 167.449 209.086 168.266 203.408L149.403 198.906C140.4 196.754 130.676 200.419 128.542 206.757C123.311 222.333 109.418 237.585 92.7798 248.173C90.3819 249.649 87.9052 250.992 85.3609 252.198L103.773 265.469L169.616 225.475C169.13 223.846 168.739 222.19 168.446 220.514Z" fill="#F5F5F5"/>
<path d="M182.482 246.859C177.485 241.882 173.56 235.934 170.949 229.383L107.375 268.008L123.671 279.758C129.829 275.841 135.664 271.6 141.822 267.567C154.62 259.271 168.246 252.331 182.482 246.859Z" fill="#F5F5F5"/>
<path d="M247.082 222.27L173.343 204.578C172.668 209.735 172.765 214.963 173.632 220.091C175.402 229.641 180.104 238.402 187.083 245.157C206.248 238.179 226.111 233.291 246.326 230.58C252.638 229.68 253.187 223.666 247.082 222.27Z" fill="#F5F5F5"/>
<path d="M97.4526 193.639L100.235 177.135L100.514 175.614C100.073 174.713 99.6135 173.876 99.2083 173.012C95.1927 174.083 90.736 173.975 86.4953 174.479C82.2547 174.983 77.7259 176.415 76.3033 179.188C75.403 180.89 75.8982 182.79 76.3843 184.536C77.1226 187.273 77.8639 190.007 78.6082 192.738C79.2205 195.025 79.8867 197.384 81.7775 199.311C82.9192 200.401 84.2939 201.217 85.7976 201.698C87.3013 202.178 88.8946 202.31 90.4569 202.084C91.542 201.916 92.5812 201.527 93.5103 200.942C94.4393 200.356 95.2387 199.587 95.859 198.681C96.7329 197.128 97.2755 195.412 97.4526 193.639Z" fill="#F5F5F5"/>
<path d="M254.816 160.056L301.122 173.813L310.566 167.213V148.081L279.63 138.897L254.816 160.056Z" fill="#E6E6E6"/>
<path d="M285.041 134.287L310.566 141.868V122.16L300.636 120.989L285.041 134.287Z" fill="#E6E6E6"/>
<path d="M300.717 48.1326V31.323H288.904V103.351L137.942 73.8467L146.126 31.323H134.529L126.588 72.5502L64.7698 70.0022V77.8623L125.093 80.3923L110.04 158.543L68.7853 163.666L64.7698 149.323V175.299C65.1454 182.353 66.2497 189.35 68.0651 196.178C68.8314 199.728 70.3344 203.077 72.4768 206.01C76.6274 211.259 84.5145 215.013 93.1219 215.914C90.0635 220.289 86.3177 224.141 82.0295 227.321C77.0416 231.031 71.1263 234.056 64.7698 236.928V246.247L67.993 244.86L81.0482 254.269L119.763 282.18L131.468 290.598C120.115 296.9 108.86 301.906 97.0024 303.257C94.1843 303.572 90.826 303.743 87.2336 303.923C79.6879 304.163 72.1674 304.918 64.7247 306.183V314.286C65.319 314.151 65.9042 314.025 66.5254 313.908C73.5484 312.664 80.6534 311.939 87.7828 311.738C91.6093 311.54 95.2287 311.36 98.5871 310.982C119.295 308.623 136.663 298.044 155.021 286.844C174.145 275.139 195.825 261.931 223.889 257.951C253.673 253.719 286.869 261.003 310.53 276.967V266.252C296.501 258.635 281.278 253.459 265.513 250.946C274.075 245.04 280.161 237.441 282.475 229.293C282.61 228.816 282.727 228.339 282.845 227.861C283.236 226.154 283.435 224.409 283.439 222.657C283.439 221.754 283.385 220.852 283.277 219.956L310.566 211.844V203.282L280.963 212.114C279.236 208.633 276.897 205.492 274.057 202.84L310.566 185.734V181.412L270.771 200.049C264.442 195.334 257.199 191.992 249.504 190.236L215.129 181.871L297.061 112.904L310.566 114.3V106.368L300.717 105.35V48.1326ZM136.429 81.7158L179.043 90.0531L176.72 172.535L121.492 159.11L136.429 81.7158ZM77.0866 204.317C74.9348 201.616 73.9534 198.357 73.2061 195.539C71.1153 187.677 69.9935 179.588 69.8658 171.454L108.473 166.664L106.042 179.269C103.683 191.514 101.045 202.795 95.3368 212.447C87.7738 212.024 80.688 208.891 77.0866 204.317ZM85.3608 252.144L72.4318 242.825C78.7914 240.029 84.8467 236.587 90.5019 232.552C108.716 219.047 113.479 200.869 117.44 180.332L119.988 167.087L174.847 180.431C171.672 187.768 169.46 195.485 168.265 203.39C167.449 209.067 167.509 214.837 168.446 220.496C168.741 222.153 169.132 223.792 169.616 225.403L103.773 265.415L85.3608 252.144ZM147.656 280.955C143.56 283.458 139.553 285.916 135.493 288.257L123.671 279.731L107.375 267.981L170.949 229.356C173.56 235.908 177.485 241.855 182.482 246.832C186.322 250.678 190.662 253.991 195.384 256.682C176.963 263.101 161.666 272.429 147.656 280.982V280.955ZM245.642 197.618C263.505 201.958 274.39 214.167 271.518 226.628C271.428 227.015 271.329 227.402 271.221 227.78C268.781 236.325 261.236 244.203 250.81 249.227C233.872 248.039 216.86 249.995 200.633 254.998C195.661 252.391 191.109 249.052 187.128 245.094C180.156 238.349 175.455 229.601 173.677 220.064C172.81 214.936 172.713 209.708 173.388 204.551C174.496 196.636 176.667 188.907 179.844 181.574L245.642 197.618ZM235.738 151.835L203.424 179.035L181.888 173.795L184.211 91.0705L235.729 101.145L235.738 151.835ZM241.644 146.865V102.298L284.6 110.707L241.644 146.865Z" fill="#E0E0E0"/>
<path d="M115.478 86.7398L78.2571 85.5603V126.31H108.878L115.478 86.7398Z" fill="#EBEBEB"/>
<path d="M107.798 133.981H72.3597V150.602H107.798V133.981Z" fill="#EBEBEB"/>
<path d="M200.318 76.1967L281.035 90.4583V48.3218H229.85V67.4993H200.318V76.1967Z" fill="#EBEBEB"/>
<path d="M180.636 73.0365V38.0938H155.805L151.465 67.4813L180.636 73.0365Z" fill="#EBEBEB"/>
<path d="M218.037 36.8152H192.44V54.7142H218.037V36.8152Z" fill="#E0E0E0"/>
<path d="M233.946 177.847L276.308 191.127L294.864 178.171L249.405 164.674L233.946 177.847Z" fill="#E6E6E6"/>
<path d="M168.824 95.6265H145.198V148.045H168.824V95.6265Z" fill="#EBEBEB"/>
<path d="M135.358 145.488H129.451V155.716H135.358V145.488Z" fill="#E0E0E0"/>
<path d="M227.878 107.601L192.44 100.236V126.977V131.424H227.878V107.601Z" fill="#EBEBEB"/>
<path d="M196.384 146.766H188.505V162.108H196.384V146.766Z" fill="#EBEBEB"/>
<path d="M208.196 146.766H200.318V162.108H208.196V146.766Z" fill="#EBEBEB"/>
<path d="M220.009 146.766H212.131V162.108H220.009V146.766Z" fill="#EBEBEB"/>
<path d="M76.2943 31.323H64.7698V63.0425L76.2943 63.4566V31.323Z" fill="#E6E6E6"/>
<path d="M117.449 64.8432L122.924 31.323H86.1351V63.7267L117.449 64.8432Z" fill="#E6E6E6"/>
<path d="M310.566 258.888V243.05L303.265 255.502L310.566 258.888Z" fill="#F0F0F0"/>
<path d="M133.899 288.374C152.554 279.371 164.709 261.273 182.815 251.37C187.44 248.688 192.591 247.042 197.914 246.544C202.641 246.22 207.179 246.616 211.807 245.292C218.28 243.491 222.215 239.287 225.06 233.254C228.562 225.818 231.2 216.049 227.842 208.162C224.637 200.708 218.81 194.689 211.464 191.244C207.449 189.353 203.136 188.228 199.031 186.544C196.33 185.446 193.142 184.248 190.927 182.285C189.253 180.782 189.919 179.818 190.99 177.856C192.431 175.416 194.075 173.103 195.906 170.941C199.229 166.781 203.208 162.739 205.648 157.949C207.359 154.6 207.665 150.818 207.719 147.145C207.899 135.134 208.349 123.15 208.619 111.13C208.619 109.807 206.648 109.825 206.567 111.13C205.909 121.809 205.279 132.577 205.504 143.282C205.585 147.19 205.81 151.484 204.487 155.239C202.74 160.2 198.535 164.341 195.276 168.339C192.655 171.346 190.352 174.616 188.406 178.099C187.587 179.701 187.092 180.8 188.073 182.411C190.261 186.013 196.285 187.814 200.003 189.245C204.694 191.046 209.475 192.306 213.85 194.908C217.965 197.442 221.416 200.921 223.916 205.055C227.68 211.016 228.112 216.652 226.509 223.45C224.439 232.246 220.558 241.052 211.311 243.78C206.81 245.112 202.425 244.761 197.851 245.085C193.955 245.412 190.139 246.382 186.561 247.957C166.033 256.718 152.797 276.922 133.44 287.744C132.99 287.996 133.386 288.644 133.836 288.428L133.899 288.374Z" fill="#263238"/>
<path d="M146.396 233.822C147.809 221.64 132.134 217.795 126.138 226.745C120.655 234.938 135.664 259.023 135.664 259.023M138.365 238.513C137.403 239.179 136.265 239.545 135.095 239.565C133.925 239.584 132.776 239.257 131.792 238.623C130.809 237.99 130.035 237.078 129.569 236.005C129.104 234.932 128.967 233.744 129.176 232.593C129.385 231.442 129.93 230.379 130.744 229.538C131.557 228.697 132.602 228.116 133.746 227.869C134.889 227.621 136.081 227.719 137.169 228.149C138.257 228.578 139.193 229.321 139.859 230.283C140.748 231.576 141.088 233.168 140.804 234.711C140.521 236.253 139.637 237.62 138.347 238.513H138.365Z" fill="#FF4242"/>
<path d="M311.719 131.658C307.514 125.482 304.669 122.412 298.628 120.224C296.313 119.394 293.883 118.929 291.425 118.846C285.645 120.647 281.656 120.647 275.867 118.846C272.905 119.215 270.375 117.046 255.249 126.436C249.009 130.308 244.724 132.865 237.314 136.682C235.288 137.583 233.856 138.168 233.541 137.979C232.173 137.16 217.254 109.861 217.254 109.861C217.254 109.861 213.931 100.425 212.536 100.488C211.14 100.551 201.236 100.848 201.083 102.397C200.93 103.945 201.543 110.761 202.623 111.689C203.703 112.616 207.602 115.101 207.602 115.101C207.602 115.101 224.15 157.886 230.264 157.273C234.766 156.832 251.98 149.665 260.93 145.857L262.911 145.146L264.09 169.95L263.613 201.211L302.625 198.996L301.995 166.826C302.292 158.813 302.085 156.229 302.895 149.584L314.6 154.032L316.68 140.833C315.268 137.65 313.61 134.582 311.719 131.658Z" fill="#E5BAAB"/>
<path d="M206.035 93.6453C203.802 88.2432 194.835 89.2426 194.079 94.9328C193.025 102.901 208.412 109.203 208.412 109.203V108.663C208.412 108.663 207.764 97.832 206.035 93.6453ZM203.64 98.2191C203.385 98.8148 202.958 99.3214 202.415 99.6747C201.872 100.028 201.236 100.212 200.587 100.204C199.939 100.196 199.308 99.9959 198.774 99.6291C198.239 99.2622 197.826 98.7452 197.585 98.1432C197.345 97.5413 197.288 96.8816 197.422 96.2475C197.557 95.6134 197.876 95.0334 198.34 94.5808C198.805 94.1283 199.392 93.8235 200.03 93.7051C200.667 93.5866 201.325 93.6598 201.921 93.9154C202.719 94.2581 203.349 94.904 203.672 95.7111C203.994 96.5182 203.983 97.4204 203.64 98.2191Z" fill="#FF4242"/>
<path d="M204.145 107.223C204.68 107.451 205.18 107.754 205.63 108.123L207.17 109.222C207.458 109.438 207.755 109.645 208.07 109.897C208.255 110.037 208.41 110.213 208.526 110.414C208.642 110.615 208.717 110.837 208.745 111.067C208.754 111.285 208.696 111.501 208.579 111.684C208.461 111.868 208.29 112.011 208.088 112.094C207.742 112.238 207.356 112.254 206.999 112.139C206.456 111.936 205.931 111.686 205.432 111.392C204.532 110.923 203.892 110.554 203.631 110.374L203.712 110.293C203.757 110.419 203.766 110.482 203.757 110.491C203.748 110.5 203.694 110.491 203.613 110.347L203.514 110.221L203.685 110.266C203.992 110.365 204.667 110.644 205.594 111.067C206.088 111.313 206.596 111.53 207.116 111.716C207.62 111.887 208.322 111.635 208.277 111.094C208.232 110.554 207.431 110.023 206.909 109.564L205.432 108.393C204.957 108.057 204.525 107.664 204.145 107.223Z" fill="#D78776"/>
<path d="M205.693 105.008C206.289 105.132 206.856 105.364 207.368 105.692C207.957 106.008 208.489 106.418 208.943 106.908C209.221 107.201 209.452 107.535 209.628 107.898C209.748 108.103 209.826 108.329 209.859 108.564C209.891 108.798 209.877 109.037 209.817 109.267C209.768 109.395 209.693 109.511 209.597 109.609C209.501 109.707 209.386 109.783 209.259 109.834C209.035 109.92 208.794 109.951 208.556 109.924C208.153 109.868 207.761 109.75 207.395 109.573C206.784 109.308 206.212 108.963 205.693 108.546C204.793 107.835 204.442 107.232 204.487 107.196C204.532 107.16 205 107.664 205.891 108.285C206.418 108.64 206.979 108.942 207.566 109.186C207.893 109.329 208.238 109.426 208.592 109.474C208.952 109.474 209.277 109.402 209.376 109.114C209.452 108.769 209.394 108.409 209.214 108.105C209.062 107.777 208.861 107.474 208.619 107.205C208.208 106.731 207.729 106.322 207.197 105.989C206.667 105.708 206.164 105.38 205.693 105.008Z" fill="#D78776"/>
<path d="M212.509 100.957L204.739 103.243C204.379 103.304 204.057 103.501 203.838 103.793C203.55 104.333 204.064 104.972 204.595 105.278C205.75 105.905 207.071 106.16 208.376 106.008C209.672 105.833 210.948 105.532 212.185 105.107" fill="#E5BAAB"/>
<path d="M212.176 105.143C211.964 105.277 211.733 105.377 211.491 105.44C210.852 105.666 210.199 105.856 209.538 106.008C208.541 106.241 207.511 106.296 206.495 106.17C205.888 106.082 205.298 105.9 204.748 105.629C204.433 105.491 204.151 105.289 203.919 105.035C203.779 104.898 203.67 104.732 203.602 104.549C203.533 104.365 203.507 104.168 203.523 103.973C203.572 103.777 203.67 103.596 203.809 103.45C203.948 103.303 204.123 103.195 204.316 103.135C204.64 103.018 204.937 102.946 205.216 102.856L206.909 102.37L209.799 101.578C210.68 101.293 211.583 101.085 212.5 100.957C211.661 101.325 210.794 101.626 209.907 101.857L207.044 102.757L205.351 103.27C204.784 103.46 204.037 103.568 203.983 104.027C203.981 104.151 204.004 104.274 204.052 104.389C204.1 104.504 204.172 104.607 204.262 104.693C204.454 104.902 204.687 105.071 204.946 105.188C205.449 105.445 205.99 105.621 206.549 105.71C207.517 105.853 208.503 105.835 209.466 105.656C211.131 105.377 212.149 105.062 212.176 105.143Z" fill="#D78776"/>
<path d="M316.419 248.65C319.684 248.869 322.944 248.156 325.819 246.593C328.693 245.029 331.065 242.681 332.656 239.822C334.247 236.962 334.992 233.709 334.805 230.442C334.618 227.175 333.506 224.029 331.599 221.37C329.159 217.957 325.566 215.562 322.064 213.267L309.459 204.956L313.304 237.54L316.383 248.668" fill="#FF4242"/>
<path d="M334.318 227.078C334.162 227.401 333.93 227.683 333.643 227.897C332.883 228.527 331.98 228.96 331.013 229.158C328.583 229.734 325.017 229.23 321.704 227.438C318.919 225.859 316.411 223.836 314.276 221.451C313.439 220.55 312.79 219.821 312.349 219.299C312.103 219.043 311.882 218.762 311.692 218.462C311.981 218.669 312.244 218.911 312.475 219.182L314.51 221.217C316.686 223.501 319.182 225.457 321.92 227.024C324.644 228.59 327.806 229.223 330.923 228.825C331.855 228.667 332.738 228.301 333.507 227.753C334.057 227.357 334.291 227.051 334.318 227.078Z" fill="#263238"/>
<path d="M302.022 168.141L302.922 149.567C302.922 149.567 296.539 144.228 298.628 120.224L295.558 119.324C295.558 119.324 293.667 149.54 278.343 148.216C263.019 146.893 268.439 119.738 268.439 119.738C266.753 119.829 265.149 120.493 263.892 121.62C263.775 121.674 263.217 131.524 262.911 139.906C261.229 142.871 260.388 146.24 260.48 149.648C260.638 152.244 261.637 154.718 263.325 156.697C263.739 162.379 264.153 169.924 264.153 169.924L258.184 185.374L259.615 190.821L303.4 190.335L304.696 184.509L302.022 168.141Z" fill="#455A64"/>
<path d="M295.422 147.298C295.279 147.952 294.993 148.567 294.585 149.098C294.009 149.999 293.451 150.728 293.343 150.665C293.235 150.602 293.604 149.765 294.18 148.864C294.756 147.964 295.314 147.226 295.422 147.298Z" fill="white"/>
<path d="M297.259 162.919C297.16 163.009 296.359 162.306 295.377 161.343C294.749 160.81 294.224 160.166 293.829 159.443C293.928 159.344 294.729 160.056 295.711 161.01C296.34 161.545 296.865 162.192 297.259 162.919Z" fill="white"/>
<path d="M271.959 151.187C270.641 152.41 269.117 153.392 267.457 154.086C268.776 152.863 270.3 151.881 271.959 151.187Z" fill="white"/>
<path d="M265.063 150.08C264.339 149.929 263.656 149.622 263.064 149.179C262.019 148.576 261.263 148 261.263 147.892C261.986 148.044 262.668 148.351 263.262 148.792C264.333 149.395 265.126 149.972 265.063 150.08Z" fill="white"/>
<path d="M265.216 131.325C265.406 132.143 265.448 132.987 265.342 133.819C265.378 134.656 265.262 135.492 265 136.286C264.798 135.474 264.755 134.63 264.873 133.801C264.828 132.962 264.944 132.121 265.216 131.325Z" fill="white"/>
<path d="M297.007 134.594C297.124 134.657 296.89 135.35 296.494 136.151C296.098 136.953 295.675 137.556 295.594 137.502C295.513 137.448 295.711 136.746 296.107 135.944C296.503 135.143 296.89 134.54 297.007 134.594Z" fill="white"/>
<path d="M281.008 159.047C280.491 157.785 280.272 156.42 280.369 155.059C280.884 156.322 281.102 157.687 281.008 159.047Z" fill="white"/>
<path d="M290.957 146.82C291.011 146.937 290.597 147.253 290.056 147.514C289.516 147.775 288.985 147.91 288.931 147.793C288.877 147.676 289.291 147.361 289.831 147.091C290.371 146.82 290.903 146.703 290.957 146.82Z" fill="white"/>
<path d="M301.716 153.807C301.761 153.924 301.302 154.185 300.699 154.375C300.095 154.564 299.573 154.627 299.528 154.51C299.483 154.393 299.951 154.122 300.554 153.933C301.158 153.744 301.68 153.681 301.716 153.807Z" fill="white"/>
<path d="M269.15 146.596C269.042 146.659 268.538 146.019 268.025 145.155C267.512 144.291 267.187 143.534 267.295 143.471C267.403 143.408 267.917 144.048 268.43 144.912C268.943 145.776 269.249 146.533 269.15 146.596Z" fill="white"/>
<path d="M269.771 160.011C269.654 160.065 269.429 159.786 269.15 159.488C268.871 159.191 268.619 158.921 268.682 158.804C268.745 158.687 269.159 158.804 269.492 159.173C269.825 159.542 269.897 159.975 269.771 160.011Z" fill="white"/>
<path d="M264.171 181.43C264.085 180.781 264.153 180.121 264.369 179.503C264.612 178.468 264.91 177.657 265.036 177.702C265.121 178.352 265.05 179.013 264.828 179.629C264.594 180.647 264.297 181.457 264.171 181.43Z" fill="white"/>
<path d="M273.571 181.763C273.481 181.844 272.788 181.259 272.031 180.44C271.275 179.62 270.744 178.882 270.843 178.801C270.942 178.72 271.626 179.305 272.382 180.124C273.139 180.944 273.652 181.673 273.571 181.763Z" fill="white"/>
<path d="M269.285 186.778C269.285 186.904 268.484 186.778 267.584 186.427C266.683 186.076 265.999 185.752 266.044 185.626C266.089 185.5 266.845 185.626 267.746 185.986C268.646 186.346 269.33 186.634 269.285 186.778Z" fill="white"/>
<path d="M281.566 180.377C281.499 181.046 281.277 181.69 280.918 182.258C280.441 183.24 279.954 183.987 279.837 183.933C279.91 183.264 280.135 182.62 280.495 182.051C280.972 181.07 281.449 180.332 281.566 180.377Z" fill="white"/>
<path d="M292.118 182.763C291.783 183.661 291.147 184.415 290.317 184.897C289.577 185.495 288.649 185.813 287.697 185.797C287.697 185.662 288.841 185.32 290.056 184.473C291.272 183.627 292.001 182.691 292.118 182.763Z" fill="white"/>
<path d="M300.726 185.734C299.746 185.244 298.837 184.623 298.025 183.888C297.111 183.268 296.29 182.522 295.585 181.673C296.564 182.145 297.473 182.751 298.286 183.474C299.207 184.102 300.029 184.864 300.726 185.734Z" fill="white"/>
<path d="M287.22 170.878C286.626 171.676 285.912 172.377 285.104 172.958C284.399 173.659 283.584 174.239 282.691 174.677C283.286 173.88 284 173.178 284.807 172.598C285.513 171.897 286.328 171.316 287.22 170.878Z" fill="white"/>
<path d="M274.156 171.328C273.399 170.847 272.732 170.238 272.184 169.527C271.522 168.94 270.97 168.239 270.555 167.457C271.308 167.921 271.975 168.512 272.526 169.203C273.188 169.812 273.739 170.531 274.156 171.328Z" fill="white"/>
<path d="M286.545 165.026C285.842 165.465 285.064 165.771 284.249 165.926C283.473 166.225 282.65 166.381 281.818 166.385C283.292 165.632 284.897 165.168 286.545 165.017V165.026Z" fill="white"/>
<path d="M297.961 173.129C297.388 172.504 296.936 171.777 296.629 170.986C296.189 170.264 295.884 169.468 295.729 168.636C296.302 169.262 296.754 169.988 297.061 170.779C297.501 171.502 297.806 172.298 297.961 173.129Z" fill="white"/>
<path d="M265.801 168.384C265.949 169.172 265.949 169.982 265.801 170.77C265.798 171.572 265.642 172.367 265.342 173.111C265.183 172.324 265.183 171.512 265.342 170.725C265.34 169.922 265.496 169.127 265.801 168.384Z" fill="white"/>
<path d="M267.205 101.146C264.984 101.485 262.716 101.366 260.543 100.794C259.47 100.495 258.475 99.964 257.629 99.2392C256.783 98.5144 256.106 97.6131 255.645 96.5988C255.21 95.5649 255.134 94.415 255.429 93.3328C255.725 92.2507 256.374 91.2988 257.274 90.6294C258.175 90.0532 259.354 89.7291 259.768 88.7477C260.183 87.7663 259.435 86.4968 258.913 85.4254C258.223 83.9963 258.009 82.3837 258.302 80.8241C258.595 79.2644 259.38 77.8396 260.542 76.7584C261.703 75.6772 263.181 74.9966 264.758 74.8161C266.334 74.6356 267.927 74.9649 269.303 75.7556C269.515 73.2843 270.635 70.9793 272.447 69.2862C274.26 67.5931 276.636 66.6324 279.116 66.5899C281.596 66.5473 284.003 67.4259 285.873 69.0558C287.742 70.6856 288.941 72.9509 289.237 75.4135C289.408 76.845 289.291 78.3846 290.02 79.6361C290.849 81.0587 292.55 81.7069 293.703 82.8864C295.945 85.1823 295.639 88.9458 294.603 91.989C293.568 95.0322 291.956 98.0034 292.055 101.218" fill="#263238"/>
<path d="M275.768 119.017C275.552 115.839 275.309 112.94 275.309 112.94C275.309 112.94 268.7 112.409 268.106 105.872C267.512 99.3356 267.584 84.2636 267.584 84.2636L279.45 78.0962L291.434 87.802L291.65 118.414C291.667 120.438 290.911 122.392 289.538 123.879C288.165 125.366 286.277 126.274 284.258 126.418C282.151 126.562 280.073 125.863 278.481 124.475C276.889 123.087 275.913 121.124 275.768 119.017Z" fill="#E5BAAB"/>
<path d="M269.195 95.2123C269.208 95.3754 269.267 95.5313 269.367 95.6608C269.467 95.7903 269.603 95.8876 269.758 95.9409C269.912 95.9941 270.079 96.0008 270.238 95.9603C270.396 95.9197 270.539 95.8336 270.649 95.7126C270.76 95.5917 270.832 95.4411 270.857 95.2795C270.883 95.1179 270.86 94.9524 270.793 94.8034C270.725 94.6544 270.616 94.5285 270.477 94.4411C270.339 94.3538 270.178 94.3089 270.014 94.3119C269.901 94.314 269.788 94.3394 269.684 94.3864C269.581 94.4335 269.488 94.5012 269.411 94.5855C269.334 94.6698 269.275 94.7689 269.238 94.8767C269.201 94.9844 269.187 95.0986 269.195 95.2123Z" fill="#263238"/>
<path d="M268.367 94.3207C268.475 94.4288 269.078 93.8886 269.979 93.8165C270.879 93.7445 271.572 94.1677 271.662 94.0416C271.752 93.9156 271.59 93.7895 271.284 93.5915C270.878 93.3462 270.405 93.2358 269.933 93.2762C269.46 93.3167 269.013 93.5059 268.655 93.8165C268.394 94.0596 268.313 94.2757 268.367 94.3207Z" fill="#263238"/>
<path d="M278.901 94.9781C278.902 95.0884 278.925 95.1974 278.969 95.2987C279.013 95.3999 279.077 95.4914 279.156 95.5677C279.236 95.644 279.33 95.7037 279.433 95.7431C279.536 95.7826 279.646 95.801 279.756 95.7974C279.978 95.7974 280.191 95.7092 280.348 95.5522C280.505 95.3952 280.594 95.1822 280.594 94.9601C280.594 94.738 280.505 94.525 280.348 94.368C280.191 94.211 279.978 94.1228 279.756 94.1228C279.643 94.119 279.53 94.1386 279.425 94.1802C279.319 94.2219 279.223 94.2847 279.143 94.3649C279.063 94.4451 279 94.5409 278.958 94.6464C278.917 94.7519 278.897 94.8648 278.901 94.9781Z" fill="#263238"/>
<path d="M278.352 94.0777C278.469 94.1857 279.072 93.6455 279.972 93.5735C280.873 93.5015 281.557 93.9246 281.647 93.7986C281.737 93.6725 281.575 93.5465 281.278 93.3484C280.884 93.0973 280.421 92.9746 279.954 92.9973C279.48 93.0299 279.03 93.22 278.676 93.5375C278.388 93.8166 278.298 94.0327 278.352 94.0777Z" fill="#263238"/>
<path d="M275.291 101.767C274.803 101.874 274.303 101.913 273.805 101.884C273.674 101.905 273.54 101.905 273.409 101.884C273.323 101.861 273.244 101.821 273.175 101.765C273.107 101.709 273.051 101.639 273.013 101.56C272.927 101.243 272.949 100.908 273.076 100.605C273.256 100.011 273.436 99.3807 273.625 98.7145C274.04 97.0783 274.582 95.4768 275.246 93.9246C274.95 95.5889 274.532 97.229 273.994 98.8315C273.796 99.4887 273.607 100.11 273.418 100.713C273.315 100.938 273.277 101.188 273.31 101.434C273.355 101.596 273.58 101.623 273.805 101.632C274.304 101.618 274.802 101.663 275.291 101.767Z" fill="#263238"/>
<path d="M278.406 102.505C278.469 102.433 275.804 104.117 273.967 104.162C274.307 104.612 274.789 104.933 275.335 105.074C275.882 105.214 276.459 105.166 276.974 104.936C277.475 104.785 277.9 104.451 278.165 104C278.43 103.55 278.516 103.016 278.406 102.505Z" fill="white"/>
<path d="M275.309 112.94C278.415 112.738 281.398 111.65 283.907 109.807C283.907 109.807 282.061 114.66 275.498 114.543L275.309 112.94Z" fill="#D78776"/>
<path d="M264.648 86.2265C266.701 88.1353 269.924 88.4054 272.553 87.433C275.167 86.3279 277.419 84.5126 279.054 82.1929C280.196 83.3088 281.599 84.1215 283.136 84.5571C284.672 84.9927 286.293 85.0373 287.85 84.6869C288.319 90.6383 289.354 94.2757 291.587 100.245C291.587 100.245 291.065 102.847 291.857 102.487C292.622 98.3633 293.352 93.9696 294.117 89.882C294.387 88.3874 294.657 86.7848 294.063 85.3802C293.469 83.9756 291.938 82.9582 290.624 81.9949C288.994 80.7974 287.499 79.4108 285.843 78.2584C284.223 77.0233 282.301 76.2459 280.279 76.0075C278.211 75.9974 276.162 76.4047 274.255 77.205C271.989 77.8367 269.854 78.8706 267.953 80.2572C266.152 81.7518 264.873 84.1287 265.342 86.4246" fill="#263238"/>
<path d="M291.47 94.0148C292.128 93.707 292.835 93.518 293.559 93.4565C293.924 93.4332 294.29 93.5036 294.621 93.6612C294.952 93.8187 295.237 94.0582 295.449 94.3569C295.718 94.8334 295.786 95.3969 295.639 95.9235C295.535 96.3484 295.338 96.745 295.062 97.0843C294.786 97.4236 294.438 97.6972 294.043 97.8852C293.648 98.0732 293.217 98.1708 292.779 98.171C292.342 98.1712 291.91 98.0739 291.515 97.8863" fill="#E5BAAB"/>
<path d="M282.151 92.4211C282.25 92.4211 282.322 92.8713 281.962 93.2495C281.602 93.6276 281.134 93.5736 281.143 93.4656C281.152 93.3575 281.44 93.2495 281.683 92.9794C281.926 92.7093 282.034 92.4211 282.151 92.4211Z" fill="#263238"/>
<path d="M258.814 196.538L247.488 367.317C246.65 367.47 236.026 369.487 236.305 371.036C236.584 372.584 263.523 371.684 263.523 371.684L279.369 223.279L304.03 194.17L258.814 196.538Z" fill="#E5BAAB"/>
<path d="M263.235 370.387C263.235 370.649 257.04 370.811 249.405 370.748C241.77 370.685 235.567 370.423 235.576 370.162C235.585 369.901 241.77 369.748 249.405 369.811C257.04 369.874 263.235 370.126 263.235 370.387Z" fill="#263238"/>
<path d="M244.606 370.675C244.471 370.675 244.255 369.649 243.49 368.632C242.725 367.614 241.806 367.083 241.869 366.957C242.664 367.197 243.358 367.69 243.846 368.362C244.334 369.033 244.588 369.846 244.571 370.675H244.606Z" fill="#263238"/>
<path d="M263.748 365.931C259 365.775 254.345 367.271 250.576 370.162C251.01 369.608 251.533 369.13 252.124 368.749C253.496 367.755 255.015 366.983 256.626 366.462C258.245 365.936 259.939 365.674 261.641 365.688C262.352 365.651 263.064 365.734 263.748 365.931Z" fill="#263238"/>
<path d="M263.838 364.067C261.064 364.222 258.284 364.222 255.51 364.067C252.73 364.072 249.953 363.922 247.19 363.617C249.964 363.459 252.745 363.459 255.519 363.617C258.298 363.614 261.075 363.764 263.838 364.067Z" fill="#263238"/>
<path d="M264.009 361.114C261.219 361.419 258.415 361.569 255.609 361.564C252.805 361.728 249.994 361.728 247.19 361.564C249.981 361.264 252.785 361.114 255.591 361.114C258.395 360.961 261.205 360.961 264.009 361.114Z" fill="#263238"/>
<path d="M235.837 370.216C235.731 370.476 235.73 370.767 235.834 371.027C235.938 371.287 236.139 371.497 236.395 371.612C236.931 371.801 237.516 371.801 238.052 371.612C238.585 371.432 239.139 371.323 239.7 371.288C240.861 371.288 241.923 372.188 243.076 372.035C243.769 371.954 244.381 371.504 245.066 371.396C246.281 371.216 247.425 372.116 248.667 372.107C249.91 372.098 251.035 371.207 252.269 371.279C253.502 371.351 254.348 372.278 255.474 372.296C256.374 372.296 257.166 371.765 258.049 371.729C259.255 371.684 260.39 372.575 261.578 372.35C261.816 372.307 262.042 372.211 262.238 372.069C262.435 371.927 262.597 371.743 262.713 371.531C262.823 371.314 262.866 371.069 262.833 370.827C262.801 370.586 262.696 370.36 262.533 370.18" fill="#263238"/>
<path d="M259.678 361.438C259.678 361.483 259.138 361.249 258.508 360.582C258.135 360.183 257.86 359.702 257.707 359.178C257.619 358.859 257.583 358.527 257.599 358.196C257.601 357.999 257.644 357.804 257.726 357.624C257.809 357.444 257.928 357.283 258.076 357.152C258.175 357.082 258.291 357.037 258.412 357.023C258.533 357.009 258.656 357.026 258.769 357.071C258.953 357.15 259.113 357.274 259.237 357.431C259.439 357.705 259.597 358.009 259.705 358.332C259.896 358.843 259.964 359.392 259.904 359.934C259.777 360.835 259.381 361.321 259.345 361.285C259.309 361.249 259.543 360.763 259.57 359.916C259.582 359.426 259.493 358.939 259.309 358.485C259.198 358.226 259.053 357.984 258.877 357.764C258.697 357.548 258.49 357.449 258.346 357.575C258.163 357.763 258.06 358.015 258.058 358.278C258.038 358.555 258.059 358.834 258.121 359.106C258.243 359.58 258.46 360.024 258.76 360.411C259.246 361.042 259.732 361.375 259.678 361.438Z" fill="#263238"/>
<path d="M259.66 360.889C259.606 360.889 259.552 360.42 259.922 359.79C260.146 359.423 260.454 359.114 260.822 358.89C261.046 358.766 261.285 358.672 261.533 358.611C261.709 358.567 261.895 358.589 262.055 358.674C262.148 358.733 262.219 358.819 262.259 358.921C262.3 359.023 262.307 359.135 262.28 359.241C262.22 359.719 262.016 360.168 261.694 360.526C261.372 360.885 260.949 361.137 260.48 361.249C259.759 361.402 259.336 361.186 259.354 361.141C259.372 361.096 259.795 361.141 260.39 360.934C260.766 360.8 261.098 360.565 261.35 360.256C261.603 359.946 261.766 359.573 261.821 359.178C261.821 359.061 261.821 359.07 261.821 359.07C261.756 359.053 261.688 359.053 261.623 359.07C261.055 359.186 260.549 359.507 260.201 359.97C259.804 360.483 259.732 360.898 259.66 360.889Z" fill="#263238"/>
<path d="M316.59 361.222L316.356 361.285L308.955 301.528L301.959 197.087L281.566 216.382C281.062 217.327 287.968 300.592 289.435 306.417C290.822 311.892 299.456 359.259 300.501 364.985C299.285 365.598 290.173 370.217 290.849 371.585C291.524 372.954 317.202 364.742 317.202 364.742L316.59 361.222Z" fill="#E5BAAB"/>
<path d="M317.319 364.904C317.391 365.156 311.476 367.011 304.111 369.046C296.746 371.081 290.723 372.53 290.651 372.278C290.579 372.026 296.503 370.18 303.868 368.137C311.233 366.093 317.256 364.616 317.319 364.904Z" fill="#263238"/>
<path d="M299.492 370.252C299.366 370.306 298.862 369.352 297.853 368.587C296.845 367.821 295.81 367.56 295.837 367.416C296.672 367.424 297.483 367.705 298.143 368.217C298.803 368.73 299.277 369.445 299.492 370.252Z" fill="#263238"/>
<path d="M316.608 360.403C314.348 361.054 312.188 362.011 310.188 363.248C308.276 364.618 306.564 366.249 305.101 368.092C305.364 367.432 305.739 366.823 306.209 366.291C308.324 363.601 311.241 361.655 314.537 360.736C315.205 360.514 315.904 360.402 316.608 360.403Z" fill="#263238"/>
<path d="M316.167 358.602C313.54 359.515 310.865 360.282 308.154 360.898C305.489 361.652 302.784 362.254 300.05 362.698C302.678 361.79 305.353 361.027 308.063 360.412C310.728 359.657 313.434 359.053 316.167 358.602Z" fill="#263238"/>
<path d="M315.518 355.729C312.918 356.792 310.261 357.709 307.559 358.476C304.903 359.389 302.198 360.153 299.456 360.762C302.056 359.713 304.713 358.811 307.415 358.061C310.073 357.141 312.778 356.362 315.518 355.729Z" fill="#263238"/>
<path d="M290.93 372.206C290.894 372.483 290.968 372.763 291.136 372.985C291.305 373.207 291.554 373.354 291.83 373.395C292.402 373.462 292.979 373.325 293.46 373.007C293.923 372.689 294.425 372.432 294.954 372.242C296.08 371.936 297.34 372.494 298.412 372.035C299.06 371.765 299.519 371.135 300.158 370.874C301.275 370.36 302.616 370.874 303.76 370.577C304.903 370.279 305.786 369.037 307.001 368.776C308.217 368.515 309.279 369.172 310.377 368.875C311.224 368.65 311.854 367.902 312.691 367.632C313.835 367.254 315.176 367.794 316.293 367.254C316.517 367.153 316.716 367.001 316.872 366.811C317.028 366.62 317.138 366.396 317.193 366.156C317.239 365.916 317.211 365.668 317.113 365.445C317.015 365.221 316.851 365.033 316.644 364.904" fill="#263238"/>
<path d="M311.467 357.233C310.973 357.194 310.5 357.02 310.098 356.729C309.627 356.451 309.232 356.061 308.946 355.595C308.772 355.318 308.647 355.013 308.577 354.694C308.525 354.504 308.513 354.304 308.543 354.109C308.572 353.914 308.642 353.727 308.748 353.56C308.821 353.463 308.919 353.386 309.031 353.339C309.143 353.292 309.266 353.275 309.387 353.29C309.586 353.317 309.775 353.394 309.936 353.515C310.202 353.708 310.436 353.942 310.629 354.208C310.95 354.652 311.166 355.163 311.26 355.703C311.388 356.19 311.327 356.708 311.089 357.152C311.008 357.152 311.143 356.594 310.936 355.766C310.805 355.296 310.585 354.856 310.287 354.469C310.11 354.25 309.904 354.057 309.675 353.893C309.441 353.731 309.216 353.695 309.117 353.848C308.988 354.078 308.956 354.35 309.027 354.604C309.083 354.878 309.18 355.142 309.315 355.388C309.562 355.81 309.893 356.178 310.287 356.468C310.954 356.963 311.467 357.161 311.467 357.233Z" fill="#263238"/>
<path d="M311.269 356.711C311.269 356.711 311.044 356.288 311.269 355.576C311.382 355.167 311.596 354.793 311.89 354.487C312.071 354.303 312.277 354.145 312.502 354.019C312.658 353.93 312.84 353.902 313.015 353.938C313.118 353.97 313.208 354.034 313.274 354.119C313.34 354.204 313.379 354.307 313.385 354.415C313.459 354.892 313.386 355.381 313.176 355.815C312.965 356.25 312.626 356.609 312.205 356.846C311.557 357.188 311.089 357.098 311.098 357.053C311.107 357.008 311.512 356.936 311.998 356.567C312.325 356.337 312.582 356.021 312.741 355.654C312.9 355.287 312.955 354.883 312.898 354.487C312.898 354.37 312.898 354.379 312.898 354.388C312.829 354.382 312.76 354.398 312.7 354.433C312.193 354.706 311.798 355.149 311.584 355.684C311.305 356.279 311.35 356.702 311.269 356.711Z" fill="#263238"/>
<path d="M303.364 187.066L259.579 187.561L245.696 246.571C245.696 246.571 242.284 260.976 259.363 261.67C276.443 262.363 284.483 254.89 298.736 260.391C307.991 263.992 321.407 257.303 320.749 255.781C312.835 237.567 313.015 211.439 303.364 187.066Z" fill="#263238"/>
<path d="M316.707 259.887C316.707 259.887 316.635 259.635 316.527 259.158C316.419 258.68 316.266 257.96 316.023 257.06C315.285 254.529 314.364 252.056 313.267 249.659C311.545 246.108 310.042 242.454 308.766 238.72C307.444 234.07 306.679 229.279 306.488 224.449C306.191 219.317 306.173 214.428 305.876 210.043C305.674 206.1 305.117 202.182 304.21 198.339C303.592 195.762 302.705 193.257 301.563 190.866C301.158 190.019 300.816 189.38 300.564 188.957C300.425 188.745 300.311 188.519 300.221 188.282C300.375 188.48 300.516 188.688 300.645 188.903C301.039 189.51 301.4 190.138 301.725 190.785C302.948 193.153 303.893 195.655 304.543 198.24C305.501 202.078 306.104 205.996 306.344 209.944C306.668 214.392 306.695 219.281 306.992 224.35C307.176 229.153 307.92 233.918 309.207 238.549C310.457 242.271 311.915 245.92 313.574 249.479C314.665 251.907 315.554 254.422 316.23 256.997C316.446 257.897 316.599 258.626 316.662 259.122C316.702 259.375 316.717 259.631 316.707 259.887Z" fill="#455A64"/>
<path d="M275.858 211.385C275.858 211.385 275.795 211.457 275.624 211.52C275.373 211.611 275.104 211.639 274.84 211.601C274.354 211.512 273.9 211.292 273.53 210.963C273.161 210.634 272.888 210.21 272.743 209.737C272.423 208.36 272.338 206.938 272.49 205.533C272.535 203.948 272.59 202.228 272.644 200.428C272.77 196.826 272.905 193.531 273.022 191.154C273.094 190.046 273.148 189.11 273.193 188.345C273.201 187.999 273.243 187.655 273.319 187.318C273.383 187.66 273.401 188.008 273.373 188.354C273.373 189.119 273.373 190.055 273.373 191.163C273.373 193.54 273.256 196.817 273.13 200.446C273.067 202.246 273.004 203.966 272.941 205.542C272.774 206.903 272.819 208.282 273.076 209.629C273.19 210.062 273.417 210.456 273.733 210.773C274.049 211.089 274.444 211.316 274.876 211.43C275.204 211.475 275.536 211.46 275.858 211.385Z" fill="#455A64"/>
<path d="M275.768 189.605C275.714 189.605 276.128 189.245 276.785 189.533C276.972 189.615 277.137 189.739 277.268 189.895C277.399 190.051 277.493 190.236 277.541 190.433C277.582 190.699 277.532 190.97 277.399 191.203C277.267 191.437 277.06 191.619 276.812 191.721C276.574 191.848 276.299 191.887 276.034 191.833C275.769 191.779 275.532 191.634 275.363 191.424C275.252 191.24 275.194 191.03 275.194 190.816C275.194 190.602 275.252 190.392 275.363 190.208C275.423 190.085 275.508 189.977 275.614 189.89C275.72 189.803 275.843 189.739 275.975 189.704C276.164 189.659 276.263 189.704 276.263 189.704C276.263 189.704 275.849 189.803 275.669 190.325C275.616 190.457 275.595 190.598 275.608 190.739C275.621 190.88 275.666 191.016 275.741 191.136C275.855 191.254 276.006 191.331 276.169 191.354C276.332 191.377 276.498 191.344 276.641 191.262C276.799 191.204 276.933 191.096 277.024 190.954C277.115 190.813 277.158 190.646 277.145 190.478C277.12 190.333 277.063 190.195 276.979 190.074C276.896 189.953 276.786 189.851 276.659 189.776C276.164 189.533 275.786 189.677 275.768 189.605Z" fill="#455A64"/>
<path d="M304.381 198.753C304.13 198.829 303.869 198.868 303.607 198.87C302.89 198.913 302.172 198.913 301.455 198.87C299.058 198.797 296.728 198.065 294.72 196.754C293.729 196.067 292.896 195.177 292.275 194.143C291.654 193.109 291.26 191.955 291.119 190.758C291.041 190.033 291.102 189.299 291.299 188.597C291.35 188.336 291.454 188.087 291.605 187.868C291.404 188.805 291.35 189.768 291.443 190.722C291.627 191.853 292.036 192.936 292.647 193.906C293.258 194.876 294.058 195.713 294.999 196.367C296.944 197.629 299.178 198.376 301.491 198.537C303.265 198.726 304.381 198.672 304.381 198.753Z" fill="#263238"/>
<path d="M263.199 187.156C263.199 187.156 263.298 187.382 263.388 187.805C263.49 188.4 263.55 189.002 263.568 189.605C263.62 191.657 263.262 193.699 262.515 195.611C261.857 197.579 260.629 199.306 258.985 200.572C258.459 200.927 257.858 201.158 257.229 201.247C257.005 201.303 256.77 201.303 256.545 201.247C257.354 201.12 258.123 200.812 258.796 200.347C260.305 199.048 261.44 197.369 262.082 195.485C262.8 193.621 263.19 191.647 263.235 189.65C263.28 188.12 263.118 187.165 263.199 187.156Z" fill="#263238"/>
<path d="M319.183 252.36C318.505 253.098 317.729 253.74 316.878 254.269C314.556 255.726 311.938 256.648 309.216 256.97C305.186 257.417 301.111 257.223 297.142 256.393C292.64 255.637 287.778 254.395 282.556 254.35C277.334 254.305 272.508 255.898 268.151 257.051C266.08 257.624 263.975 258.066 261.848 258.374C259.973 258.61 258.077 258.646 256.194 258.482C253.449 258.294 250.801 257.391 248.514 255.862C248.161 255.621 247.824 255.356 247.506 255.07C247.266 254.867 247.04 254.647 246.83 254.413C246.65 254.229 246.482 254.033 246.326 253.827C247.047 254.507 247.814 255.136 248.622 255.709C250.909 257.157 253.527 258 256.23 258.158C258.089 258.295 259.957 258.238 261.803 257.987C263.929 257.663 266.034 257.213 268.106 256.637C272.481 255.502 277.325 253.863 282.655 253.936C287.986 254.008 292.856 255.25 297.313 256.024C301.24 256.865 305.274 257.09 309.27 256.691C311.96 256.4 314.558 255.538 316.887 254.161C318.409 253.08 319.138 252.279 319.183 252.36Z" fill="#263238"/>
<path d="M302.229 188.525C302.112 188.597 301.86 188.399 301.662 188.093C301.464 187.787 301.392 187.472 301.5 187.4C301.608 187.328 301.86 187.517 302.058 187.832C302.256 188.147 302.337 188.435 302.229 188.525Z" fill="#455A64"/>
<path d="M304.678 193.549C304.561 193.603 304.219 193.063 303.913 192.361C303.607 191.658 303.454 191.046 303.562 190.983C303.67 190.92 304.03 191.46 304.336 192.181C304.642 192.901 304.804 193.504 304.678 193.549Z" fill="#455A64"/>
<path d="M306.317 198.906C306.191 198.906 305.93 198.357 305.732 197.609C305.533 196.862 305.47 196.241 305.596 196.196C305.723 196.151 305.984 196.736 306.182 197.492C306.38 198.249 306.443 198.87 306.317 198.906Z" fill="#455A64"/>
<path d="M307.325 204.407C307.199 204.407 307.001 203.822 306.875 203.057C306.749 202.291 306.767 201.67 306.875 201.643C306.983 201.616 307.199 202.219 307.325 202.984C307.451 203.75 307.451 204.389 307.325 204.407Z" fill="#455A64"/>
<path d="M307.865 209.971C307.739 209.971 307.577 209.368 307.514 208.603C307.451 207.838 307.514 207.198 307.631 207.18C307.748 207.162 307.91 207.784 307.982 208.558C308.054 209.332 308.027 209.962 307.865 209.971Z" fill="#455A64"/>
<path d="M308.217 215.562C308.081 215.562 307.955 214.95 307.91 214.176C307.865 213.402 307.91 212.771 308.072 212.762C308.235 212.753 308.343 213.384 308.379 214.158C308.415 214.932 308.343 215.562 308.217 215.562Z" fill="#455A64"/>
<path d="M308.496 221.154C308.37 221.154 308.226 220.541 308.19 219.767C308.153 218.993 308.19 218.363 308.343 218.363C308.496 218.363 308.613 218.975 308.658 219.749C308.703 220.523 308.622 221.145 308.496 221.154Z" fill="#455A64"/>
<path d="M308.946 226.736C308.811 226.736 308.649 226.133 308.577 225.367C308.505 224.602 308.577 223.954 308.685 223.945C308.793 223.936 308.973 224.557 309.045 225.322C309.117 226.088 309.072 226.718 308.946 226.736Z" fill="#455A64"/>
<path d="M309.756 232.273C309.63 232.273 309.423 231.697 309.297 230.932C309.171 230.166 309.162 229.527 309.297 229.509C309.432 229.491 309.639 230.094 309.765 230.85C309.891 231.607 309.882 232.246 309.756 232.273Z" fill="#455A64"/>
<path d="M311.143 237.693C311.026 237.738 310.747 237.162 310.53 236.415C310.314 235.667 310.242 235.037 310.368 235.01C310.494 234.983 310.765 235.55 310.981 236.289C311.197 237.027 311.269 237.657 311.143 237.693Z" fill="#455A64"/>
<path d="M313.267 242.861C313.159 242.924 312.772 242.411 312.448 241.7C312.124 240.989 311.971 240.367 312.088 240.322C312.205 240.277 312.556 240.799 312.871 241.502C313.186 242.204 313.412 242.798 313.267 242.861Z" fill="#455A64"/>
<path d="M315.969 247.777C315.852 247.84 315.455 247.345 315.068 246.67C314.681 245.994 314.483 245.391 314.6 245.328C314.717 245.265 315.104 245.769 315.5 246.445C315.897 247.12 316.086 247.723 315.969 247.777Z" fill="#455A64"/>
<path d="M318.255 252.882C318.129 252.927 317.805 252.378 317.526 251.667C317.247 250.956 317.112 250.334 317.229 250.28C317.346 250.226 317.67 250.775 317.958 251.496C318.246 252.216 318.382 252.846 318.255 252.882Z" fill="#455A64"/>
<path d="M319.021 256.961C318.886 256.961 318.76 256.673 318.724 256.313C318.688 255.953 318.769 255.637 318.895 255.619C319.021 255.601 319.156 255.89 319.192 256.268C319.228 256.646 319.147 256.961 319.021 256.961Z" fill="#455A64"/>
<path d="M270.168 119.261C270.168 119.261 295.089 199.536 311.116 211.538L309.855 204.488C300.212 187.633 288.652 154.969 275.759 118.846C274.687 118.009 270.645 118.315 270.168 119.261Z" fill="#FF4242"/>
<path d="M302.391 148.981L311.026 168.195C298.52 168.123 284.834 165.242 279.09 163.693C278.649 163.27 278.19 162.793 277.641 162.244C277.033 161.597 276.537 160.855 276.173 160.047C275.682 159.061 275.327 158.013 275.12 156.931C275.029 155.932 273.787 155.536 273.319 156.31C272.851 157.085 273.049 159.867 274.642 162.703C276.236 165.539 271.545 163.603 269.825 162.973C268.106 162.343 262.677 160.497 262.064 160.866C261.164 161.415 261.596 162.505 263.334 163.126C265.072 163.747 270.159 165.998 269.78 166.898C269.402 167.799 260.687 164.269 260.687 164.269C260.687 164.269 258.886 163.216 258.472 164.269C257.635 166.124 267.169 169.167 268.088 169.428C268.718 169.617 268.349 170.608 267.683 170.374C267.016 170.14 259.048 166.664 258.175 168.573C257.509 170.014 265.999 171.148 267.277 172.787C268.556 174.425 260.903 171.265 260.327 172.67C260.111 173.192 260.021 173.57 264.657 174.795C268.424 175.566 272.229 176.135 276.056 176.496C283.412 178.648 301.509 182.799 314.672 182.412C314.672 182.412 333.336 182.736 330.104 171.445C326.629 159.344 316.689 140.878 316.689 140.878L302.391 148.981Z" fill="#E5BAAB"/>
<path d="M292.559 97.4989C292.385 97.4758 292.209 97.5225 292.069 97.6287C291.929 97.735 291.837 97.8922 291.812 98.0662C291.81 98.1521 291.824 98.2375 291.855 98.3177C291.886 98.3978 291.933 98.4711 291.992 98.533C292.052 98.595 292.123 98.6446 292.202 98.6788C292.281 98.7131 292.365 98.7313 292.451 98.7324C292.538 98.7239 292.622 98.6975 292.697 98.655C292.773 98.6125 292.839 98.5547 292.892 98.4854C292.944 98.416 292.982 98.3366 293.002 98.2521C293.022 98.1675 293.025 98.0797 293.01 97.9941C292.984 97.9122 292.941 97.8366 292.884 97.7722C292.827 97.7079 292.758 97.6562 292.68 97.6205C292.602 97.5848 292.517 97.566 292.431 97.5652C292.345 97.5644 292.26 97.5818 292.181 97.616" fill="#FF4242"/>
<path d="M377.085 315.124C376.004 315.207 374.952 315.509 373.991 316.01C373.03 316.512 372.18 317.202 371.493 318.041C370.133 319.734 369.172 321.713 368.684 323.83C367.64 327.882 368.351 332.644 369.531 336.66C373.897 335.057 376.553 330.358 377.76 327.9C379.651 324.01 380.713 315.817 377.085 315.124Z" fill="#FF4242"/>
<path opacity="0.2" d="M377.085 315.124C376.004 315.207 374.952 315.509 373.991 316.01C373.03 316.512 372.18 317.202 371.493 318.041C370.133 319.734 369.172 321.713 368.684 323.83C367.64 327.882 368.351 332.644 369.531 336.66C373.897 335.057 376.553 330.358 377.76 327.9C379.651 324.01 380.713 315.817 377.085 315.124Z" fill="black"/>
<path d="M363.282 341.612C363.929 340.587 364.293 339.41 364.339 338.199C364.385 336.988 364.11 335.786 363.543 334.715C362.956 333.656 362.164 332.724 361.213 331.973C360.263 331.222 359.173 330.666 358.006 330.34C357.486 330.134 356.927 330.045 356.369 330.077C355.811 330.11 355.266 330.264 354.774 330.529C354.359 330.848 354.037 331.273 353.842 331.759C353.647 332.246 353.587 332.775 353.666 333.293C353.835 334.329 354.276 335.302 354.945 336.111C357.097 338.974 359.708 341.351 363.282 341.612Z" fill="#FF4242"/>
<path d="M363.246 355.514C363.354 355.239 363.427 354.951 363.462 354.658C363.57 354.109 363.705 353.299 363.849 352.299C364.274 349.689 364.343 347.033 364.056 344.403C363.747 341.743 362.724 339.217 361.094 337.092C360.59 336.461 360.01 335.896 359.366 335.409C359.146 335.212 358.893 335.057 358.618 334.949C359.417 335.674 360.157 336.46 360.833 337.299C362.343 339.43 363.291 341.908 363.588 344.502C363.865 347.095 363.84 349.712 363.516 352.299C363.362 353.364 363.272 354.438 363.246 355.514Z" fill="#263238"/>
<path d="M375.734 321.282C375.48 321.697 375.263 322.134 375.086 322.588C374.699 323.434 374.185 324.667 373.501 326.189C372.196 329.25 370.458 333.518 368.657 338.281C366.857 343.044 365.344 347.392 364.291 350.553C363.768 352.137 363.39 353.425 363.084 354.316C362.917 354.768 362.793 355.236 362.715 355.712C362.927 355.278 363.108 354.83 363.255 354.37C363.606 353.416 364.056 352.173 364.606 350.661C365.731 347.527 367.307 343.197 369.107 338.443C370.908 333.689 372.592 329.439 373.816 326.306C374.402 324.82 374.888 323.605 375.266 322.642C375.458 322.201 375.614 321.747 375.734 321.282Z" fill="#263238"/>
<path d="M367.82 345.592C369.262 343.481 371.187 341.744 373.433 340.525C375.68 339.305 378.184 338.638 380.74 338.578C382.037 338.578 383.576 338.875 384.08 340.063C384.585 341.252 383.738 342.593 382.802 343.494C380.816 345.341 378.327 346.559 375.649 346.993C372.971 347.427 370.225 347.059 367.757 345.934" fill="#FF4242"/>
<path d="M378.507 341.765C378.227 341.723 377.941 341.723 377.661 341.765C377.331 341.783 377.003 341.825 376.679 341.891C376.248 341.952 375.821 342.04 375.401 342.152C374.296 342.433 373.222 342.825 372.196 343.323C370.94 343.943 369.754 344.694 368.657 345.565C367.584 346.46 366.606 347.465 365.74 348.563C365.045 349.47 364.442 350.444 363.939 351.471C363.739 351.858 363.565 352.258 363.417 352.668C363.287 352.959 363.182 353.26 363.102 353.569C363.001 353.832 362.938 354.108 362.913 354.388C363.003 354.388 363.336 353.263 364.237 351.579C364.77 350.6 365.387 349.669 366.082 348.797C367.79 346.656 369.94 344.908 372.385 343.674C373.381 343.17 374.421 342.757 375.491 342.44C377.319 341.945 378.516 341.855 378.507 341.765Z" fill="#263238"/>
<path d="M25.1542 155.446C37.7591 149.882 43.7825 189.542 44.5928 192.631C45.4031 195.719 47.546 196.088 51.2104 191.46C54.8749 186.832 58.0351 188.624 58.0351 188.624C64.9318 192.829 55.5771 217.3 55.6672 219.29C55.7572 221.28 54.2806 224.143 61.4474 220.091C68.6143 216.04 74.6286 213.879 75.673 220.091C76.6274 225.746 69.3075 242.069 69.3706 244.401C69.4336 246.733 76.8345 240.871 79.9497 238.927C83.9833 236.424 88.287 236.595 89.0433 241.628C90.0247 248.227 76.9065 267.531 76.9065 267.531L70.604 277.363L59.0885 274.257C59.0885 274.257 36.5797 267.9 33.0593 262.246C30.3582 257.897 33.5004 254.971 38.1823 254.251C41.7837 253.702 51.2104 253.35 49.7788 251.55C48.3473 249.749 32.1769 242.123 29.2148 237.207C25.9735 231.805 31.9158 229.536 40.019 227.951C48.1222 226.367 45.124 225.151 43.8905 223.585C42.657 222.018 19.644 209.503 22.156 201.823C22.156 201.823 23.3895 198.42 29.1787 199.545C34.968 200.671 36.3816 199.005 34.959 196.124C33.5365 193.243 12.3961 159.209 25.5593 155.23" fill="#FF4242"/>
<path d="M77.2937 295.775C77.0506 295.865 66.2914 267.045 53.2723 231.409C40.2531 195.773 29.863 166.809 30.1151 166.718C30.3672 166.628 41.1175 195.449 54.1456 231.094C67.1737 266.739 77.5368 295.685 77.2937 295.775Z" fill="white"/>
<path d="M47.3839 213.96C47.1498 213.87 48.1132 210.619 49.8239 206.829C51.5346 203.039 53.2993 200.139 53.5244 200.265C53.7494 200.391 52.3629 203.435 50.6792 207.207C48.9956 210.98 47.663 214.041 47.3839 213.96Z" fill="white"/>
<path d="M31.8889 207.441C31.9429 207.198 35.5983 207.918 39.83 209.638C44.0616 211.358 47.2129 213.357 47.0868 213.564C46.9608 213.771 43.6655 212.186 39.4878 210.502C35.3102 208.819 31.8168 207.702 31.8889 207.441Z" fill="white"/>
<path d="M56.8197 240.25C56.6216 240.079 59.3136 236.649 62.834 232.498C66.3544 228.347 69.3616 225.196 69.5597 225.358C69.7577 225.52 67.0657 228.96 63.5453 233.11C60.0249 237.261 57.0177 240.421 56.8197 240.25Z" fill="white"/>
<path d="M35.9584 236.028C35.9584 235.784 40.8834 236.19 46.8167 237.36C52.75 238.531 57.4409 239.989 57.3779 240.232C57.3148 240.475 52.543 239.431 46.6366 238.278C40.7303 237.126 35.8954 236.298 35.9584 236.028Z" fill="white"/>
<path d="M42.405 261.22C42.405 260.958 47.573 261.499 53.8665 262.426C60.16 263.353 65.2289 264.308 65.1839 264.56C65.1389 264.812 60.0249 264.272 53.7314 263.353C47.438 262.435 42.369 261.472 42.405 261.22Z" fill="white"/>
<path d="M65.7511 264.137C65.58 263.912 69.0644 261.111 72.6838 257.006C76.3033 252.9 78.6892 249.128 78.9233 249.272C79.1574 249.416 77.1226 253.458 73.3861 257.627C69.6496 261.796 65.8772 264.335 65.7511 264.137Z" fill="white"/>
<path d="M379.2 94.2667C379.2 94.2667 379.2 94.0596 379.254 93.6725C379.308 93.2853 379.353 92.7001 379.435 91.9618C379.435 91.5837 379.552 91.1605 379.561 90.6923C379.57 90.2241 379.561 89.7109 379.561 89.1617C379.561 88.6125 379.561 88.0093 379.561 87.361C379.561 86.7128 379.453 86.0555 379.39 85.3352C379.027 81.8523 378.116 78.4488 376.688 75.2512C374.803 71.0246 372.041 67.2467 368.585 64.1679L367.109 62.8894C366.586 62.4932 366.037 62.1151 365.497 61.7279C364.377 60.9338 363.207 60.212 361.995 59.5671C359.402 58.2201 356.64 57.2268 353.783 56.6139C352.3 56.2788 350.796 56.0442 349.282 55.9116C348.507 55.8216 347.715 55.8576 346.923 55.8306H345.734C345.338 55.8306 344.942 55.8936 344.537 55.9206C341.225 56.1006 337.964 56.8088 334.876 58.0185C328.206 60.5821 322.554 65.2508 318.778 71.3167C314.769 77.8582 313.14 85.5831 314.168 93.1863C314.24 93.6905 314.321 94.1857 314.411 94.6719V94.7709L314.357 94.852L303.751 109.582L303.535 109.222L319.183 106.8H319.318L319.399 106.917C323.905 113.664 330.76 118.494 338.63 120.467C339.813 120.779 341.016 121.002 342.232 121.133L344.033 121.358C344.627 121.43 345.221 121.403 345.833 121.43C350.295 121.556 354.735 120.766 358.879 119.107C362.416 117.684 365.685 115.672 368.549 113.156L370.395 111.418L371.98 109.618C372.476 109.047 372.937 108.446 373.357 107.817C373.762 107.214 374.257 106.674 374.555 106.079C375.779 104.12 376.802 102.042 377.607 99.8759L378.417 97.499C378.579 96.7967 378.723 96.2025 378.831 95.6983L379.101 94.6179C379.164 94.3658 379.2 94.2487 379.2 94.2487C379.188 94.373 379.166 94.4963 379.137 94.6179C379.083 94.879 379.011 95.2481 378.912 95.7163C378.813 96.1845 378.678 96.8057 378.525 97.517L377.742 99.9119C376.964 102.111 375.96 104.224 374.744 106.214C374.411 106.818 373.951 107.367 373.546 108.015C373.126 108.644 372.666 109.245 372.169 109.816L370.584 111.617L368.738 113.417C365.861 115.973 362.57 118.019 359.005 119.468C354.832 121.136 350.362 121.932 345.869 121.809C345.275 121.809 344.663 121.809 344.069 121.746L342.268 121.52C341.026 121.39 339.795 121.168 338.585 120.854C336.075 120.232 333.643 119.325 331.338 118.153C326.409 115.572 322.198 111.807 319.084 107.196L319.3 107.286L303.652 109.726L303.112 109.807L303.436 109.357C306.866 104.585 310.413 99.6598 314.024 94.6269V94.8069C313.934 94.3117 313.844 93.8075 313.772 93.3033C312.743 85.587 314.406 77.7519 318.481 71.1186C322.306 64.9564 328.042 60.2137 334.813 57.6133C337.93 56.3895 341.221 55.6693 344.564 55.4795C344.969 55.4795 345.374 55.4074 345.779 55.3984H346.986C347.787 55.3984 348.579 55.3984 349.363 55.4795C350.908 55.6187 352.442 55.8624 353.955 56.2088C358.187 57.1492 362.182 58.9447 365.695 61.4848C366.244 61.881 366.794 62.2681 367.325 62.6643L368.801 63.9698C374.99 69.4686 378.853 77.1175 379.606 85.3622C379.66 86.0825 379.714 86.7668 379.759 87.406C379.804 88.0453 379.759 88.6485 379.759 89.2067C379.759 89.7649 379.759 90.2782 379.759 90.7463C379.759 91.2145 379.651 91.6467 379.615 92.0158C379.516 92.7541 379.435 93.3304 379.381 93.7265C379.326 94.1227 379.2 94.2667 379.2 94.2667Z" fill="#263238"/>
<path d="M357.421 75.9897L361.364 105.927H332.094L336.353 75.9897H357.421Z" fill="#FF4242"/>
<path d="M338.739 80.3293C339.122 81.3292 339.621 82.2809 340.224 83.1654C340.905 84.0875 341.773 84.8546 342.772 85.4163C344.017 86.0726 345.407 86.4069 346.815 86.3887C348.218 86.4236 349.609 86.1145 350.866 85.4884C351.877 84.9494 352.74 84.1702 353.378 83.2195C353.95 82.3156 354.401 81.3409 354.72 80.3203C354.754 80.6255 354.714 80.9343 354.603 81.2207C354.4 81.9993 354.082 82.7429 353.657 83.4265C353.022 84.4568 352.132 85.3064 351.073 85.8935C349.758 86.58 348.289 86.9179 346.806 86.8749C345.324 86.8937 343.863 86.5276 342.565 85.8125C341.52 85.2091 340.627 84.3745 339.954 83.3725C339.503 82.7054 339.148 81.978 338.901 81.2117C338.783 80.9328 338.728 80.6317 338.739 80.3293Z" fill="white"/>
<path d="M176.18 7.81494V79.3661L157.938 61.1249H25.1182V7.81494H176.18Z" fill="#FF4242"/>
<path d="M139.535 56.4518C150.654 56.4518 159.667 47.4385 159.667 36.3199C159.667 25.2014 150.654 16.188 139.535 16.188C128.417 16.188 119.403 25.2014 119.403 36.3199C119.403 47.4385 128.417 56.4518 139.535 56.4518Z" fill="#FF4242"/>
<path opacity="0.2" d="M139.535 56.4518C150.654 56.4518 159.667 47.4385 159.667 36.3199C159.667 25.2014 150.654 16.188 139.535 16.188C128.417 16.188 119.403 25.2014 119.403 36.3199C119.403 47.4385 128.417 56.4518 139.535 56.4518Z" fill="black"/>
<path d="M39.0826 29.7834C39.0826 29.6214 54.6588 29.4863 73.8723 29.4863C93.0859 29.4863 108.662 29.6214 108.662 29.7834C108.662 29.9455 93.0949 30.0806 73.8723 30.0806C54.6498 30.0806 39.0826 29.9725 39.0826 29.7834Z" fill="white"/>
<path d="M39.0826 37.4453C39.0826 37.2832 54.6588 37.1482 73.8723 37.1482C93.0859 37.1482 108.662 37.2832 108.662 37.4453C108.662 37.6074 93.0949 37.7334 73.8723 37.7334C54.6498 37.7334 39.0826 37.6074 39.0826 37.4453Z" fill="white"/>
<path d="M72.5038 44.9812C72.5038 44.8191 80.607 44.6841 90.5829 44.6841C100.559 44.6841 108.662 44.8191 108.662 44.9812C108.662 45.1433 100.559 45.2693 90.5829 45.2693C80.607 45.2693 72.5038 45.1433 72.5038 44.9812Z" fill="white"/>
<path d="M71.1173 21.8694C71.1173 21.7073 79.5266 21.5723 89.8897 21.5723C100.253 21.5723 108.662 21.7073 108.662 21.8694C108.662 22.0314 100.262 22.1665 89.8897 22.1665C79.5176 22.1665 71.1173 22.0675 71.1173 21.8694Z" fill="white"/>
<path d="M141.3 35.9778C142.186 35.5674 142.933 34.9058 143.446 34.0752C143.96 33.2445 144.219 32.2812 144.19 31.3049C144.22 30.6657 144.119 30.0272 143.893 29.4285C143.667 28.8298 143.321 28.2836 142.876 27.8236C142.432 27.3636 141.897 26.9995 141.307 26.7536C140.716 26.5078 140.081 26.3854 139.441 26.394C138.801 26.4026 138.17 26.542 137.586 26.8037C137.002 27.0654 136.478 27.4438 136.046 27.9156C135.613 28.3874 135.282 28.9426 135.072 29.5472C134.863 30.1518 134.779 30.7928 134.826 31.431C134.825 32.4167 135.116 33.3807 135.663 34.2012C136.209 35.0216 136.987 35.6618 137.896 36.0408C130.694 37.2563 131.18 45.0443 131.18 45.0443L148.224 44.8102C148.224 44.8102 148.44 36.9231 141.3 35.9778Z" fill="white"/>
<path d="M146.468 109.906V139.258L138.986 131.776H84.4965V109.906H146.468Z" fill="#FF4242"/>
<path d="M111.507 116.92C111.507 116.785 117.549 116.686 125.012 116.686C132.476 116.686 138.518 116.785 138.518 116.92C138.518 117.055 132.476 117.154 125.012 117.154C117.549 117.154 111.507 117.046 111.507 116.92Z" fill="white"/>
<path d="M129.739 123.015C130.988 122.779 132.261 122.701 133.53 122.781C134.801 122.701 136.077 122.779 137.329 123.015C136.077 123.246 134.801 123.324 133.53 123.249C132.261 123.324 130.989 123.245 129.739 123.015Z" fill="white"/>
<path d="M127.948 124.699C127.822 124.699 127.606 124.312 127.353 123.799C127.101 123.285 126.894 122.898 127.002 122.79C127.11 122.682 127.497 123.042 127.768 123.591C128.038 124.141 128.074 124.672 127.948 124.699Z" fill="white"/>
<path d="M113.929 122.799C115.66 122.568 117.407 122.489 119.151 122.565C120.892 122.489 122.637 122.567 124.364 122.799C122.637 123.036 120.892 123.114 119.151 123.033C117.407 123.114 115.659 123.035 113.929 122.799Z" fill="white"/>
<path d="M112.669 124.591C112.552 124.654 112.227 124.258 111.93 123.691C111.633 123.123 111.498 122.646 111.615 122.583C111.732 122.52 112.056 122.925 112.353 123.483C112.651 124.042 112.786 124.51 112.669 124.591Z" fill="white"/>
<path d="M97.4977 122.709C99.3121 122.472 101.144 122.394 102.972 122.475C104.803 122.394 106.637 122.472 108.455 122.709C106.637 122.94 104.803 123.018 102.972 122.943C101.144 123.019 99.3126 122.94 97.4977 122.709Z" fill="white"/>
<path d="M96.1381 123.609C96.0301 123.681 95.6969 123.348 95.3908 122.871C95.0847 122.394 94.9316 121.971 95.0397 121.89C95.1477 121.809 95.4809 122.142 95.787 122.619C96.0931 123.096 96.2822 123.609 96.1381 123.609Z" fill="white"/>
<path d="M89.9797 122.277C89.9797 122.142 90.709 122.043 91.6093 122.043C92.5097 122.043 93.248 122.142 93.248 122.277C93.248 122.412 92.5097 122.511 91.6093 122.511C90.709 122.511 89.9797 122.403 89.9797 122.277Z" fill="white"/>
</svg>
